<svg width="137" height="322" viewBox="0 0 137 322" fill="none" xmlns="http://www.w3.org/2000/svg">
<g clip-path="url(#clip0_192_1326)">
<path d="M1.19927 168.89C1.55927 173.09 1.71928 177.31 2.02928 181.51C2.18928 183.8 2.47924 186.06 2.85924 188.32C3.19924 190.32 3.59926 192.39 4.00926 194.42C4.41926 196.45 4.82927 198.62 5.13927 200.74C5.44927 202.86 5.69925 205.22 5.99925 207.45C5.99925 207.28 5.99925 207.11 5.92925 206.93C5.99925 207.49 6.06928 208.04 6.14928 208.6C6.29928 209.72 6.45927 210.83 6.63927 211.94C6.81927 213.05 7.03926 214.05 7.25926 215.09C7.65926 217.04 8.07929 218.99 8.46929 220.94C8.85929 222.89 9.32925 225 9.86925 227C10.4092 229 11.0593 231.23 11.6293 233.35C12.7393 237.4 14.0392 241.35 15.4292 245.35C16.8192 249.35 18.2792 253 19.6192 256.84C20.5934 260.016 21.4044 263.24 22.0492 266.5C22.4192 268.049 22.8592 269.59 23.2292 271.14C23.5992 272.69 23.8393 274.06 24.0593 275.54C24.2761 277.459 24.3929 279.388 24.4093 281.32C24.4093 283.49 24.4093 285.65 24.4093 287.81C24.4093 289.97 24.4092 291.88 24.5492 293.91C24.6892 295.94 24.7793 298.04 24.7493 300.11C24.7493 301.11 24.6893 302.11 24.6393 303.11C24.5893 303.9 24.4993 304.69 24.3993 305.47C24.1794 306.781 23.889 308.079 23.5293 309.36C23.3293 310.02 23.1192 310.68 22.9192 311.36C22.8092 311.71 22.7092 312.06 22.6092 312.36C22.4713 312.984 22.3877 313.62 22.3592 314.26C22.3592 314.738 22.4696 315.21 22.6817 315.639C22.8938 316.067 23.202 316.441 23.5822 316.732C23.9624 317.022 24.4045 317.221 24.874 317.312C25.3435 317.404 25.8278 317.386 26.2892 317.26C26.6768 317.158 27.0402 316.981 27.3579 316.737C27.6756 316.493 27.9413 316.188 28.1393 315.84C28.4721 315.158 28.7432 314.449 28.9493 313.72C29.0893 313.22 29.1893 312.72 29.3093 312.19C29.5493 311.19 29.7592 310.19 29.9292 309.26C30.1492 307.98 30.3393 306.71 30.4393 305.42C30.5193 304.35 30.5693 303.29 30.5893 302.22C30.6693 298.07 29.9593 293.96 29.6993 289.83C29.4393 285.7 29.4592 281.83 29.1192 277.88C29.2488 277.894 29.3797 277.894 29.5093 277.88L36.7292 276.4L39.9493 276.18C40.5493 276.18 41.1493 276.06 41.7493 276L44.4693 275.72L46.0293 275.53C46.7693 275.44 47.4992 275.35 48.2292 275.24C49.5826 275.101 50.921 274.843 52.2292 274.47C52.4534 274.401 52.6539 274.271 52.8077 274.094C52.9616 273.918 53.0625 273.701 53.0992 273.47C53.3404 273.393 53.5719 273.289 53.7892 273.16C54.0624 273.012 54.2659 272.763 54.355 272.465C54.4441 272.168 54.4115 271.848 54.2643 271.575C54.1171 271.301 53.8674 271.098 53.5701 271.009C53.2729 270.92 52.9524 270.952 52.6792 271.1C52.7456 271.021 52.8058 270.937 52.8592 270.85C52.9635 270.67 53.0313 270.471 53.0588 270.265C53.0862 270.06 53.0728 269.85 53.0193 269.65C52.9099 269.263 52.6556 268.933 52.3093 268.73C51.9471 268.528 51.5219 268.471 51.1193 268.57C50.2693 268.73 49.4293 268.85 48.5793 268.96L47.1993 269.13C46.7393 269.18 46.2692 269.19 45.7992 269.23C44.7992 269.3 43.7992 269.23 42.7992 269.23C41.9992 269.23 41.2192 269.14 40.4192 269.08L37.4192 268.83L36.0992 268.62C37.3892 268.69 38.6693 268.76 39.9593 268.77C41.6693 268.77 43.3793 268.77 45.0893 268.77C45.9193 268.77 46.7393 268.77 47.5593 268.71C47.9093 268.71 48.2493 268.71 48.5593 268.65C49.2083 268.62 49.8521 268.519 50.4792 268.35C50.6874 268.292 50.8823 268.195 51.0527 268.062C51.2232 267.93 51.3659 267.765 51.4726 267.578C51.5794 267.39 51.6482 267.183 51.6751 266.969C51.702 266.755 51.6864 266.538 51.6293 266.33C51.5721 266.121 51.4746 265.927 51.3422 265.756C51.2097 265.586 51.045 265.443 50.8574 265.336C50.6698 265.229 50.4631 265.161 50.249 265.134C50.0348 265.107 49.8174 265.122 49.6092 265.18L49.2193 265.26C47.7293 265.42 46.2192 265.42 44.7292 265.44C43.0392 265.44 41.3592 265.44 39.6692 265.44C38.2692 265.44 36.8593 265.34 35.4593 265.28C33.0193 265.17 30.5993 265.04 28.1593 264.89H28.0793C27.7697 264.9 27.4698 265 27.2159 265.177C26.9621 265.355 26.7653 265.602 26.6493 265.89C26.5193 265.46 26.3993 265.04 26.2793 264.62C25.7093 262.62 25.2793 260.55 24.6593 258.54C24.0393 256.53 23.3492 254.64 22.5992 252.73C21.0692 248.86 19.5993 244.97 18.1393 241.05C17.4493 239.12 16.7693 237.18 16.1393 235.22C15.5093 233.26 14.9593 231.22 14.3793 229.22C13.7993 227.22 13.2492 225.29 12.7992 223.3C12.3492 221.31 11.9193 219.04 11.4993 216.91C10.9893 214.39 10.4993 211.91 10.0893 209.34C9.84928 207.42 9.61259 205.496 9.37926 203.57C9.12926 201.43 8.92923 199.28 8.53923 197.15C8.14923 195.02 7.64929 193.01 7.21929 190.93C6.78929 188.85 6.45929 186.93 6.15929 184.93C5.67929 180.81 5.56928 176.66 5.33928 172.52C5.23928 170.74 5.09927 168.97 4.94927 167.19C5.66927 168.27 6.35924 169.36 7.04924 170.45C7.60924 171.34 8.19929 172.2 8.71929 173.1C9.84929 175.1 10.9793 177.1 12.0693 179.1C13.0193 180.84 13.9193 182.6 14.8393 184.35C15.8659 186.29 16.8926 188.23 17.9192 190.17C19.8692 193.88 21.6793 197.67 23.4693 201.45C23.8693 202.32 24.2993 203.18 24.7493 204.03L25.5492 205.51C25.8776 206.117 26.2662 206.69 26.7093 207.22C27.2191 207.808 27.82 208.311 28.4892 208.71C28.7603 208.861 29.0409 208.995 29.3293 209.11C29.7193 209.27 30.0892 209.43 30.4892 209.55C31.1929 209.751 31.918 209.868 32.6493 209.9C33.8212 209.99 35 209.889 36.1393 209.6C37.2797 209.273 38.393 208.858 39.4693 208.36C40.4693 207.93 41.3793 207.45 42.3193 206.98C42.9503 206.657 43.5411 206.261 44.0793 205.8C44.6807 205.273 45.2117 204.672 45.6593 204.01C45.842 203.729 45.9961 203.431 46.1193 203.12C46.3927 202.537 46.5586 201.911 46.6092 201.27C46.6292 201.007 46.6292 200.742 46.6092 200.48C48.0204 200.817 49.46 201.021 50.9093 201.09C51.4055 201.119 51.9031 201.119 52.3993 201.09C53.1393 201.03 53.8792 200.95 54.6092 200.84C54.2316 201.085 53.9602 201.463 53.8492 201.9C53.5292 203.28 53.2592 204.67 52.9892 206.06C52.8192 206.91 52.6593 207.76 52.5293 208.62C52.3393 209.9 52.1093 211.19 51.9593 212.48C51.8293 213.6 51.6893 214.73 51.5593 215.85C51.4293 216.97 51.3892 217.92 51.2992 218.95C51.2092 219.98 51.1693 220.89 51.1293 221.85C51.0493 224.01 50.9693 226.16 50.9993 228.32C51.0022 229.546 51.0757 230.771 51.2193 231.99C51.3193 232.75 51.3893 233.5 51.5193 234.25L51.8793 236.46C52.0893 237.71 52.3393 238.96 52.5693 240.21L52.9292 242.21C53.0347 242.888 53.1953 243.557 53.4093 244.21C53.5512 244.691 53.8688 245.101 54.2992 245.36C54.7482 245.615 55.2786 245.686 55.7793 245.56C56.2644 245.42 56.6788 245.102 56.9393 244.67L57.1293 244.21C57.2139 243.882 57.2139 243.537 57.1293 243.21C56.9993 242.38 56.8093 241.56 56.6293 240.74C56.4493 239.92 56.2993 239.18 56.1393 238.39C55.8126 236.663 55.5026 234.93 55.2093 233.19V233.39C55.1093 232.69 54.9993 231.98 54.9493 231.28C54.9493 230.37 54.8293 229.46 54.8193 228.55C54.8193 226.73 54.8192 224.92 54.9192 223.1C55.0192 221.28 55.0892 219.72 55.2292 218.04C55.2992 217.2 55.3593 216.35 55.4593 215.51L55.7892 212.78L56.0893 210.78C56.1993 210.02 56.2892 209.26 56.4292 208.51C56.7992 206.66 57.1493 204.81 57.5693 202.98C57.694 202.481 57.6224 201.954 57.3693 201.508C57.1161 201.061 56.7007 200.728 56.2093 200.58H56.0793C56.6494 200.413 57.2101 200.216 57.7593 199.99C58.7319 199.634 59.672 199.196 60.5693 198.68C61.3202 198.224 61.995 197.654 62.5693 196.99C62.8393 196.66 63.0992 196.3 63.3492 195.99C63.6217 195.554 63.84 195.088 63.9993 194.6C64.3061 193.791 64.4914 192.942 64.5492 192.08C64.6075 191.057 64.5302 190.032 64.3193 189.03C64.1546 188.101 63.9376 187.183 63.6692 186.28L65.2793 188.07C66.1593 189.07 66.9893 190.07 67.8092 191.14C68.6292 192.21 69.1592 192.98 69.8092 193.93C70.4593 194.88 70.9893 195.85 71.5893 196.8C71.9393 197.35 72.2993 197.88 72.6993 198.4L73.6993 199.72C74.3909 200.607 75.132 201.455 75.9192 202.26C76.4992 202.85 77.0993 203.42 77.6893 203.99C78.2793 204.56 78.7492 205.07 79.2992 205.59C80.0851 206.378 80.9347 207.101 81.8393 207.75C82.7252 208.344 83.6917 208.809 84.7093 209.13C84.997 209.206 85.3033 209.166 85.5618 209.018C85.8202 208.87 86.0097 208.626 86.0893 208.34C86.131 208.195 86.1427 208.043 86.1238 207.893C86.1049 207.744 86.0557 207.599 85.9792 207.47L85.7992 207.24C85.6625 207.104 85.4941 207.004 85.3092 206.95L85.1792 206.9C84.2828 206.521 83.431 206.045 82.6393 205.48C81.8123 204.794 81.0244 204.063 80.2793 203.29L78.0592 201.12C77.3547 200.453 76.6871 199.749 76.0592 199.01C75.4293 198.26 74.7992 197.51 74.1792 196.75C73.8792 196.336 73.5892 195.916 73.3092 195.49C72.9993 195.01 72.6993 194.49 72.3893 194.06C72.0793 193.63 71.6793 192.98 71.3193 192.45C70.9593 191.92 70.6793 191.57 70.3193 191.12C69.9593 190.67 69.5893 190.17 69.2093 189.71C68.8293 189.25 68.4792 188.82 68.1092 188.39C67.2692 187.39 66.4293 186.47 65.5693 185.52C65.4493 185.39 65.3293 185.27 65.2193 185.14C65.8828 184.889 66.5306 184.598 67.1593 184.27C68.4593 183.589 69.6466 182.712 70.6792 181.67C71.0989 181.237 71.3337 180.657 71.3337 180.055C71.3337 179.452 71.0989 178.872 70.6792 178.44C70.2459 178.016 69.6655 177.776 69.0592 177.77C68.4578 177.784 67.8835 178.023 67.4493 178.44L67.3092 178.56C66.369 179.223 65.3639 179.789 64.3092 180.25C63.5544 180.553 62.7703 180.777 61.9693 180.92C61.304 180.98 60.6346 180.98 59.9693 180.92C59.1293 180.78 58.2993 180.58 57.4693 180.36C56.7162 180.138 55.9751 179.878 55.2493 179.58C53.9893 179.03 52.7693 178.44 51.5593 177.8C50.1893 177.08 48.8193 176.39 47.4093 175.8C45.9993 175.21 44.4092 174.54 42.9192 173.94C41.4292 173.34 40.1993 172.84 38.8393 172.27C36.2103 171.28 33.7038 169.992 31.3692 168.43C30.3692 167.6 29.3692 166.68 28.3692 165.76L28.8093 166.01C29.9324 166.596 31.1161 167.059 32.3393 167.39C33.1993 167.62 34.0893 167.74 34.9693 167.9C37.1193 168.28 39.2592 168.69 41.4292 168.96C42.3492 169.07 43.2693 169.13 44.1893 169.2C44.8293 169.2 45.4692 169.26 46.0992 169.2C46.7193 169.184 47.3346 169.086 47.9292 168.91C48.7177 168.644 49.4357 168.203 50.0293 167.62C50.2149 167.441 50.3854 167.247 50.5392 167.04C50.7792 166.73 51.0093 166.42 51.2193 166.09C51.573 165.472 51.8676 164.822 52.0992 164.15C52.4415 163.227 52.7058 162.277 52.8893 161.31C53.0993 160.31 53.2692 159.37 53.4292 158.39C53.8011 155.987 53.9983 153.561 54.0193 151.13C54.0193 149.95 54.0192 148.77 53.9292 147.59C53.9292 147.39 53.9292 147.19 53.9292 146.99L55.5593 147.33C57.131 147.722 58.6666 148.247 60.1493 148.9C62.0693 149.77 63.9392 150.72 65.7992 151.69C67.6592 152.66 69.6492 153.69 71.5592 154.69C73.4693 155.69 75.0893 156.78 76.8193 157.88C78.5493 158.98 80.3793 160.12 82.1593 161.22C83.5193 162.06 84.8893 162.9 86.2193 163.78C87.5493 164.66 89.0992 165.72 90.5492 166.66C91.9992 167.6 93.4893 168.52 94.9693 169.44C96.4493 170.36 97.6793 171.15 98.9693 172.1C99.5677 172.588 100.12 173.13 100.619 173.72C101.019 174.295 101.38 174.896 101.699 175.52C102.119 176.36 102.559 177.19 102.999 178.02C103.799 179.48 104.599 180.94 105.379 182.41C106.159 183.88 107.039 185.41 107.779 186.99C108.519 188.57 109.199 189.99 109.869 191.51C110.369 192.76 110.809 194.01 111.189 195.29C111.545 196.544 111.822 197.82 112.019 199.11C112.149 200.62 112.219 202.11 112.199 203.65C112.199 205.39 112.099 207.11 111.989 208.84C111.879 210.57 111.679 212.17 111.489 213.84C111.299 215.51 111.119 217.04 110.929 218.64C110.929 218.46 110.929 218.28 110.999 218.11L110.729 220.11C110.729 220.17 110.729 220.23 110.729 220.29C110.629 220.7 110.599 221.14 110.539 221.56C110.229 223.63 109.849 225.69 109.459 227.74C108.709 231.74 107.719 235.74 106.799 239.74C106.329 241.74 105.799 243.85 105.309 245.89C104.819 247.93 104.229 250 103.759 252.07C103.289 254.14 102.759 256.43 102.159 258.59C101.929 259.49 101.649 260.37 101.419 261.27C101.141 262.277 100.918 263.298 100.749 264.33C100.569 265.59 100.409 266.85 100.279 268.11C100.179 269.11 100.129 270.11 100.089 271.11C99.9993 273.28 100.089 275.45 100.089 277.63C100.219 281.86 100.569 286.07 101.039 290.28C101.279 292.4 101.486 294.523 101.659 296.65C101.829 298.79 101.959 300.93 102.089 303.07C102.359 307.28 102.349 311.5 102.449 315.71C102.449 316.95 102.519 318.2 102.559 319.44C102.514 319.725 102.531 320.017 102.609 320.296C102.687 320.574 102.825 320.833 103.013 321.053C103.2 321.273 103.434 321.45 103.696 321.571C103.959 321.692 104.245 321.755 104.534 321.755C104.824 321.755 105.109 321.692 105.372 321.571C105.635 321.45 105.868 321.273 106.056 321.053C106.244 320.833 106.381 320.574 106.46 320.296C106.538 320.017 106.555 319.725 106.509 319.44C106.439 317.21 106.369 314.99 106.339 312.76C106.309 310.53 106.279 308.36 106.219 306.16C106.159 304.16 106.009 302.08 105.869 300.04C105.729 298 105.589 295.93 105.379 293.87C105.169 291.81 104.879 289.73 104.679 287.66C104.469 285.38 104.299 283.11 104.179 280.83C104.069 278.72 104.049 276.609 104.039 274.5C104.039 273.56 104.039 272.61 104.099 271.67C104.159 270.73 104.199 269.5 104.319 268.42L104.499 266.86C104.569 266.41 104.629 265.96 104.699 265.51C104.769 265.06 104.909 264.44 105.019 263.91C105.209 262.97 105.499 262.05 105.759 261.13C106.339 259.13 106.869 257.13 107.329 255.13C107.789 253.13 108.259 251.02 108.779 248.98C109.299 246.94 109.839 244.84 110.299 242.75C110.759 240.66 111.189 238.67 111.659 236.64C112.129 234.61 112.579 232.57 112.979 230.52C113.379 228.47 113.789 226.28 114.139 224.14C114.299 223.14 114.449 222.14 114.599 221.14C114.614 221.007 114.614 220.872 114.599 220.74C114.759 219.62 114.909 218.5 115.039 217.38C115.309 215.24 115.539 213.09 115.759 210.94C115.969 208.94 116.119 206.94 116.149 204.94C116.149 204.36 116.149 203.78 116.149 203.19C116.362 203.036 116.535 202.835 116.655 202.602C116.775 202.369 116.838 202.111 116.839 201.85C116.839 199.45 116.839 197.049 116.839 194.65V192.43C116.839 192.07 116.839 191.71 116.839 191.36C116.759 190.07 116.679 188.78 116.609 187.5C116.489 185.61 116.259 183.72 116.029 181.85C115.749 179.69 115.469 177.54 115.219 175.39C114.969 173.24 114.779 171.39 114.519 169.39C114.229 167.14 113.939 164.9 113.699 162.65C113.489 160.6 113.439 158.54 113.389 156.48C113.339 154.42 113.389 152.32 113.389 150.25C113.477 148.144 113.671 146.045 113.969 143.96C114.219 141.89 114.429 139.82 114.629 137.75C115.019 133.68 115.409 129.6 115.919 125.54L116.249 122.89L116.729 119.8C116.899 118.71 117.149 117.62 117.359 116.54C117.769 114.45 118.359 112.39 118.829 110.33C119.829 106.26 120.939 102.2 121.969 98.1295C122.999 94.0595 123.969 90.1995 124.899 86.2195C125.839 82.0795 126.669 77.9195 127.519 73.7595C128.369 69.5995 129.349 65.2995 130.259 61.0695C131.129 57.0695 131.839 53.0695 132.659 49.0095C133.106 46.8495 133.546 44.6895 133.979 42.5295C134.389 40.4395 134.729 38.3395 135.039 36.2295C135.349 34.1195 135.629 31.8795 135.899 29.6995C136.169 27.5195 136.419 25.4795 136.569 23.3595C136.629 22.4395 136.669 21.5195 136.689 20.6095C136.709 19.6995 136.769 18.5495 136.689 17.5295C136.713 16.0363 136.538 14.5466 136.169 13.0995C135.661 11.6543 134.778 10.3703 133.609 9.37952C132.51 8.37581 131.262 7.54925 129.909 6.92952C128.773 6.37954 127.604 5.89866 126.409 5.48952C125.357 5.10171 124.286 4.76794 123.199 4.48952C122.157 4.24705 121.09 4.12293 120.019 4.11952C118.948 4.12189 117.881 4.24942 116.839 4.49952C116.528 4.58564 116.224 4.69598 115.929 4.82952C115.509 4.98879 115.101 5.17932 114.709 5.39952C114.069 5.78223 113.481 6.24607 112.959 6.77952C112.222 7.55374 111.574 8.40923 111.029 9.32952C110.538 10.1073 110.11 10.9232 109.749 11.7695C109.279 12.8695 108.819 13.9695 108.419 15.0995C107.699 17.0995 106.939 19.1795 106.169 21.2095C104.619 25.2695 103.169 29.3695 101.729 33.4695C100.289 37.5695 99.0992 41.4695 97.9192 45.5795C96.7392 49.6895 95.6893 53.6795 94.7093 57.7595C93.7293 61.8395 92.8592 65.8995 91.9792 69.9795C91.0992 74.0595 90.2092 78.2995 89.3692 82.4695C89.0792 83.8895 88.7692 85.3095 88.4292 86.7195C88.0892 88.1295 87.6493 89.7795 87.2793 91.3195C86.9093 92.8595 86.5293 94.3995 86.1192 95.9295C85.7745 97.1872 85.3537 98.4228 84.8592 99.6295C84.3992 100.57 83.8592 101.48 83.3692 102.39C82.8812 103.213 82.3505 104.011 81.7793 104.78C81.3393 105.31 80.8992 105.78 80.4192 106.32C79.9392 106.86 79.3192 107.32 78.7292 107.83C78.1392 108.34 77.6493 108.57 77.0893 108.91C76.6256 109.187 76.1408 109.428 75.6393 109.63C75.1193 109.82 74.6393 110.01 74.0592 110.16L73.4792 110.32C72.7624 109.77 72.0933 109.162 71.4792 108.5C70.8592 107.84 70.2892 107.16 69.7292 106.45C69.0306 105.496 68.4023 104.494 67.8492 103.45C67.3392 102.45 66.9092 101.45 66.4792 100.45C65.7492 98.6295 65.0992 96.7695 64.5492 94.8895C64.2592 93.8895 63.9592 92.8895 63.7392 91.8895C63.5192 90.8895 63.3093 89.7995 63.1293 88.7395C62.7593 86.6295 62.3693 84.5195 61.9393 82.4195C61.5269 80.468 60.9925 78.5442 60.3393 76.6595C59.6726 74.5995 59.0226 72.5262 58.3893 70.4395C57.8293 68.5095 57.1993 66.5995 56.5693 64.6995C55.9026 62.6329 55.1793 60.5829 54.3993 58.5495C53.6393 56.5495 52.8793 54.5495 52.1393 52.5495C50.7493 48.7995 49.4193 45.0195 47.9393 41.2895C47.1493 39.2895 46.3393 37.2895 45.6393 35.2895C44.9393 33.2895 44.2093 31.1295 43.4593 29.0695C42.0493 25.1495 40.4593 21.3095 38.8193 17.4795C38.0093 15.5595 37.1593 13.6595 36.3293 11.7595C35.6093 10.0995 34.8993 8.42952 34.1792 6.75952C33.7692 5.75952 33.3693 4.75952 32.9093 3.75952C32.5995 3.14149 32.1831 2.58294 31.6792 2.10952C31.0563 1.45548 30.317 0.923085 29.4993 0.539523C28.4992 0.148443 27.4329 -0.0451258 26.3592 -0.0304765C25.9114 -0.0284427 25.4641 -0.00173369 25.0193 0.0495253C23.8206 0.198974 22.6319 0.419356 21.4593 0.709521C20.0807 1.01552 18.7188 1.39269 17.3793 1.83953C16.6432 2.09026 15.9277 2.39785 15.2392 2.75952C14.6904 3.05638 14.1625 3.39049 13.6593 3.75952C13.0693 4.18952 12.4892 4.63952 11.9192 5.09952C11.5292 5.40952 11.1493 5.72952 10.7593 6.09952C9.96795 6.80582 9.25699 7.59728 8.63927 8.45952C7.70574 9.64184 7.025 11.0033 6.63927 12.4595C6.4613 13.277 6.41739 14.118 6.50926 14.9495C6.55774 15.5755 6.65128 16.1971 6.78923 16.8095C6.88923 17.3095 6.98925 17.8095 7.11925 18.3195C7.68925 20.4395 8.39925 22.5095 9.11925 24.5895C9.83925 26.6695 10.3092 28.5195 10.8492 30.4995C11.3892 32.4795 11.8493 34.4995 12.4593 36.4295C13.0793 38.5895 13.7092 40.7495 14.3492 42.9095C15.5192 46.9095 16.6393 50.9095 17.9693 54.8295C18.6393 56.8295 19.3393 58.7495 19.9693 60.7095C20.5993 62.6695 21.3793 64.5395 22.0693 66.5395C22.7593 68.5395 23.6193 70.3995 24.3993 72.3195C25.1793 74.2395 25.9192 76.1695 26.6692 78.0995C27.4192 80.0295 28.1893 82.0995 28.9993 84.0995C29.4293 85.0995 29.8793 86.1795 30.3193 87.2295C30.4193 87.4495 30.5092 87.6695 30.6092 87.8995L30.7593 88.2595L30.9093 88.6095V88.6795C30.9093 88.7895 30.9992 88.8995 31.0492 89.0195L30.9993 88.8995C30.9993 88.9895 31.0692 89.0695 31.1092 89.1495C32.7192 92.9695 34.4092 96.7595 36.0492 100.56C36.6692 102.03 37.2793 103.5 37.8993 104.96C38.5193 106.42 39.0493 107.8 39.6193 109.22C39.9593 110.06 40.2793 110.9 40.6193 111.74L39.1692 111.9C38.1692 112 37.1692 112.1 36.1692 112.22C34.9754 112.342 33.79 112.536 32.6193 112.8C30.8131 113.187 29.092 113.899 27.5392 114.9C26.4144 115.696 25.4677 116.717 24.7593 117.9C24.4793 118.36 24.2093 118.82 23.9693 119.3C23.4301 120.369 22.9494 121.468 22.5293 122.59C21.9412 124.284 21.7664 126.094 22.0193 127.87C22.1693 129.22 22.3393 130.57 22.5093 131.93C22.6793 133.29 22.8893 134.69 23.1593 136.05C23.4493 137.58 23.7593 139.1 24.0793 140.62L24.0193 140.52C23.4193 139.63 22.8392 138.72 22.1692 137.88C21.6836 137.262 21.1031 136.725 20.4493 136.29C19.9521 136.002 19.4119 135.796 18.8492 135.68C18.6092 135.61 18.3592 135.56 18.1092 135.51C17.6692 135.43 17.2292 135.37 16.7892 135.32H16.3793C15.8748 135.333 15.3727 135.393 14.8793 135.5C14.4538 135.592 14.0385 135.726 13.6393 135.9C13.2793 136.05 12.8992 136.19 12.5492 136.35C11.6192 136.79 10.7193 137.26 9.82927 137.77C8.97872 138.282 8.16049 138.846 7.37926 139.46C6.44926 140.17 5.53929 140.88 4.65929 141.65C4.22929 142.02 3.80928 142.4 3.39928 142.78C2.98144 143.199 2.59692 143.65 2.24925 144.13C1.93953 144.532 1.65886 144.957 1.40929 145.4C0.61779 147.055 0.175238 148.856 0.10924 150.69C-0.0357862 152.764 -0.0157255 154.848 0.169237 156.92C0.429237 160.86 0.859267 164.87 1.19927 168.89ZM28.5793 272.44C29.8593 272.51 31.1293 272.609 32.3993 272.65H32.7593L33.3693 272.74L36.3693 273.13C36.9193 273.2 37.4693 273.24 38.0193 273.29L37.6792 273.36L35.6193 273.78L32.7193 273.98C31.4993 274.07 30.2793 274.12 29.0593 274.18C28.9276 274.192 28.7971 274.216 28.6692 274.25C28.5792 273.63 28.4692 273.009 28.3492 272.4C28.4251 272.417 28.5019 272.431 28.5793 272.44ZM27.3193 267.92L27.2693 267.99V267.87L27.3193 267.92ZM44.0293 182.76C44.2168 181.909 44.495 181.081 44.8592 180.29C44.902 180.206 44.9388 180.119 44.9693 180.03C45.0393 179.88 45.0992 179.73 45.1692 179.57L45.4993 179.73C47.3893 180.67 49.2093 181.73 51.0693 182.73C52.2987 183.366 53.5641 183.93 54.8592 184.42C55.9191 184.825 57.0136 185.133 58.1293 185.34C58.1145 185.493 58.1145 185.647 58.1293 185.8C58.2393 186.66 58.3392 187.53 58.4792 188.39C58.5992 189.07 58.7293 189.75 58.8393 190.44C58.8693 190.869 58.8693 191.3 58.8393 191.73C58.7593 192.08 58.6693 192.43 58.5593 192.73C58.4693 192.89 58.3793 193.04 58.2793 193.19C58.1793 193.34 57.9493 193.53 57.7693 193.69C57.08 194.137 56.354 194.525 55.5992 194.85C55.0092 195.08 54.4192 195.3 53.7992 195.48C53.2581 195.63 52.7066 195.74 52.1493 195.81C51.3791 195.896 50.6042 195.933 49.8293 195.92C49.0493 195.92 48.2793 195.82 47.5093 195.73C46.7393 195.64 46.2392 195.48 45.6092 195.33C45.1492 192.73 44.6792 190.12 44.2892 187.51C44.1992 186.75 44.1093 185.98 44.0593 185.21C43.9977 184.394 43.9877 183.576 44.0293 182.76ZM40.0293 177.26L41.7093 178L41.6493 178.1C41.3144 178.82 41.0271 179.562 40.7892 180.32C40.6892 180.64 40.6093 180.97 40.5293 181.32C40.3807 181.975 40.3135 182.647 40.3293 183.32C40.3545 183.929 40.4146 184.537 40.5093 185.14C40.6093 185.95 40.7093 186.76 40.8393 187.57C41.1493 189.57 41.5093 191.63 41.8393 193.66L41.7292 193.56C41.5783 193.33 41.4446 193.089 41.3293 192.84C40.9063 191.598 40.5721 190.328 40.3293 189.04L39.5793 185.79C39.1793 184.11 38.7692 182.443 38.3492 180.79C38.4671 180.666 38.5742 180.532 38.6692 180.39C38.8203 180.138 38.9178 179.858 38.9557 179.567C38.9935 179.277 38.9709 178.981 38.8893 178.7L37.8893 176.35L40.0293 177.26ZM35.6393 185.45C36.1293 187.55 36.6393 189.66 37.1193 191.75C37.2293 192.21 37.3493 192.67 37.4693 193.13C37.6511 193.762 37.8784 194.38 38.1493 194.98C38.4755 195.7 38.949 196.344 39.5392 196.87C40.331 197.601 41.2193 198.22 42.1792 198.71C42.0857 198.955 42.0416 199.217 42.0492 199.48C42.0492 199.72 42.0492 199.96 42.0492 200.2C42.0045 200.417 41.9444 200.631 41.8693 200.84C41.7516 201.078 41.618 201.309 41.4693 201.53C41.2781 201.757 41.0709 201.971 40.8492 202.17C39.9478 202.739 39.009 203.247 38.0392 203.69C37.4292 204 36.8093 204.29 36.1893 204.57L35.5693 204.78V204.7L34.2493 201.77L34.4292 202.21C34.1192 201.47 33.7893 200.74 33.5093 199.99C33.1593 199.07 32.8093 198.15 32.5093 197.23C32.0049 195.73 31.6432 194.187 31.4292 192.62C31.4292 192.39 31.3692 192.16 31.3492 191.93C31.3291 191.57 31.3291 191.209 31.3492 190.85C31.3492 190.7 31.3492 190.55 31.3492 190.39C31.4276 189.893 31.5515 189.404 31.7193 188.93C31.8193 188.71 31.9292 188.49 32.0492 188.28C32.1692 188.07 32.3593 187.8 32.5293 187.57C32.9386 187.087 33.3904 186.642 33.8793 186.24C34.4497 185.839 35.0405 185.469 35.6493 185.13C35.6469 185.236 35.6503 185.343 35.6593 185.45H35.6393ZM21.8492 50.4495H21.5492H21.4292C21.1892 49.6895 20.9592 48.9295 20.7292 48.1695C21.3492 48.1695 21.9693 48.1695 22.5693 48.1695C23.9728 48.0401 25.3638 47.7993 26.7292 47.4495C28.287 47.0624 29.8171 46.5713 31.3093 45.9795C30.7693 46.3395 30.1993 46.6795 29.6293 46.9795C28.0122 47.9716 26.3432 48.8762 24.6293 49.6895C24.1681 49.8716 23.6974 50.0285 23.2193 50.1595C22.7748 50.2753 22.324 50.3654 21.8692 50.4295L21.8492 50.4495ZM37.4292 89.8995C37.1178 90.0057 36.8269 90.1647 36.5693 90.3695L36.0893 89.2595C36.3666 89.3142 36.6519 89.3142 36.9292 89.2595C38.2692 89.0795 39.5992 88.8895 40.9292 88.6795H41.0992C39.9092 89.0195 38.6793 89.4595 37.4493 89.8795L37.4292 89.8995ZM38.6493 95.2295L38.2593 94.3095C38.3812 94.2924 38.5016 94.2657 38.6193 94.2295C40.0592 93.7295 41.4992 93.2295 42.9292 92.7095C43.9292 92.3295 45.0093 91.9595 46.0293 91.5295C47.0493 91.0995 48.0293 90.6895 49.0293 90.2195C50.2642 89.6874 51.416 88.9801 52.4493 88.1195C52.7687 87.7993 52.9733 87.3825 53.0312 86.934C53.0891 86.4854 52.997 86.0303 52.7693 85.6395C52.5822 85.3419 52.3246 85.095 52.0193 84.9206C51.7141 84.7462 51.3707 84.6497 51.0193 84.6395C51.0099 84.5344 50.9898 84.4305 50.9593 84.3295C50.83 83.8581 50.5213 83.4561 50.0992 83.2095C49.7943 83.0358 49.4501 82.9429 49.0992 82.9395C48.9421 82.935 48.7857 82.9622 48.6393 83.0195C47.5973 83.3625 46.5309 83.6266 45.4493 83.8095L42.5293 84.3695C41.7093 84.5195 40.8893 84.6195 40.0593 84.7495C38.6693 84.9595 37.2693 85.1595 35.8693 85.3495C35.4292 85.458 35.0446 85.725 34.7892 86.0995C34.7595 86.0117 34.7192 85.9277 34.6692 85.8495L33.5793 83.2395C32.7693 81.3095 32.0292 79.3595 31.2892 77.3995C29.8392 73.5595 28.2892 69.7495 26.7992 65.9295C25.3092 62.1095 24.0193 58.0895 22.6393 54.1695C23.0593 54.1095 23.4693 54.0295 23.8793 53.9395C24.6913 53.7544 25.4821 53.4864 26.2392 53.1395C27.6852 52.5058 29.0911 51.7844 30.4493 50.9795C31.63 50.3372 32.772 49.6259 33.8693 48.8495L34.2593 48.5495C34.4892 48.3141 34.6575 48.0256 34.7493 47.7095C34.8739 47.2164 34.8059 46.6943 34.5593 46.2495C34.3095 45.818 33.9 45.5019 33.4192 45.3695C33.2945 45.339 33.1673 45.319 33.0392 45.3095C33.7292 45.0295 34.4192 44.7495 35.0992 44.4495C35.4992 44.2795 35.8793 44.1095 36.2593 43.9095C36.6393 43.7095 36.7393 43.6695 36.9693 43.5395C37.5013 43.2484 37.995 42.8923 38.4393 42.4795C38.7619 42.157 38.9683 41.7366 39.0262 41.2842C39.0841 40.8317 38.9902 40.3729 38.7593 39.9795C38.5718 39.671 38.3073 39.4165 37.9917 39.2412C37.6761 39.0658 37.3203 38.9757 36.9593 38.9795C36.6071 38.9832 36.2621 39.0798 35.9593 39.2595C34.7662 39.8984 33.5413 40.4758 32.2892 40.9895L29.9393 41.9895C28.8693 42.3995 27.7893 42.7995 26.6893 43.1295C25.4856 43.4896 24.2597 43.7702 23.0193 43.9695C22.0614 44.0595 21.0972 44.0595 20.1393 43.9695H19.9493C19.8041 43.9397 19.6571 43.9197 19.5093 43.9095C19.3293 43.2795 19.1493 42.6495 18.9593 42.0295C18.3993 40.0995 17.8392 38.1795 17.2992 36.2595C16.7592 34.3395 16.1992 32.1895 15.6792 30.1495C15.1592 28.1095 14.5392 25.8195 13.9192 23.6695C13.3592 21.7695 12.6893 19.8995 12.2493 17.9795C12.0593 17.1695 11.9093 16.3695 11.7593 15.5595C11.7142 15.0372 11.7142 14.5119 11.7593 13.9895C11.7547 13.9229 11.7547 13.8561 11.7593 13.7895C12.0257 13.285 12.3334 12.8033 12.6792 12.3495C13.1193 11.7878 13.6006 11.2597 14.1192 10.7695C14.3853 10.5137 14.6657 10.2733 14.9593 10.0495C16.0531 9.19469 17.2249 8.44471 18.4593 7.80952C19.8557 7.33504 21.2821 6.9542 22.7292 6.66952C23.6392 6.45952 24.5493 6.25952 25.4693 6.09952C25.9488 6.06941 26.4298 6.06941 26.9093 6.09952C27.1393 6.15952 27.3692 6.21953 27.5992 6.29953L27.8692 6.44953C28.0251 6.72129 28.1654 7.00175 28.2892 7.28952C29.7992 10.9395 31.2892 14.5995 32.7992 18.2395C33.5792 20.1195 34.3193 22.0095 35.0693 23.8895C35.8693 25.8895 36.6426 27.9295 37.3893 30.0095C38.0693 31.8895 38.7293 33.7795 39.3893 35.6495C40.0493 37.5195 40.8893 39.5795 41.6993 41.5195C43.3693 45.5195 44.9692 49.4595 46.6193 53.4295C47.7793 56.2195 48.9393 59.0095 50.1493 61.7795C51.6893 65.5095 53.0493 69.2995 54.3793 73.1095C55.0693 75.1095 55.8392 77.1095 56.5492 79.1095C57.1962 81.0537 57.7435 83.0296 58.1893 85.0295C58.6793 87.1095 59.0993 89.2195 59.5893 91.3095C60.1131 93.3426 60.7473 95.3456 61.4892 97.3095C62.0165 98.8176 62.624 100.296 63.3093 101.74C63.6193 102.74 63.9393 103.74 64.2493 104.74C64.653 106.038 65.1441 107.307 65.7193 108.54C66.2574 109.666 66.9289 110.723 67.7193 111.69L67.4892 111.89C67.1276 112.252 66.8814 112.713 66.7817 113.215C66.682 113.717 66.7333 114.237 66.9291 114.71C67.1249 115.183 67.4564 115.588 67.8818 115.872C68.3072 116.157 68.8074 116.309 69.3193 116.31C71.5956 116.191 73.8458 115.767 76.0093 115.05C76.325 115.042 76.6301 114.934 76.8793 114.74C77.1993 114.61 77.5193 114.48 77.8193 114.34C78.2993 114.12 78.8193 113.91 79.2493 113.66C80.3117 113.092 81.3165 112.422 82.2493 111.66C83.1031 110.969 83.9022 110.214 84.6393 109.4C85.4218 108.543 86.1404 107.631 86.7892 106.67C87.3692 105.78 87.9193 104.87 88.4493 103.95C89.0369 102.893 89.5514 101.797 89.9892 100.67C90.6996 98.8571 91.2778 96.9955 91.7193 95.0995C92.2393 93.0395 92.7993 90.9995 93.3393 88.9395C94.4493 84.7595 95.2592 80.4895 96.1792 76.2595C96.3492 75.4895 96.5192 74.7195 96.6792 73.9395L97.0693 74.1195C97.8026 74.4562 98.5576 74.7435 99.3293 74.9795C100.399 75.3295 101.489 75.6095 102.579 75.8795L106.179 76.7695L108.949 77.4595H108.519C107.599 77.4595 106.679 77.4595 105.759 77.3995C104.479 77.3195 103.209 77.2495 101.939 77.0895L101.299 76.9895C101.359 76.8791 101.39 76.7552 101.389 76.6295C101.387 76.4022 101.295 76.185 101.135 76.0243C100.974 75.8636 100.757 75.7721 100.529 75.7695H98.9393H98.2992H97.8193C97.5272 75.7747 97.2362 75.8049 96.9493 75.8595C96.7174 75.9248 96.5209 76.0794 96.4028 76.2893C96.2847 76.4993 96.2547 76.7475 96.3193 76.9795C96.3719 77.2795 96.5275 77.5518 96.7593 77.7495C97.0311 77.9527 97.3354 78.1082 97.6593 78.2095C98.4292 78.4749 99.2138 78.6953 100.009 78.8695C101.124 79.1316 102.252 79.3286 103.389 79.4595C104.589 79.6095 105.789 79.7595 106.999 79.8595L110.599 80.1395C111.799 80.2295 112.999 80.3195 114.209 80.2995C114.513 80.3008 114.811 80.2114 115.064 80.0427C115.317 79.8741 115.514 79.6338 115.63 79.3526C115.746 79.0715 115.775 78.7621 115.715 78.4641C115.654 78.1661 115.506 77.8929 115.289 77.6795C115.222 77.6123 115.148 77.552 115.069 77.4995C115.212 77.2425 115.288 76.9536 115.289 76.6595C115.29 76.1764 115.099 75.7127 114.759 75.3695C114.591 75.1954 114.389 75.0576 114.165 74.9647C113.942 74.8718 113.701 74.8258 113.459 74.8295C112.552 74.9011 111.639 74.8676 110.739 74.7295C109.339 74.5195 107.929 74.2995 106.539 73.9995L103.409 73.2995C102.869 73.1795 102.339 73.0395 101.799 72.8995C100.683 72.6359 99.5837 72.3019 98.5093 71.8995C98.0843 71.7169 97.6703 71.5099 97.2693 71.2795C98.6393 64.7895 99.9792 58.2795 101.619 51.8495C102.619 47.7595 103.789 43.6895 105.039 39.6695C106.289 35.6495 107.769 31.5595 109.229 27.5395C109.969 25.5395 110.739 23.5395 111.539 21.5395C112.349 19.5395 113.119 17.4595 113.939 15.4295C114.269 14.7195 114.599 14.0395 114.939 13.3595C115.267 12.7719 115.635 12.2073 116.039 11.6695C116.349 11.313 116.683 10.9788 117.039 10.6695C117.548 10.2897 118.148 10.0516 118.779 9.97953C119.515 9.91454 120.254 9.91454 120.989 9.97953C122.026 10.1442 123.052 10.3747 124.059 10.6695C125.329 11.0495 126.589 11.4495 127.819 11.9395C128.558 12.2745 129.264 12.6762 129.929 13.1395C130.343 13.4878 130.73 13.8655 131.089 14.2695L131.359 14.7095C131.446 14.981 131.513 15.2584 131.559 15.5395C131.669 16.7997 131.709 18.0649 131.679 19.3295C131.679 20.6895 131.629 22.0595 131.539 23.4095C131.349 26.2195 130.949 29.0095 130.539 31.7895C130.279 33.7895 130.019 35.6795 129.689 37.6195C129.359 39.5595 128.969 41.6895 128.569 43.7195C128.129 45.9195 127.693 48.1262 127.259 50.3395C126.899 52.2495 126.559 54.1695 126.189 56.0795C125.789 58.1595 125.379 60.2295 124.939 62.2995C124.499 64.3695 124.039 66.4395 123.619 68.5095C122.769 72.6695 122.019 76.8595 121.129 81.0095C119.359 89.2295 117.279 97.3795 115.219 105.54C114.679 107.68 114.149 109.823 113.629 111.97C113.109 114.14 112.719 116.35 112.319 118.55C112.119 119.55 112.009 120.67 111.849 121.73C111.689 122.79 111.559 124.12 111.429 125.32C111.189 127.32 111.009 129.4 110.809 131.43C110.399 135.59 110.089 139.76 109.659 143.91C109.439 145.98 109.239 148.04 109.189 150.12C109.189 151.12 109.189 152.12 109.189 153.07L109.279 156.51C109.339 158.51 109.449 160.51 109.699 162.45C109.999 164.78 110.339 167.11 110.699 169.45C110.989 171.45 111.249 173.39 111.539 175.35C111.849 177.51 112.169 179.66 112.479 181.82L112.659 183.04C112.739 183.74 112.829 184.45 112.909 185.15C112.989 185.85 113.079 186.39 113.129 187.01L113.309 189.71C113.309 190 113.359 190.3 113.379 190.59C112.759 189.2 112.079 187.82 111.379 186.45C110.439 184.6 109.379 182.81 108.379 180.98C107.929 180.13 107.499 179.28 107.049 178.44C106.599 177.6 105.999 176.51 105.469 175.55C104.939 174.59 104.539 173.79 104.049 172.93C103.772 172.445 103.461 171.981 103.119 171.54C102.416 170.64 101.614 169.821 100.729 169.1C99.0592 167.71 97.2792 166.45 95.4892 165.2C93.6992 163.95 92.0593 162.8 90.3893 161.54C89.5393 160.89 88.6893 160.26 87.8293 159.63C86.9693 159 86.0192 158.38 85.0992 157.77L80.0293 154.39C79.1993 153.83 78.3693 153.26 77.5293 152.72C76.6893 152.18 75.5293 151.47 74.5293 150.87C72.7993 149.87 70.9792 148.96 69.1792 148.07C65.2761 145.987 61.1587 144.334 56.8993 143.14C55.9593 142.91 55.0093 142.74 54.0593 142.58L53.2292 142.45C53.2292 141.55 53.2292 140.66 53.2292 139.76C53.2292 138.86 53.3792 137.54 53.2992 136.54C53.0392 134.36 52.6592 132.18 52.2992 130.01C51.9292 128.01 51.5493 126.01 50.9993 124.01C50.4426 121.879 49.7751 119.78 48.9993 117.72C48.4942 116.363 47.7788 115.094 46.8793 113.96C46.6064 113.633 46.3015 113.335 45.9693 113.07C46.069 112.71 46.069 112.329 45.9693 111.97C45.5645 110.861 45.0971 109.775 44.5693 108.72C44.1593 107.82 43.7593 106.92 43.3793 106.01C42.7593 104.53 42.1292 103.06 41.4892 101.58C40.4692 99.4395 39.5792 97.3195 38.6692 95.2095L38.6493 95.2295ZM26.5893 125.54C26.6982 125.031 26.8487 124.533 27.0392 124.05C27.6143 122.737 28.3178 121.484 29.1393 120.31C29.3846 120.023 29.6485 119.752 29.9292 119.5C30.3276 119.232 30.7454 118.995 31.1792 118.79C32.3755 118.383 33.6077 118.092 34.8592 117.92C35.8592 117.79 36.9593 117.68 38.0193 117.58C38.8093 117.51 39.5893 117.42 40.3693 117.31C40.8693 117.24 41.3692 117.15 41.8492 117.07H42.3793L42.6893 117.15L42.8893 117.27L43.1593 117.56C43.575 118.175 43.9395 118.824 44.2493 119.5C45.3929 122.367 46.3352 125.311 47.0693 128.31C47.4293 129.73 47.7393 131.17 48.0693 132.61C48.3993 134.05 48.6892 135.61 48.9292 137.06C49.0192 137.85 49.0993 138.64 49.1493 139.43C49.1993 140.22 49.1492 140.8 49.2392 141.48C47.7392 141.33 46.2393 141.23 44.7193 141.15C43.6493 141.09 42.5893 141.02 41.5193 140.93C40.4493 140.84 39.6093 140.74 38.6593 140.68C37.7093 140.62 36.6093 140.57 35.5893 140.5L33.9493 140.4C33.5093 140.4 33.0592 140.34 32.6193 140.33H32.3893C31.5291 140.351 30.6724 140.448 29.8293 140.62C29.4465 140.695 29.069 140.795 28.6993 140.92C28.4593 139.79 28.2193 138.66 28.0093 137.53C27.7993 136.4 27.5692 135.43 27.4192 134.37L27.0293 131.68C26.9393 130.8 26.8293 129.91 26.7593 129.02C26.6015 127.867 26.5446 126.702 26.5893 125.54ZM24.2992 154.43C24.6348 153.128 25.0421 151.846 25.5193 150.59C25.5193 150.7 25.4293 150.81 25.3793 150.92C25.5393 150.55 25.6892 150.17 25.8692 149.81C26.1292 149.3 26.4093 148.81 26.7093 148.3C26.8326 148.267 26.9504 148.216 27.0593 148.15C27.2768 148.017 27.4611 147.836 27.5981 147.621C27.735 147.406 27.8209 147.163 27.8492 146.91C28.1558 146.825 28.4394 146.673 28.6785 146.463C28.9175 146.254 29.1058 145.993 29.2292 145.7L29.5193 145.54C30.0939 145.335 30.6865 145.184 31.2892 145.09C32.487 145.046 33.6864 145.083 34.8793 145.2C35.6859 145.253 36.4959 145.293 37.3093 145.32C38.7393 145.38 40.1692 145.5 41.6092 145.58C43.0492 145.66 44.6092 145.69 46.0992 145.77C47.3092 145.83 48.5192 145.93 49.7292 146.06C50.076 149.44 50.0324 152.849 49.5992 156.22C49.4592 157.1 49.3093 157.97 49.1493 158.84C48.9169 160.247 48.5519 161.63 48.0593 162.97C47.8814 163.365 47.6671 163.743 47.4192 164.1C47.3002 164.234 47.1733 164.36 47.0392 164.48C46.9605 164.537 46.8768 164.587 46.7892 164.63L46.2793 164.76C45.2793 164.85 44.1793 164.84 43.1293 164.85C42.2393 164.85 41.3393 164.85 40.4393 164.85C38.3493 164.75 36.2793 164.5 34.1993 164.23C33.0423 164.052 31.9087 163.747 30.8193 163.32C30.4393 163.15 30.0693 162.97 29.6993 162.77C29.3335 162.561 28.9827 162.327 28.6493 162.07C27.9936 161.532 27.3817 160.944 26.8193 160.31L25.1493 158.31C24.9475 158.112 24.693 157.977 24.4164 157.92C24.1397 157.863 23.8526 157.887 23.5893 157.99C23.7693 156.81 24.0192 155.64 24.2992 154.47V154.43ZM4.10924 152.43C4.10924 151.61 4.20923 150.8 4.28923 149.99C4.41445 149.127 4.61526 148.277 4.88927 147.45C5.14129 146.966 5.42873 146.501 5.74925 146.06C6.40491 145.301 7.11334 144.589 7.86925 143.93C8.45925 143.41 9.05925 142.93 9.67925 142.4C10.4713 141.789 11.2959 141.221 12.1493 140.7C13.0873 140.134 14.0591 139.626 15.0593 139.18C15.4214 139.03 15.7962 138.913 16.1792 138.83C16.5987 138.799 17.0198 138.799 17.4393 138.83C17.858 138.901 18.2721 138.998 18.6792 139.12L19.0392 139.34C19.4032 139.674 19.7377 140.038 20.0392 140.43C21.2092 141.97 22.2892 143.57 23.3492 145.19C23.2392 145.36 23.1392 145.54 23.0392 145.71C22.6886 146.357 22.3781 147.024 22.1092 147.71C21.8522 148.296 21.6285 148.897 21.4393 149.51C21.1293 150.51 20.8392 151.51 20.6192 152.51C20.3993 153.51 20.1993 154.71 20.0593 155.83C20.0593 156.31 19.9492 156.83 19.9192 157.27C19.8991 157.629 19.8991 157.99 19.9192 158.35C19.9509 159.12 20.1097 159.881 20.3893 160.6C21.0813 162.258 22.0557 163.784 23.2693 165.11C23.9393 165.94 24.7093 166.7 25.4393 167.47C26.1693 168.24 26.8493 168.94 27.5593 169.66C29.1744 171.243 31.006 172.59 32.9993 173.66C32.8295 174.237 32.8295 174.852 32.9993 175.43C33.1493 175.86 33.3393 176.27 33.5093 176.69L33.7193 177.2C33.6947 177.375 33.6947 177.554 33.7193 177.73C34.0493 179.04 34.3893 180.36 34.7193 181.73H34.5992C33.6413 182.026 32.7318 182.46 31.8993 183.02C31.0967 183.529 30.3667 184.144 29.7292 184.85C28.9785 185.662 28.364 186.591 27.9093 187.6C27.698 188.045 27.5434 188.515 27.4493 189C27.3793 189.37 27.3293 189.73 27.2793 190.1C27.2341 190.451 27.2141 190.805 27.2193 191.16C27.2418 191.623 27.2952 192.084 27.3793 192.54C27.4981 193.412 27.6684 194.277 27.8893 195.13C28.103 196.055 28.3735 196.967 28.6993 197.86C29.4493 199.8 30.2093 201.74 31.0593 203.63L31.6092 204.84C31.5192 204.84 31.4193 204.84 31.3293 204.75C31.0768 204.637 30.8328 204.507 30.5992 204.36C30.4392 204.21 30.2893 204.06 30.1393 203.89C29.4809 202.881 28.8928 201.829 28.3793 200.74C27.9293 199.86 27.5093 198.98 27.0793 198.09C26.1393 196.09 25.1692 194.17 24.1692 192.22C22.2992 188.57 20.2492 185.03 18.1692 181.47C16.7092 178.91 15.2392 176.35 13.7292 173.82C12.9892 172.58 12.2592 171.34 11.4892 170.12C10.3392 168.31 9.18925 166.5 7.99925 164.72C7.74067 164.283 7.32606 163.962 6.83928 163.82C6.66927 163.776 6.49473 163.753 6.31926 163.75C5.96736 163.745 5.62116 163.839 5.31926 164.02C5.07248 164.161 4.86332 164.36 4.70928 164.6C4.57928 163.13 4.45924 161.66 4.35924 160.18C4.23924 158.47 4.12926 156.75 4.06926 155.03C4.11926 154.2 4.05924 153.34 4.10924 152.54V152.43Z" fill="#2C2C2C"/>
<path d="M78.1902 309.95C78.1902 310.95 78.1902 312.03 78.1902 313.08C78.1902 314.13 78.1902 315.14 78.1902 316.17C78.1902 316.57 78.1902 316.98 78.1902 317.39C78.1902 317.8 78.1902 317.93 78.1902 318.21C78.1902 318.49 78.1902 318.64 78.1902 318.86C78.2101 319.28 78.291 319.694 78.4302 320.09C78.5548 320.473 78.7751 320.817 79.0702 321.09C79.4592 321.454 79.9676 321.664 80.5002 321.68C80.7266 321.695 80.9538 321.695 81.1802 321.68L82.5202 321.53C83.5202 321.42 84.4302 321.33 85.3902 321.25C86.3502 321.17 87.3002 321.1 88.2602 321.04C89.058 321.01 89.8497 320.889 90.6202 320.68C90.9444 320.591 91.2476 320.438 91.512 320.23C91.7764 320.023 91.9968 319.764 92.1602 319.47C92.3366 319.141 92.4326 318.774 92.4402 318.4C92.43 318.099 92.3999 317.798 92.3502 317.5C92.2127 316.68 92.0155 315.872 91.7602 315.08C91.5002 314.21 91.2602 313.33 91.0302 312.45C90.4202 310.09 89.9202 307.69 89.4102 305.31C89.1402 304.07 88.8802 302.83 88.6702 301.58C88.4602 300.33 88.3302 299.35 88.1802 298.24C87.9402 296.24 87.7002 294.24 87.5702 292.31C87.4402 290.38 87.3402 288.18 87.3402 286.11C87.3402 284.04 87.3902 281.96 87.5402 279.88L87.7802 276.47C87.8905 275.248 87.8603 274.016 87.6902 272.8C87.593 272.164 87.3973 271.546 87.1102 270.97C86.9511 270.693 86.7561 270.437 86.5302 270.21L85.9402 269.77C85.7331 269.669 85.5192 269.582 85.3002 269.51C84.9072 269.404 84.4931 269.404 84.1002 269.51C83.8235 269.603 83.5584 269.727 83.3102 269.88C82.7913 270.271 82.3474 270.752 82.0002 271.3C81.6555 271.82 81.364 272.372 81.1302 272.95C80.6667 273.956 80.2919 275 80.0102 276.07C79.7802 277.07 79.5502 278 79.4102 278.99C79.2202 280.28 79.0502 281.57 78.8902 282.87C78.3902 286.98 78.1002 291.12 77.9502 295.26C77.8502 298.34 77.9502 301.42 78.1102 304.5C78.1102 305.28 78.1102 306.06 78.0302 306.83C78.1602 307.83 78.1902 308.89 78.1902 309.95Z" fill="#2C2C2C"/>
<path d="M118.31 44.0496C119.49 44.0496 120.67 44.0496 121.84 43.9796C122.215 43.9753 122.574 43.8246 122.84 43.5596C122.974 43.4299 123.08 43.2745 123.152 43.1026C123.225 42.9307 123.261 42.746 123.26 42.5596C123.258 42.1838 123.107 41.8242 122.84 41.5596C122.662 41.3866 122.442 41.2626 122.202 41.1995C121.962 41.1364 121.71 41.1365 121.47 41.1996C120.83 41.3396 120.19 41.4396 119.54 41.5396L118.54 41.6696C118.1 41.7196 117.64 41.7396 117.2 41.7796C116.37 41.8396 115.54 41.8296 114.71 41.8496C114.36 41.8496 114 41.8496 113.64 41.8496L112.21 41.7796C111.85 41.7796 111.49 41.7096 111.13 41.6696L109.97 41.5396L109.38 41.4496C109.34 41.3517 109.277 41.2646 109.197 41.1952C109.118 41.1257 109.023 41.0759 108.92 41.0496L107.43 40.7096C106.874 40.5172 106.296 40.3962 105.71 40.3496H105.63C105.495 40.3534 105.362 40.3911 105.245 40.4593C105.128 40.5274 105.03 40.6238 104.96 40.7396C104.873 40.8893 104.838 41.0632 104.86 41.2349C104.881 41.4065 104.959 41.5662 105.08 41.6896C105.336 41.9088 105.614 42.0999 105.91 42.2596C106.233 42.4132 106.567 42.5403 106.91 42.6396C107.66 42.8696 108.42 43.0596 109.18 43.2196C109.94 43.3796 110.6 43.4696 111.31 43.5796C111.8 43.6596 112.31 43.7196 112.78 43.7696L113.99 43.8896L114.64 43.9596L116.64 44.0596C117.17 44.0396 117.74 44.0396 118.31 44.0496Z" fill="#2C2C2C"/>
</g>
<defs>
<clipPath id="clip0_192_1326">
<rect width="136.94" height="321.69" fill="white"/>
</clipPath>
</defs>
</svg>
