<svg width="242" height="207" viewBox="0 0 242 207" fill="none" xmlns="http://www.w3.org/2000/svg">
<g clip-path="url(#clip0_151_354)">
<path d="M146.59 195.58C146.59 195.58 106.254 132.28 101.92 125.911C97.5857 119.541 77.3256 103.366 71.4457 99.3482C65.5658 95.3306 49.1052 93.5629 45.5515 92.6453C44.5591 92.4292 43.6207 92.0144 42.7928 91.426C41.965 90.8375 41.2648 90.0876 40.7345 89.2213C40.7345 89.2213 36.3554 89.9358 34.0638 88.3053C31.7723 86.6748 18.5146 63.7629 17.8756 61.3397C17.2367 58.9166 20.8602 59.2943 20.8602 59.2943C20.8602 59.2943 19.6012 57.009 19.8116 55.9798C20.1277 54.5817 24.3942 53.1882 27.5028 56.8136C30.6114 60.439 63.3709 70.2059 63.3709 70.2059C71.6743 70.5543 81.0659 74.7115 81.0659 74.7115C81.0659 74.7115 70.62 61.517 68.8552 50.8558C67.0903 40.1946 76.3385 38.009 79.7804 48.2198C83.0307 57.8021 92.2364 68.3444 98.7142 73.3068C105.192 78.2692 116.849 89.7825 116.702 103.816L215.459 196.811L146.59 195.58Z" fill="#FC7451"/>
<path d="M76.1811 67.5385C78.4944 64.8691 79.9876 61.5884 80.481 58.0908C82.0058 44.2048 70.6393 15.918 69.9245 7.61917L32.2805 10.7884C33.6212 23.0824 26.4589 48.8958 30.2713 62.3294C31.3385 65.6903 33.3565 68.6702 36.0812 70.9087C39.0117 73.499 42.4618 75.4334 46.2005 76.5822C48.5654 77.3085 50.6721 78.6985 52.2702 80.5871C53.8683 82.4757 54.8905 84.7834 55.2154 87.2359C57.8147 106.782 60.7866 148.4 60.0227 149.247C59.0663 150.316 38.9579 153.833 39.1669 155.692C39.3758 157.551 51.9668 157.564 63.4216 156.602C74.8763 155.64 87.2997 153.533 87.2019 151.668C87.1041 149.803 66.6845 149.674 65.5591 148.779C64.6717 148.072 60.6729 106.526 59.9791 86.8264C59.8993 84.3588 60.5287 81.92 61.7926 79.7992C63.0565 77.6784 64.902 75.9643 67.1103 74.8603C70.6215 73.0947 73.7144 70.5982 76.1811 67.5385Z" stroke="#FC7451" stroke-width="1.56" stroke-linecap="round" stroke-linejoin="round"/>
<path d="M62.2774 25.4853C60.4284 25.0347 58.6243 24.4496 56.8102 23.8786C54.7859 23.2428 52.7568 22.6377 50.7038 22.084C46.9631 20.9891 43.1263 20.2543 39.2458 19.8895C37.7571 19.7671 36.2607 19.7721 34.7729 19.9044C34.4418 23.2835 33.9998 26.8654 33.5469 30.5164C32.1356 41.949 30.5306 54.9015 32.6854 62.5077C33.6024 65.2701 35.2947 67.7104 37.5603 69.5377C40.2597 71.9242 43.44 73.7034 46.8862 74.7549L47.0244 74.7768C53.3378 76.765 60.1798 76.1903 66.0731 73.177C66.1104 73.1523 66.1506 73.1322 66.1927 73.1173C69.4128 71.5009 72.2515 69.2169 74.5196 66.4173C76.4304 64.232 77.6757 61.5454 78.1084 58.675C78.9514 51.0246 75.4671 37.706 72.2449 26.5068C68.8909 26.6358 65.5355 26.2919 62.2774 25.4853Z" fill="#FB7800"/>
<path d="M69.9258 7.61914C45.4539 17.064 32.2818 10.7884 32.2818 10.7884L69.9258 7.61914Z" stroke="#FC7451" stroke-width="1.56" stroke-linecap="round" stroke-linejoin="round"/>
<path d="M39.4812 64.3564C39.7587 64.6577 40.1106 64.8806 40.5015 65.0027C40.8924 65.1248 41.3086 65.1417 41.7082 65.0519C42.1078 64.9621 42.4767 64.7686 42.7777 64.491C43.0788 64.2133 43.3014 63.8613 43.4232 63.4702C43.518 63.0747 43.5117 62.6617 43.4051 62.2692C43.2984 61.8767 43.0947 61.5173 42.8128 61.2241C42.5308 60.931 42.1797 60.7134 41.7917 60.5915C41.4036 60.4695 40.9912 60.4472 40.5922 60.5264C38.9989 60.8955 38.4474 63.2323 39.4812 64.3564Z" fill="#FC7451"/>
<path d="M42.0087 58.3974C42.3798 58.9459 42.8827 59.3924 43.4712 59.6961C44.0598 59.9998 44.7151 60.1509 45.3772 60.1356C46.1494 60.1488 46.9058 59.9159 47.5369 59.4706C47.9985 59.0938 48.3421 58.5923 48.5268 58.0257C48.7115 57.4592 48.7295 56.8515 48.5787 56.2751C48.4062 55.7025 48.0897 55.1837 47.6595 54.7682C47.2293 54.3528 46.6998 54.0546 46.1215 53.9021C43.4681 53.2138 40.2534 55.569 42.0087 58.3974Z" fill="#FC7451"/>
<path d="M45.0519 62.8859C45.0091 63.2082 45.095 63.5343 45.2909 63.7937C45.4869 64.0531 45.7772 64.2249 46.0989 64.2718C46.4207 64.3186 46.7479 64.2368 47.0097 64.0441C47.2716 63.8514 47.4469 63.5633 47.4979 63.2422C47.5488 62.9211 47.4711 62.5929 47.2817 62.3286C47.0923 62.0644 46.8064 61.8854 46.486 61.8305C46.1656 61.7755 45.8364 61.849 45.5698 62.0351C45.3032 62.2212 45.1206 62.5047 45.0616 62.8245" fill="#FC7451"/>
<path d="M67.5577 37.0029C67.5752 37.2732 67.6739 37.532 67.8409 37.7452C68.0079 37.9585 68.2355 38.1163 68.4937 38.1981C68.7555 38.2671 69.0322 38.254 69.2863 38.1605C69.5405 38.0671 69.7598 37.8978 69.9145 37.6757C70.058 37.4457 70.1233 37.1755 70.1009 36.9054C70.0785 36.6353 69.9696 36.3796 69.7902 36.1763C69.0916 35.4201 67.4901 35.8903 67.5577 37.0029Z" fill="#FC7451"/>
<path d="M63.6653 35.6375C64.1048 35.8118 64.5889 35.8393 65.0453 35.7159C65.5018 35.5926 65.9061 35.3249 66.198 34.9529C66.4716 34.5682 66.6097 34.1034 66.5905 33.6316C66.5712 33.1599 66.3958 32.7079 66.0917 32.3467C65.3709 31.5319 63.4547 31.3068 62.7169 32.2366C62.5314 32.5156 62.4082 32.8313 62.3557 33.1622C62.3032 33.4931 62.3226 33.8314 62.4126 34.1541C62.5026 34.4769 62.6611 34.7764 62.8772 35.0324C63.0934 35.2884 63.3622 35.4948 63.6653 35.6375Z" fill="#FC7451"/>
<path d="M67.7064 57.4586C67.7357 57.8275 67.8957 58.1738 68.1575 58.4353C68.3404 58.6528 68.6011 58.7902 68.8839 58.818C69.1125 58.7817 69.3243 58.6759 69.4906 58.515C69.6569 58.3541 69.7697 58.1459 69.8136 57.9186C69.9348 57.5828 69.9431 57.2166 69.8373 56.8756C69.7714 56.7098 69.6649 56.5632 69.5275 56.4493C69.3902 56.3354 69.2264 56.2578 69.0513 56.2236C68.8789 56.2021 68.7039 56.2183 68.5384 56.2711C68.3729 56.324 68.2208 56.4122 68.0929 56.5297C67.9649 56.6472 67.864 56.7912 67.7973 56.9516C67.7306 57.112 67.6995 57.285 67.7064 57.4586Z" fill="#FC7451"/>
<path d="M40.7357 89.2213C40.7357 89.2213 27.2893 67.6489 25.7763 64.4339C24.2633 61.2189 31.9113 58.8504 35.3899 64.0141C38.8686 69.1778 45.8811 80.9937 45.8811 80.9937L47.8704 81.2541C47.8704 81.2541 40.751 70.4601 39.2299 67.842C37.7088 65.2239 46.5902 62.8699 50.0466 68.77C52.8641 73.2859 56.0735 77.5451 59.6376 81.4984C62.1836 83.3109 83.5667 89.0782 83.5667 89.0782C65.1494 92.305 45.9651 96.1501 40.7357 89.2213Z" fill="#FC7451"/>
<path d="M81.9646 75.4445C83.2374 76.3143 84.6138 77.0216 86.0619 77.5502" stroke="#FC7451" stroke-width="0.73" stroke-miterlimit="10" stroke-linecap="round"/>
<path d="M48.4012 81.8182C48.4012 81.8182 51.8088 88.1748 53.8686 90.0755C55.9285 91.9762 68.6246 94.3041 76.1394 99.8244" stroke="#FC7451" stroke-width="0.73" stroke-miterlimit="10" stroke-linecap="round"/>
<path d="M48.623 82.3574C47.8069 83.2257 47.1604 84.239 46.7169 85.3451" stroke="#FC7451" stroke-width="0.73" stroke-miterlimit="10" stroke-linecap="round"/>
<path d="M40.7335 89.2212C40.7335 89.2212 27.2871 67.6488 25.7741 64.4339C24.2611 61.2189 31.9091 58.8503 35.3877 64.0141C38.1913 68.1735 43.2989 76.6651 45.1716 79.7954C45.3938 80.1697 45.6972 80.4893 46.0595 80.7306C46.4217 80.9719 46.8335 81.1288 47.2645 81.1898L47.8633 81.2847C47.8633 81.2847 40.7439 70.4908 39.2228 67.8727C37.7018 65.2546 46.5831 62.9006 50.0395 68.8006C52.86 73.3061 56.071 77.555 59.6354 81.4984C60.5266 82.0068 61.4688 82.42 62.4465 82.7311" stroke="#FC7451" stroke-width="0.73" stroke-miterlimit="10" stroke-linecap="round"/>
<path d="M21.3457 59.2538C24.0384 59.2479 25.8483 62.6752 25.8483 62.6752" stroke="#FC7451" stroke-width="0.73" stroke-miterlimit="10" stroke-linecap="round"/>
<path d="M29.5996 69.645C29.9935 69.639 30.3821 69.553 30.7418 69.3922C31.1015 69.2314 31.4247 68.9991 31.6919 68.7096C31.4319 67.6227 30.9518 66.6006 30.2814 65.7064C29.6109 64.8123 28.7643 64.065 27.7938 63.5108" stroke="#FC7451" stroke-width="0.73" stroke-miterlimit="10" stroke-linecap="round"/>
<path d="M43.1819 72.8924C43.5733 72.9802 43.9818 72.9523 44.3576 72.812C44.7334 72.6717 45.0603 72.4252 45.2985 72.1025C44.5958 70.2981 43.2823 68.7974 41.5869 67.862" stroke="#FC7451" stroke-width="0.73" stroke-miterlimit="10" stroke-linecap="round"/>
<path d="M32.0352 70.0859C31.7534 70.2879 31.4332 70.4302 31.0945 70.504" stroke="#FC7451" stroke-width="0.73" stroke-miterlimit="10" stroke-linecap="round"/>
<path d="M45.6777 74.0283C45.3267 74.2186 44.938 74.3291 44.5393 74.352" stroke="#FC7451" stroke-width="0.73" stroke-miterlimit="10" stroke-linecap="round"/>
<path d="M56.7285 87.2236C56.4895 87.636 56.1656 87.9929 55.7782 88.2707C55.3909 88.5485 54.949 88.7409 54.4818 88.8351" stroke="#FC7451" stroke-width="0.73" stroke-miterlimit="10" stroke-linecap="round"/>
<path d="M55.8613 87.4873L55.383 87.8279" stroke="#FC7451" stroke-width="0.73" stroke-miterlimit="10" stroke-linecap="round"/>
<path d="M44.0781 87.3984C43.2396 87.9489 42.2571 88.2395 41.254 88.2336" stroke="#FC7451" stroke-width="0.73" stroke-miterlimit="10" stroke-linecap="round"/>
<path d="M42.873 87.0098L42.157 87.2035" stroke="#FC7451" stroke-width="0.73" stroke-miterlimit="10" stroke-linecap="round"/>
<path d="M21.4101 66.2053C22.0409 66.1071 22.6136 65.7805 23.0195 65.2878C22.7035 64.3702 22.3188 63.4778 21.8686 62.6182C21.4376 61.755 20.8175 61.0003 20.0543 60.4101" stroke="#FC7451" stroke-width="0.73" stroke-miterlimit="10" stroke-linecap="round"/>
<path d="M23.0488 66.9922C22.927 67.1092 22.7815 67.1987 22.6222 67.2546" stroke="#FC7451" stroke-width="0.73" stroke-miterlimit="10" stroke-linecap="round"/>
<path d="M34.0625 84.9443C33.6319 85.2701 33.0979 85.4287 32.5593 85.3907" stroke="#FC7451" stroke-width="0.73" stroke-miterlimit="10" stroke-linecap="round"/>
<path d="M34.0703 85.6855L33.6377 85.837" stroke="#FC7451" stroke-width="0.73" stroke-miterlimit="10" stroke-linecap="round"/>
<path d="M82.2676 58.9404C81.8292 59.6264 81.2166 60.1838 80.4924 60.5558" stroke="#FC7451" stroke-width="0.73" stroke-miterlimit="10" stroke-linecap="round"/>
<path d="M66.3785 78.3492C67.9887 79.6941 69.5014 81.1517 70.9051 82.711" stroke="#FC7451" stroke-width="0.73" stroke-miterlimit="10" stroke-linecap="round"/>
<path d="M76.0423 77.315C78.3358 81.6139 82.1951 84.8231 86.3051 87.3952C90.415 89.9672 94.849 91.9847 99.0042 94.4695C103.159 96.9543 107.152 100.019 109.717 104.141C112.283 108.263 113.249 113.587 111.294 118.023" stroke="#FC7451" stroke-width="0.73" stroke-miterlimit="10" stroke-linecap="round"/>
<path d="M102.234 96.4852C105.346 96.9377 108.521 96.6824 111.521 95.7383" stroke="#FC7451" stroke-width="0.73" stroke-miterlimit="10" stroke-linecap="round"/>
</g>
<defs>
<clipPath id="clip0_151_354">
<rect width="216.524" height="174.236" fill="white" transform="matrix(-0.987663 -0.156596 -0.156596 0.987663 241.23 34.1738)"/>
</clipPath>
</defs>
</svg>
