<svg width="486" height="368" viewBox="0 0 486 368" fill="none" xmlns="http://www.w3.org/2000/svg">
<rect width="486" height="368" rx="20" fill="#FC7451"/>
<path d="M117.79 260.1C118.79 265.6 119.47 271.45 122.23 276.41C122.378 276.652 122.614 276.827 122.889 276.899C123.163 276.971 123.455 276.934 123.703 276.796C123.95 276.657 124.135 276.429 124.219 276.158C124.302 275.887 124.277 275.594 124.15 275.34C123.517 274.331 123.023 273.241 122.68 272.1C121.721 268.991 120.972 265.82 120.44 262.61C118.19 250.2 117.73 237.53 116.02 225.05C115.972 224.786 115.83 224.549 115.619 224.382C115.409 224.216 115.145 224.132 114.877 224.147C114.609 224.162 114.356 224.274 114.165 224.463C113.974 224.651 113.858 224.903 113.84 225.17C113.84 225.78 113.99 226.38 114.06 226.99C115.5 238 116 249.12 117.79 260.1Z" fill="#FAF4DF"/>
<path d="M143.74 229.42C143.74 242.24 144.33 255.05 144.43 267.87C144.43 269.78 144.49 271.68 144.36 273.58C144.25 274.44 144.03 275.67 145.19 275.86C145.479 275.897 145.771 275.819 146.003 275.643C146.234 275.468 146.388 275.208 146.43 274.92C146.605 273.323 146.676 271.716 146.64 270.11C146.64 259.69 146.16 249.28 146.06 238.86C145.94 234.28 145.99 229.67 145.89 225.11C145.8 224.921 145.658 224.763 145.481 224.652C145.304 224.54 145.099 224.481 144.89 224.481C144.681 224.481 144.477 224.54 144.3 224.652C144.123 224.763 143.981 224.921 143.89 225.11C143.736 226.541 143.685 227.981 143.74 229.42Z" fill="#FAF4DF"/>
<path d="M164.38 273.39C169.38 275.74 173.01 245.3 173.6 241.39C174.6 235.12 175.36 228.84 175.81 222.52C175.897 222.303 175.917 222.065 175.866 221.837C175.815 221.609 175.696 221.402 175.524 221.244C175.353 221.085 175.137 220.983 174.906 220.95C174.674 220.917 174.439 220.955 174.23 221.06C173.5 221.47 173.66 222.38 173.55 223.06C173.18 228.53 172.55 233.95 171.67 239.36C170.715 247.448 169.344 255.483 167.56 263.43C167.116 265.605 166.425 267.722 165.5 269.74C165.14 270.92 163.12 272.25 164.38 273.39Z" fill="#FAF4DF"/>
<path d="M94.1308 298.541C90.5914 297.921 87.1307 296.915 83.8108 295.541C83.6931 295.449 83.558 295.382 83.4137 295.344C83.2694 295.307 83.119 295.299 82.9715 295.321C82.824 295.343 82.6826 295.395 82.5558 295.474C82.429 295.552 82.3195 295.656 82.234 295.778C82.1485 295.9 82.0887 296.038 82.0583 296.184C82.0279 296.33 82.0275 296.481 82.0571 296.627C82.0867 296.773 82.1458 296.912 82.2306 297.035C82.3155 297.157 82.4244 297.261 82.5508 297.341C83.2373 297.689 83.9454 297.993 84.6708 298.251C87.5995 299.292 90.6099 300.088 93.6708 300.631C93.9237 300.637 94.171 300.555 94.3701 300.399C94.5693 300.243 94.708 300.022 94.7624 299.775C94.8167 299.528 94.7835 299.27 94.6682 299.044C94.553 298.819 94.363 298.641 94.1308 298.541Z" fill="#FAF4DF"/>
<path d="M98.9992 300.08C98.7805 299.883 98.4934 299.779 98.1992 299.79C97.9144 299.815 97.6508 299.951 97.4641 300.167C97.2775 300.384 97.1824 300.665 97.1992 300.95C97.2055 301.09 97.2398 301.228 97.2998 301.355C97.3599 301.482 97.4447 301.596 97.5492 301.69C97.7679 301.887 98.0549 301.991 98.3492 301.98C98.6339 301.954 98.8975 301.819 99.0842 301.603C99.2709 301.386 99.3659 301.105 99.3492 300.82C99.3428 300.68 99.3086 300.542 99.2485 300.415C99.1884 300.288 99.1036 300.174 98.9992 300.08Z" fill="#FAF4DF"/>
<path d="M200.619 286.87C198.195 285.992 195.721 285.26 193.209 284.68C191.191 284.223 189.147 283.889 187.089 283.68C186.809 283.677 186.538 283.78 186.332 283.97C186.126 284.159 186 284.42 185.979 284.7C185.959 284.979 186.046 285.255 186.222 285.473C186.399 285.69 186.652 285.832 186.929 285.87C187.358 285.892 187.785 285.939 188.209 286.01C192.185 286.597 196.092 287.585 199.869 288.96C200.006 289.009 200.152 289.031 200.298 289.024C200.443 289.017 200.586 288.981 200.718 288.919C200.85 288.857 200.968 288.769 201.066 288.661C201.164 288.553 201.24 288.427 201.289 288.29C201.338 288.153 201.36 288.007 201.353 287.861C201.346 287.716 201.31 287.573 201.248 287.441C201.186 287.309 201.098 287.191 200.99 287.093C200.883 286.995 200.756 286.919 200.619 286.87Z" fill="#FAF4DF"/>
<path d="M204.569 288.679C204.351 288.482 204.064 288.378 203.769 288.39C203.485 288.415 203.221 288.55 203.034 288.767C202.848 288.983 202.753 289.264 202.769 289.549C202.776 289.69 202.81 289.828 202.87 289.955C202.93 290.082 203.015 290.196 203.119 290.289C203.338 290.487 203.625 290.591 203.919 290.579C204.204 290.554 204.468 290.419 204.654 290.202C204.841 289.986 204.936 289.705 204.919 289.419C204.913 289.279 204.879 289.141 204.819 289.014C204.759 288.887 204.674 288.773 204.569 288.679Z" fill="#FAF4DF"/>
<path d="M96.4197 218.55C93.5451 218.805 90.6512 218.745 87.7897 218.37C87.5738 218.385 87.3669 218.463 87.1945 218.594C87.0221 218.724 86.8918 218.903 86.8195 219.107C86.7473 219.311 86.7363 219.532 86.7878 219.742C86.8394 219.952 86.9513 220.143 87.1097 220.29C88.4397 221.07 90.1097 220.72 91.6297 220.86C93.2697 220.9 94.9097 220.86 96.5497 220.74C96.8247 220.703 97.0756 220.563 97.252 220.349C97.4283 220.135 97.5172 219.862 97.5008 219.585C97.4843 219.308 97.3638 219.047 97.1633 218.855C96.9628 218.663 96.6972 218.554 96.4197 218.55Z" fill="#FAF4DF"/>
<path d="M100.819 218.85C100.597 218.669 100.316 218.573 100.029 218.58C99.7445 218.606 99.4809 218.741 99.2942 218.958C99.1075 219.174 99.0125 219.455 99.0292 219.74C99.0361 219.886 99.0724 220.028 99.136 220.159C99.1996 220.289 99.2892 220.406 99.3992 220.5C99.5623 220.642 99.7636 220.733 99.9779 220.761C100.192 220.789 100.41 220.753 100.604 220.658C100.798 220.564 100.96 220.413 101.069 220.227C101.179 220.041 101.231 219.826 101.219 219.61C101.191 219.314 101.047 219.041 100.819 218.85Z" fill="#FAF4DF"/>
<path d="M189.6 224.68C189.874 224.772 190.174 224.753 190.435 224.625C190.695 224.498 190.894 224.273 190.99 224C191.41 222.49 191.76 221 192.08 219.42C192.45 217.916 192.658 216.377 192.7 214.83C192.638 214.626 192.519 214.445 192.357 214.307C192.195 214.17 191.997 214.081 191.786 214.053C191.576 214.025 191.361 214.057 191.169 214.147C190.976 214.237 190.813 214.38 190.7 214.56C190.509 215.062 190.408 215.593 190.4 216.13C190.23 217.28 190.02 218.41 189.77 219.54C189.52 220.67 189.27 221.81 188.97 222.94C188.884 223.093 188.831 223.263 188.817 223.438C188.802 223.613 188.826 223.789 188.885 223.954C188.945 224.12 189.04 224.27 189.163 224.395C189.287 224.52 189.436 224.617 189.6 224.68Z" fill="#FAF4DF"/>
<path d="M187.87 228.519C188.093 228.701 188.373 228.797 188.66 228.789C188.945 228.764 189.209 228.629 189.395 228.412C189.582 228.195 189.677 227.915 189.66 227.629C189.654 227.484 189.617 227.342 189.554 227.211C189.49 227.081 189.4 226.964 189.29 226.869C189.127 226.728 188.926 226.637 188.712 226.609C188.497 226.581 188.28 226.617 188.086 226.711C187.891 226.806 187.73 226.956 187.62 227.143C187.511 227.329 187.459 227.544 187.47 227.759C187.498 228.055 187.642 228.329 187.87 228.519Z" fill="#FAF4DF"/>
<path d="M100.51 208.68C104.23 209.09 106.99 212.41 110.8 212.51C114.09 212.82 116.75 210.62 119.56 209.31C125.79 206.78 128.9 216.31 137.86 210.1C147.69 202.66 146.76 215.28 158.33 206.75C159.97 205.701 161.91 205.223 163.85 205.39C165.74 205.49 167.29 206.61 169.01 207.25C170.172 207.624 171.38 207.836 172.6 207.88C176.69 208.06 180.65 206.88 184.6 206.17C186.6 205.69 194.04 205.39 191.21 201.95C191.24 201.672 191.164 201.393 190.997 201.169C190.83 200.945 190.585 200.791 190.31 200.74C188.95 200.45 187.6 200.14 186.23 199.88C177.524 198.15 168.676 197.24 159.8 197.16C146.05 197.16 132.3 197.3 118.6 198.54C111.686 199.063 104.834 200.218 98.1299 201.99C95.8699 202.76 85.2399 204.72 88.7799 208.48C92.3599 210.62 96.6799 208.17 100.51 208.68Z" fill="#FAF4DF"/>
<path d="M76.7306 252.01C75.7906 251.18 74.8206 250.38 73.9006 249.53C73.7232 249.306 73.4712 249.153 73.1906 249.1C72.9787 249.068 72.7622 249.099 72.5676 249.189C72.3731 249.278 72.2089 249.423 72.0952 249.604C71.9816 249.786 71.9235 249.997 71.928 250.211C71.9325 250.425 71.9994 250.633 72.1206 250.81C73.1206 251.86 74.2706 252.72 75.3206 253.69C75.5459 253.851 75.8236 253.921 76.0983 253.886C76.3729 253.851 76.6244 253.714 76.8023 253.502C76.9803 253.29 77.0718 253.018 77.0585 252.742C77.0452 252.465 76.9281 252.204 76.7306 252.01Z" fill="#FAF4DF"/>
<path d="M79.0895 253.89C78.8145 253.902 78.554 254.017 78.3597 254.212C78.1654 254.407 78.0513 254.668 78.04 254.943C78.0287 255.218 78.121 255.488 78.2986 255.698C78.4763 255.909 78.7264 256.045 78.9995 256.08C79.2898 256.083 79.5699 255.973 79.7807 255.773C79.9915 255.573 80.1166 255.3 80.1295 255.01C80.1351 254.725 80.0298 254.448 79.8358 254.24C79.6418 254.031 79.3742 253.905 79.0895 253.89Z" fill="#FAF4DF"/>
<path d="M216.999 288.68C216.568 288.104 216.068 287.583 215.509 287.13C214.936 286.641 214.324 286.2 213.679 285.81C211.092 284.316 208.345 283.119 205.489 282.24C202.559 281.24 199.569 280.53 196.559 279.86C193.729 279.24 190.869 278.71 188.009 278.25C185.343 277.817 182.649 277.437 179.929 277.11L176.929 276.76C178.929 274.98 179.829 272.17 180.629 269.64C182.359 264.07 184.209 258.47 185.999 252.9C188.729 244.49 192.089 236.3 194.549 227.8C196.079 221.8 199.289 214.37 196.899 208.37C196.685 207.968 196.434 207.586 196.149 207.23C196.336 207.03 196.533 206.84 196.739 206.66C201.609 202.66 200.989 195.6 194.519 193.99C190.709 192.99 187.519 196.52 183.749 194.78C179.749 192.95 176.499 189.3 171.879 189.13C169.489 188.97 167.529 190.32 165.639 191.58C162.439 193.58 159.299 193.76 156.079 191.72C141.629 183.78 145.459 193.33 136.649 193.29C134.599 193 132.899 191.69 131.099 190.77C128.099 189.1 124.439 187.77 120.999 188.91C117.999 189.71 116.259 192.46 113.599 193.77C109.049 195.84 106.009 190.84 101.099 191.1C94.0993 191.42 95.2293 197.9 90.3693 198.69C88.5193 198.85 86.6793 198.27 84.8193 198.36C83.622 198.362 82.4479 198.69 81.4227 199.308C80.3975 199.927 79.5598 200.812 78.9993 201.87C78.2426 203.178 77.8797 204.677 77.9542 206.187C78.0287 207.697 78.5374 209.153 79.4193 210.38C79.2066 211.114 79.1154 211.877 79.1493 212.64C79.5845 216.426 80.4501 220.15 81.7293 223.74L81.6193 223.68C76.6193 220.78 69.5693 219.68 64.8493 223.73C59.4193 228.29 59.4993 236.48 61.8493 242.63C66.0193 252.95 83.3893 265.99 94.5193 266.63C94.9622 266.655 95.4063 266.655 95.8493 266.63H95.9693C95.9693 266.63 95.9693 266.72 96.0193 266.76C97.2993 270.04 98.3593 274.24 100.529 277.23H100.449C95.5893 277.84 90.7493 278.6 85.9593 279.59C83.2093 280.16 80.4693 280.8 77.7693 281.59C74.9113 282.358 72.1218 283.362 69.4293 284.59C68.1551 285.185 66.9397 285.898 65.7993 286.72C64.575 287.55 63.5835 288.679 62.9193 290C62.6373 290.628 62.5006 291.312 62.5193 292C62.5608 292.698 62.7481 293.379 63.0693 294C63.4511 294.725 63.9513 295.38 64.5493 295.94C64.5618 296.164 64.6381 296.379 64.7693 296.56C69.9793 304.44 78.4993 306.22 87.0893 308.31C106.779 313.43 127.239 312.81 147.419 313.31C155.089 313.31 162.749 312.86 170.419 312.31C179.419 311.62 188.569 311.2 197.169 308.31C204.469 305.63 212.169 301.69 216.669 295.17C216.891 294.917 217.092 294.646 217.269 294.36C217.444 294.079 217.598 293.784 217.729 293.48L217.829 293.3C217.834 293.26 217.834 293.22 217.829 293.18C217.889 292.993 217.939 292.803 217.979 292.61C218.113 291.9 218.086 291.168 217.899 290.47C217.708 289.825 217.403 289.219 216.999 288.68ZM84.1993 200.56C86.6993 200.23 89.1993 201.36 91.7193 200.56C96.2893 199.45 95.9993 193.79 100.719 193.24C106.719 192.99 109.159 199.24 116.099 194.85C117.559 193.85 118.729 192.42 120.319 191.56C124.449 189.09 129.009 191.96 132.669 194.02C133.712 194.678 134.882 195.107 136.102 195.279C137.322 195.452 138.565 195.363 139.749 195.02C141.999 194.44 143.749 192.84 145.379 191.33C148.459 189.03 154.379 193.43 157.379 194.6C158.895 195.155 160.521 195.343 162.124 195.148C163.726 194.953 165.26 194.382 166.599 193.48C168.389 192.48 170.079 190.89 172.309 191.22C177.159 191.82 180.309 196.44 185.029 197.22C188.139 197.94 190.689 195.7 193.669 195.91C199.199 196.99 198.849 202.26 194.989 205.25L193.939 205.66C193.717 205.649 193.494 205.672 193.279 205.73C193.094 205.792 192.93 205.907 192.809 206.06C187.999 207.68 182.899 208.28 177.999 209.2C171.619 210.5 165.139 210.97 158.699 211.79C149.439 213 140.129 213.94 130.809 214.39C119.679 214.39 108.399 214.11 97.2693 213.39C92.0293 212.97 82.7193 213.39 80.3793 207.61C79.6093 204.79 80.9993 200.96 84.1993 200.56ZM88.4993 263.01C82.1435 260.429 76.347 256.643 71.4293 251.86C67.3693 248.05 63.5993 243.41 62.7993 237.73C61.2593 229.04 66.1393 221.49 75.6093 223.61C77.302 224.053 78.9342 224.701 80.4693 225.54C81.1985 225.954 81.9061 226.404 82.5893 226.89C82.6578 226.962 82.7313 227.029 82.8093 227.09C83.0793 227.94 83.3393 228.8 83.5893 229.65C84.0193 230.9 84.4493 232.15 84.8593 233.4C84.1393 232.91 83.3993 232.45 82.6593 231.99C80.0193 230.37 76.7693 228.79 73.6593 229.91C72.8306 230.234 72.086 230.742 71.4816 231.395C70.8771 232.047 70.4284 232.829 70.1693 233.68C69.2551 236.44 69.445 239.447 70.6993 242.07C74.1993 249.9 84.8293 255.73 92.5493 258.74C92.7517 258.799 92.9668 258.799 93.1693 258.74C93.8793 260.62 94.5593 262.51 95.2393 264.4C92.9233 264.382 90.6333 263.91 88.4993 263.01ZM85.9993 236.93C88.0693 243.4 89.9993 249.93 92.2493 256.32C91.1193 255.88 90.0193 255.32 88.9293 254.82C84.4568 252.754 80.3312 250.009 76.6993 246.68C73.8793 243.99 71.4693 240.29 71.8093 236.25C72.0293 234.33 72.9493 232.09 75.0893 231.79C78.5493 231.46 81.6193 233.94 84.3593 235.79C84.8893 236.03 85.3993 236.73 85.9993 236.93ZM100.369 272.19C98.1193 266.41 96.2493 260.53 93.9793 254.74C91.7693 248.38 89.9793 241.86 87.8193 235.49C86.7859 232.45 85.7859 229.403 84.8193 226.35C84.8107 226.166 84.7557 225.987 84.6593 225.83C84.3293 224.78 84.0093 223.73 83.6593 222.69C82.6593 219.27 81.3693 215.84 81.2793 212.25C82.0839 212.825 82.966 213.283 83.8993 213.61C88.2393 215.44 93.0693 215.29 97.6893 215.61C107.399 216.26 117.119 216.5 126.849 216.61C131.617 216.679 136.384 216.432 141.119 215.87C148.119 215.3 155.029 214.57 161.939 213.6C169.049 212.99 176.079 211.83 183.099 210.6C186.72 210.056 190.296 209.247 193.799 208.18C197.799 210.75 193.879 221.7 192.939 225.46C191.029 232.15 188.659 238.7 186.279 245.24C183.459 253.34 180.899 261.53 178.279 269.71C177.699 271.45 176.989 273.65 175.579 275.01C175.141 275.382 174.673 275.716 174.179 276.01C171.929 276.59 169.729 277.36 167.429 277.76C155.949 280 144.249 280.6 132.579 280.97C125.713 281.352 118.826 281.088 112.009 280.18C110.459 279.95 108.899 279.76 107.379 279.42C107.315 279.27 107.215 279.137 107.088 279.034C106.961 278.931 106.81 278.861 106.649 278.83C105.966 278.695 105.297 278.497 104.649 278.24C102.489 276.97 101.429 274.4 100.379 272.19H100.369ZM215.859 292.03C215.859 292.13 215.859 292.22 215.799 292.32C215.739 292.42 215.719 292.55 215.669 292.67C215.619 292.79 215.549 292.92 215.489 293.04C215.429 293.16 215.259 293.38 215.129 293.55C214.999 293.72 214.759 293.98 214.559 294.18C214.359 294.38 213.969 294.71 213.649 294.96C213.056 295.393 212.446 295.793 211.819 296.16C210.541 296.849 209.226 297.467 207.879 298.01C205.07 299.081 202.198 299.979 199.279 300.7H199.199H199.119H199.039H198.939C197.559 301.04 196.169 301.36 194.789 301.65C188.739 302.94 182.609 303.82 176.469 304.51H176.299C176.173 304.5 176.046 304.5 175.919 304.51L175.069 304.6C173.179 304.8 171.279 304.98 169.389 305.14C163.329 305.66 157.263 305.993 151.189 306.14C144.783 306.34 138.373 306.373 131.959 306.24C125.899 306.1 119.699 305.82 113.519 305.35C107.339 304.88 100.879 304.2 94.6093 303.25C88.973 302.431 83.395 301.252 77.9093 299.72C75.6808 299.08 73.4935 298.306 71.3593 297.4C70.3818 296.976 69.4302 296.496 68.5093 295.96C67.9307 295.62 67.373 295.246 66.8393 294.84C66.5293 294.59 66.2293 294.32 65.9393 294.04C65.6493 293.76 65.5793 293.64 65.4093 293.43C65.2393 293.22 65.1993 293.11 65.0993 292.94C64.9993 292.77 64.9893 292.71 64.9293 292.59C64.8693 292.47 64.8593 292.38 64.8293 292.27C64.7993 292.16 64.8293 292.08 64.7693 291.98C64.7093 291.88 64.7693 291.71 64.7693 291.57V291.29C64.7879 291.196 64.8112 291.102 64.8393 291.01C64.8393 290.91 64.9093 290.81 64.9393 290.72C64.9693 290.63 65.0693 290.45 65.1393 290.32C65.2093 290.19 65.3693 289.97 65.4893 289.81C65.6093 289.65 65.8693 289.37 66.0793 289.16C66.2893 288.95 66.7093 288.6 67.0793 288.34C67.6693 287.91 68.2793 287.53 68.9093 287.16C70.0994 286.596 71.3215 286.102 72.5693 285.68C75.5421 284.527 78.589 283.575 81.6893 282.83C83.0393 282.49 84.3893 282.18 85.7493 281.9C90.7493 280.83 95.7493 280.04 100.859 279.41C101.066 279.374 101.258 279.279 101.411 279.135C101.564 278.991 101.671 278.805 101.719 278.6C102.419 279.307 103.243 279.88 104.149 280.29C103.87 280.966 103.77 281.704 103.859 282.43C103.962 283.317 104.243 284.175 104.684 284.952C105.126 285.728 105.719 286.408 106.429 286.95C109.889 289.49 114.429 289.45 118.569 289.95C129.509 290.51 140.469 289.79 151.389 289.1C158.149 288.51 165.019 288.51 171.629 286.85C172.499 286.681 173.326 286.343 174.064 285.853C174.802 285.364 175.437 284.734 175.931 283.999C176.425 283.265 176.77 282.439 176.944 281.571C177.119 280.703 177.121 279.809 176.949 278.94C180.039 279.27 183.129 279.69 186.199 280.16C191.622 280.958 196.992 282.083 202.279 283.53C204.629 284.192 206.937 284.997 209.189 285.94C210.215 286.391 211.216 286.895 212.189 287.45C212.752 287.787 213.297 288.154 213.819 288.55C214.123 288.791 214.413 289.048 214.689 289.32C214.874 289.51 215.047 289.711 215.209 289.92C215.323 290.067 215.423 290.217 215.509 290.37C215.587 290.506 215.657 290.646 215.719 290.79C215.77 290.91 215.81 291.034 215.839 291.16C215.839 291.27 215.839 291.38 215.899 291.49C215.959 291.6 215.899 291.69 215.899 291.79C215.893 291.871 215.883 291.951 215.869 292.03H215.859Z" fill="#FAF4DF"/>
<path d="M64.5602 163.76C64.8505 163.735 65.1189 163.595 65.3063 163.372C65.4938 163.149 65.5851 162.861 65.5602 162.57C65.3502 161.06 65.1602 159.57 64.9602 158.03C64.4302 154.4 64.0302 150.75 63.5302 147.12C63.5302 146.74 63.4502 146.35 63.3802 145.97C63.303 145.707 63.1304 145.482 62.8961 145.34C62.6618 145.197 62.3828 145.148 62.1137 145.2C61.8446 145.253 61.6048 145.404 61.4414 145.624C61.278 145.844 61.2026 146.117 61.2302 146.39C61.3202 147.01 61.3902 147.7 61.4802 148.39C61.8802 151.21 62.1902 154.04 62.5802 156.86C62.8602 158.86 63.1202 160.8 63.3802 162.77C63.4105 163.056 63.5505 163.319 63.7705 163.503C63.9906 163.688 64.2736 163.78 64.5602 163.76Z" fill="#FAF4DF"/>
<path d="M64.9205 170.68C65.0305 171.76 65.2405 172.84 65.4005 173.92C65.7005 175.92 65.9505 177.92 66.1905 179.92C66.5705 183.15 66.9005 186.38 67.1905 189.61C67.2905 190.61 67.3905 191.69 67.5205 192.73C67.5274 192.878 67.5641 193.023 67.6285 193.157C67.6928 193.29 67.7834 193.41 67.8949 193.507C68.0064 193.605 68.1365 193.679 68.2773 193.725C68.4181 193.771 68.5668 193.788 68.7144 193.775C68.8621 193.762 69.0056 193.72 69.1363 193.65C69.2671 193.581 69.3825 193.485 69.4755 193.37C69.5686 193.255 69.6373 193.122 69.6777 192.979C69.7181 192.837 69.7293 192.687 69.7105 192.54C69.3905 189.86 69.1605 187.17 68.8605 184.54C68.5105 181.25 68.1405 177.97 67.6905 174.7C67.5405 173.7 67.3705 172.63 67.2105 171.59C67.0805 170.7 67.1105 169.43 65.8705 169.49C65.5893 169.528 65.3334 169.673 65.1564 169.894C64.9793 170.116 64.8948 170.398 64.9205 170.68Z" fill="#FAF4DF"/>
<path d="M70.6002 166.75C77.2669 166.083 83.9336 165.46 90.6002 164.88C90.882 164.844 91.139 164.7 91.3174 164.479C91.4958 164.258 91.5817 163.976 91.5571 163.693C91.5326 163.41 91.3995 163.148 91.1857 162.961C90.9719 162.774 90.694 162.676 90.4102 162.69C88.0802 162.88 85.7502 163.07 83.4102 163.29C79.0802 163.77 74.7302 164.06 70.4102 164.56C70.1284 164.596 69.8714 164.739 69.693 164.96C69.5147 165.181 69.4288 165.463 69.4533 165.746C69.4779 166.029 69.611 166.292 69.8248 166.479C70.0386 166.666 70.3164 166.763 70.6002 166.75Z" fill="#FAF4DF"/>
<path d="M59.8091 165.84C54.2691 166.507 48.7191 167.1 43.1591 167.62C42.7445 167.648 42.333 167.712 41.9291 167.81C41.6703 167.913 41.4603 168.111 41.3414 168.363C41.2226 168.615 41.2038 168.902 41.2888 169.168C41.3739 169.433 41.5565 169.656 41.7997 169.792C42.0429 169.928 42.3286 169.967 42.5991 169.9C48.3991 169.31 54.2091 168.74 59.9991 168.03C60.2809 167.994 60.5379 167.851 60.7163 167.629C60.8947 167.408 60.9806 167.127 60.956 166.844C60.9314 166.561 60.7983 166.298 60.5846 166.111C60.3708 165.924 60.0929 165.827 59.8091 165.84Z" fill="#FAF4DF"/>
<path d="M67.5695 267.93C66.8818 267.382 66.0225 267.096 65.1438 267.122C64.2652 267.147 63.424 267.483 62.7695 268.07C59.7695 270.29 60.8895 275.19 64.2895 276.35C68.1495 278.07 71.2895 272.29 68.5995 269.52C68.8095 268.77 68.0695 268.33 67.5695 267.93ZM65.6795 274.44C63.6795 274.28 62.3695 271.62 63.8295 270.1C64.8295 268.88 65.9595 269.26 66.9295 270.24C66.7895 270.85 67.3795 271.34 67.3695 271.95C67.4595 272.98 66.8595 274.43 65.6795 274.44Z" fill="#FAF4DF"/>
<path d="M216.511 256.73C211.451 256.36 207.791 255.41 206.801 249.81C206.561 248.81 206.361 247.81 206.161 246.81C205.951 245.97 205.951 244.72 204.931 244.44C204.745 244.408 204.555 244.419 204.375 244.473C204.194 244.527 204.029 244.623 203.892 244.752C203.756 244.881 203.651 245.04 203.586 245.217C203.522 245.394 203.499 245.583 203.521 245.77C203.361 246.96 203.231 248.16 203.031 249.35C202.631 251.87 201.711 254.48 199.681 256.14C198.509 256.74 197.27 257.2 195.991 257.51C195.501 257.599 195.029 257.764 194.591 258C193.881 258.2 192.961 258.15 192.591 258.86C191.801 260.86 194.671 260.65 195.881 260.95C201.341 261.78 202.661 263.2 203.881 268.53C204.191 269.84 204.431 271.17 204.661 272.53C204.831 273.26 204.771 274.17 205.421 274.68C207.681 275.79 207.581 271.89 207.931 270.55C208.108 269.309 208.444 268.095 208.931 266.94C209.873 264.968 211.297 263.266 213.071 261.99C214.191 261.206 215.399 260.555 216.671 260.05C217.531 259.73 218.401 259.45 219.271 259.19C219.465 259.139 219.643 259.039 219.786 258.897C219.929 258.756 220.032 258.58 220.085 258.386C220.138 258.192 220.138 257.987 220.086 257.793C220.035 257.599 219.933 257.422 219.791 257.28C218.881 256.54 217.591 256.91 216.511 256.73ZM206.111 268.42C205.321 264.85 204.061 261 200.251 259.75C199.704 259.534 199.142 259.357 198.571 259.22C201.771 258.22 204.571 256.27 205.431 252.87C206.751 256.68 210.431 258.29 214.211 258.7C212.23 259.626 210.477 260.978 209.078 262.657C207.678 264.337 206.665 266.305 206.111 268.42Z" fill="#FAF4DF"/>
<path d="M121.55 185.35C121.612 185.633 121.783 185.88 122.027 186.037C122.27 186.194 122.566 186.249 122.85 186.19C125.35 185.73 121.32 179.08 120.34 177.98C117.62 174.69 113.77 172.66 110.34 170.23C107.679 168.497 105.494 166.124 103.987 163.329C102.479 160.534 101.696 157.406 101.71 154.23C101.6 150.11 102.61 146.01 102.8 141.95C102.696 141.679 102.491 141.459 102.227 141.337C101.964 141.216 101.663 141.202 101.39 141.3C101.144 141.413 100.94 141.598 100.802 141.83C100.664 142.062 100.601 142.331 100.62 142.6C100.49 143.6 100.33 144.66 100.2 145.69C99.0495 153.52 98.8895 161.56 104.46 167.85C109.84 174.35 119.61 176.09 121.55 185.35ZM102.45 143.23C102.384 143.288 102.31 143.335 102.23 143.37C102.306 143.329 102.38 143.282 102.45 143.23Z" fill="#FAF4DF"/>
<path d="M120.541 167.86C125.061 171.5 129.871 175.51 131.541 181.3C131.931 182.7 132.162 184.139 132.231 185.59C132.151 186.42 132.231 187.44 133.231 187.52C135.311 187.63 134.091 183.04 133.901 181.76C131.481 170.87 120.661 167.25 114.901 158.9C112.974 155.515 112.228 151.585 112.781 147.73C112.888 146.766 113.045 145.808 113.251 144.86C113.449 144.518 113.503 144.112 113.401 143.73C113.297 143.461 113.093 143.243 112.832 143.122C112.571 143 112.273 142.985 112.001 143.08C111.381 143.32 111.221 143.97 111.091 144.55C108.941 155.42 112.241 161.15 120.541 167.86Z" fill="#FAF4DF"/>
<path d="M133.71 168.68C136.58 171.27 139.8 173.6 141.85 176.95C142.957 178.781 143.735 180.791 144.15 182.89C144.43 183.89 143.68 185.76 145.25 185.89C147.55 185.89 145.99 180.89 145.52 179.58C142.41 169.76 130.61 166.66 127.81 156.58C127.05 153.544 126.87 150.392 127.28 147.29C127.457 145.991 127.551 144.681 127.56 143.37C127.467 143.142 127.301 142.952 127.088 142.829C126.875 142.705 126.627 142.657 126.383 142.69C126.139 142.723 125.913 142.836 125.741 143.012C125.568 143.188 125.459 143.416 125.43 143.66C124 154.55 125.12 161.2 133.71 168.68ZM127.19 144.68C127.121 144.738 127.044 144.785 126.96 144.82L127.19 144.68Z" fill="#FAF4DF"/>
<path d="M153.68 177.05C158.2 184.18 154.92 188.05 157.34 188.3C157.629 188.308 157.911 188.203 158.124 188.007C158.337 187.811 158.464 187.539 158.48 187.25C158.652 185.233 158.466 183.202 157.93 181.25C155.59 172.25 146.12 167.64 142.71 159.14C141.132 155.397 140.491 151.327 140.84 147.28C140.945 146.347 141.153 145.428 141.46 144.54C141.614 144.332 141.692 144.076 141.679 143.817C141.666 143.559 141.564 143.312 141.39 143.12C141.246 142.981 141.069 142.882 140.875 142.831C140.682 142.781 140.479 142.78 140.285 142.83C140.092 142.881 139.914 142.979 139.77 143.118C139.625 143.256 139.519 143.429 139.46 143.62C137.16 150.73 139.3 158.78 143.39 164.83C146.37 169.29 150.77 172.57 153.68 177.05Z" fill="#FAF4DF"/>
<path d="M37.0001 285.29C39.4601 286.02 42.3901 285.99 44.4001 287.76C45.7301 289.1 45.9501 291.03 46.1301 292.82C46.4401 295.02 46.2201 297.29 46.5701 299.45C46.7014 299.701 46.9204 299.895 47.1855 299.994C47.4506 300.094 47.7429 300.092 48.0067 299.989C48.2704 299.886 48.487 299.69 48.615 299.437C48.7429 299.185 48.7732 298.894 48.7001 298.62C48.9201 295.74 49.2501 292.13 51.1701 289.84C53.7601 287.7 57.3101 287.4 60.4401 286.51C60.6173 286.47 60.7833 286.39 60.9264 286.278C61.0695 286.166 61.1862 286.024 61.2682 285.862C61.3503 285.7 61.3957 285.521 61.4012 285.34C61.4067 285.158 61.3722 284.977 61.3001 284.81C60.9101 284.05 59.9901 283.87 59.2401 283.64C57.3401 283.1 55.3801 282.82 53.4901 282.27C52.959 282.153 52.468 281.898 52.0661 281.531C51.6643 281.164 51.3657 280.699 51.2001 280.18C50.5614 278.338 50.2896 276.388 50.4001 274.44C50.7301 273.35 50.0001 272.09 48.7901 272.72C48.1501 273.1 48.2901 273.88 48.1801 274.5C47.9201 275.88 47.6401 277.27 47.2501 278.62C45.7701 283.73 42.7201 282.69 38.3901 283.03C37.8217 282.987 37.2508 283.072 36.7201 283.28C36.545 283.399 36.4065 283.564 36.3205 283.757C36.2344 283.95 36.2043 284.163 36.2335 284.373C36.2626 284.582 36.3499 284.779 36.4855 284.941C36.621 285.104 36.7993 285.224 37.0001 285.29ZM49.1801 281.04C50.1801 284.23 53.6101 284.61 56.4501 285.22C53.1901 286.06 49.2801 287.22 48.0701 290.73C47.9647 289.69 47.6434 288.683 47.1268 287.774C46.6103 286.865 45.9098 286.074 45.0701 285.45C44.8538 285.309 44.6302 285.178 44.4001 285.06C46.4148 284.33 48.1027 282.904 49.1601 281.04H49.1801Z" fill="#FAF4DF"/>
<path d="M253.056 187.308C247.996 186.938 244.336 185.988 243.346 180.388C243.106 179.388 242.906 178.388 242.706 177.388C242.496 176.548 242.496 175.298 241.476 175.018C241.29 174.986 241.1 174.997 240.92 175.051C240.739 175.105 240.574 175.201 240.437 175.33C240.3 175.459 240.196 175.618 240.131 175.795C240.066 175.972 240.044 176.161 240.066 176.348C239.906 177.538 239.776 178.738 239.576 179.928C239.176 182.448 238.256 185.058 236.226 186.718C235.054 187.318 233.815 187.778 232.536 188.088C232.046 188.177 231.574 188.342 231.136 188.578C230.426 188.778 229.506 188.728 229.136 189.438C228.346 191.438 231.216 191.228 232.426 191.528C237.886 192.358 239.206 193.778 240.426 199.108C240.736 200.418 240.976 201.748 241.206 203.108C241.376 203.838 241.316 204.748 241.966 205.258C244.226 206.368 244.126 202.468 244.476 201.128C244.653 199.887 244.989 198.673 245.476 197.518C246.418 195.546 247.841 193.844 249.616 192.568C250.736 191.784 251.944 191.133 253.216 190.628C254.076 190.308 254.946 190.028 255.816 189.768C256.01 189.718 256.188 189.617 256.331 189.475C256.474 189.334 256.577 189.158 256.63 188.964C256.682 188.77 256.683 188.566 256.631 188.371C256.58 188.177 256.478 188 256.336 187.858C255.426 187.118 254.136 187.488 253.056 187.308ZM242.656 198.998C241.866 195.428 240.606 191.578 236.796 190.328C236.249 190.112 235.687 189.935 235.116 189.798C238.316 188.798 241.116 186.848 241.976 183.448C243.296 187.258 246.976 188.868 250.756 189.278C248.775 190.205 247.022 191.556 245.623 193.236C244.223 194.915 243.21 196.883 242.656 198.998Z" fill="#FAF4DF"/>
<path d="M240.5 159.5C240.5 159.833 240.333 160 240 160L231.8 159.9C230.067 159.9 228.633 159.933 227.5 160C227.167 160 227 159.833 227 159.5V156.7C227 156.567 227.033 156.467 227.1 156.4C227.233 156.267 227.367 156.2 227.5 156.2C228.567 156.133 229.933 156.1 231.6 156.1L231.9 143.2C231.967 141.8 232.033 140.1 232.1 138.1C232.167 136.033 232.2 133.667 232.2 131V125.8C232.2 121.667 232.133 115.333 232 106.8L231.9 95.3L229.6 95.4C229.2 95.4 229 95.2333 229 94.9V92.1C229 91.9667 229.033 91.8667 229.1 91.8C229.233 91.6667 229.367 91.6 229.5 91.6L232.6 91.5C233.067 91.5 233.633 91.5333 234.3 91.6C235.033 91.6 236.233 91.6 237.9 91.6C238.033 91.6 238.133 91.6667 238.2 91.8C238.333 91.8667 238.4 91.9667 238.4 92.1L238.5 94.9C238.5 95.2333 238.3 95.4 237.9 95.4H235.7L235.8 106.6C235.933 115.133 236 121.533 236 125.8V131C236 133.733 235.967 136.133 235.9 138.2C235.833 140.2 235.767 141.9 235.7 143.3L235.4 156.2H239.9C240.033 156.2 240.133 156.267 240.2 156.4C240.333 156.467 240.4 156.567 240.4 156.7L240.5 159.5ZM274.63 96.3C274.83 96.5 274.797 96.7333 274.53 97L272.13 98.6C271.93 98.8 271.697 98.7667 271.43 98.5C269.897 96.3667 267.564 95.3 264.43 95.3C261.964 95.3 259.93 96 258.33 97.4C256.73 98.8 255.93 100.567 255.93 102.7C255.93 104.967 256.364 106.967 257.23 108.7C258.097 110.367 259.23 111.9 260.63 113.3C262.097 114.633 264.297 116.5 267.23 118.9C270.497 121.567 273.164 123.967 275.23 126.1C277.364 128.167 279.197 130.7 280.73 133.7C282.264 136.633 283.03 139.9 283.03 143.5C283.03 146.7 282.23 149.567 280.63 152.1C279.097 154.567 276.964 156.5 274.23 157.9C271.497 159.3 268.397 160 264.93 160C261.197 160 257.83 159.2 254.83 157.6C251.897 155.933 249.564 153.633 247.83 150.7C246.097 147.767 245.197 144.433 245.13 140.7C245.13 140.367 245.297 140.2 245.63 140.2H248.43C248.764 140.2 248.93 140.367 248.93 140.7C248.997 145.3 250.53 149.033 253.53 151.9C256.53 154.767 260.33 156.2 264.93 156.2C269.197 156.2 272.63 155.033 275.23 152.7C277.897 150.3 279.23 147.233 279.23 143.5C279.23 140.433 278.564 137.667 277.23 135.2C275.897 132.733 274.33 130.633 272.53 128.9C270.797 127.1 268.23 124.767 264.83 121.9C261.63 119.233 259.264 117.133 257.73 115.6C256.197 114.067 254.864 112.233 253.73 110.1C252.664 107.967 252.13 105.5 252.13 102.7C252.13 99.5 253.297 96.8333 255.63 94.7C257.964 92.5667 260.897 91.5 264.43 91.5C266.564 91.5 268.53 91.9333 270.33 92.8C272.13 93.6 273.564 94.7667 274.63 96.3ZM334.415 91.7C334.748 91.7 334.915 91.8667 334.915 92.2V95C334.915 95.3333 334.748 95.5 334.415 95.5C328.415 95.6333 323.215 96.9 318.815 99.3C314.482 101.7 311.115 105.1 308.715 109.5C306.382 113.833 305.215 118.867 305.215 124.6C305.215 126.267 305.315 128 305.515 129.8C306.115 135.067 307.848 139.7 310.715 143.7C313.648 147.633 317.448 150.7 322.115 152.9C326.782 155.1 332.048 156.2 337.915 156.2C338.448 156.2 338.715 156.367 338.715 156.7V159.5C338.715 159.833 338.482 160 338.015 160C331.482 160 325.582 158.767 320.315 156.3C315.115 153.833 310.882 150.367 307.615 145.9C304.348 141.367 302.382 136.133 301.715 130.2C301.515 128.267 301.415 126.433 301.415 124.7C301.415 118.233 302.748 112.533 305.415 107.6C308.148 102.667 311.982 98.8333 316.915 96.1C321.915 93.3 327.748 91.8333 334.415 91.7ZM363.623 91.3C371.023 128.5 375.023 151.2 375.623 159.4C375.623 159.733 375.456 159.9 375.123 159.9L372.323 160.1C371.989 160.1 371.823 159.933 371.823 159.6C371.623 157.2 371.223 154.1 370.623 150.3C368.489 150.567 365.723 150.7 362.323 150.7C357.656 150.7 353.123 150.467 348.723 150C347.389 153.067 345.923 156.233 344.323 159.5C344.256 159.633 344.156 159.733 344.023 159.8C343.889 159.867 343.756 159.867 343.623 159.8L341.123 158.4C340.856 158.2 340.789 158 340.923 157.8C342.389 154.733 343.656 151.967 344.723 149.5L343.523 149.3L344.123 145.5L346.223 145.8C349.689 137.267 352.589 128.267 354.923 118.8C357.256 109.267 358.889 100.167 359.823 91.5L363.623 91.3ZM350.223 146.3C354.889 146.767 358.789 147 361.923 147C364.789 147 367.489 146.833 370.023 146.5C368.356 136.367 365.689 122 362.023 103.4C359.689 117.667 355.756 131.967 350.223 146.3ZM408.966 93.2C402.432 92.9333 397.499 92.8 394.166 92.8C392.032 92.8 388.832 92.8667 384.566 93C384.966 103.467 385.166 114.067 385.166 124.8V131.3C391.032 131.567 395.499 131.667 398.566 131.6L397.766 135.3H394.366C392.299 135.3 389.199 135.233 385.066 135.1C384.999 142.1 384.732 150.4 384.266 160H380.466C380.932 150.533 381.199 142.167 381.266 134.9L378.766 134.7L378.866 130.9L381.266 131.1C381.332 128.7 381.366 125.1 381.366 120.3C381.366 110.1 381.166 99.7 380.766 89.1C382.899 89.0333 386.132 89 390.466 89C397.666 89 404.166 89.1333 409.966 89.4L408.966 93.2ZM452.872 159.3C452.939 159.5 452.905 159.667 452.772 159.8C452.639 159.867 452.505 159.9 452.372 159.9C444.239 160.233 438.005 160.4 433.672 160.4C429.405 160.4 423.105 160.233 414.772 159.9C415.239 150.167 415.505 141.833 415.572 134.9L413.072 134.7L413.172 130.9L415.672 131.1V124.7C415.672 114.3 415.472 103.267 415.072 91.6C417.205 91.5333 420.372 91.5 424.572 91.5C431.639 91.5 437.972 91.6333 443.572 91.9C443.772 91.9 443.905 92 443.972 92.2C444.105 92.3333 444.139 92.4667 444.072 92.6L443.372 95.3C443.372 95.4333 443.305 95.5333 443.172 95.6C443.105 95.6667 443.005 95.7 442.872 95.7C436.472 95.4333 431.639 95.3 428.372 95.3C426.305 95.3 423.139 95.3667 418.872 95.5C419.272 104.967 419.472 113.9 419.472 122.3C419.472 126.3 419.439 129.3 419.372 131.3C422.572 131.5 425.772 131.6 428.972 131.6H432.172C432.372 131.6 432.539 131.7 432.672 131.9C432.805 132.033 432.839 132.167 432.772 132.3L432.172 134.9C432.172 135.167 432.005 135.3 431.672 135.3H428.372C426.372 135.3 423.372 135.233 419.372 135.1C419.105 144.167 418.839 151.167 418.572 156.1C424.639 156.367 430.272 156.5 435.472 156.5C440.739 156.5 446.205 156.367 451.872 156.1C452.205 156.1 452.372 156.233 452.372 156.5L452.872 159.3Z" fill="white"/>
<path d="M287.29 180.57C287.29 186.91 287.18 192.66 286.96 197.82C286.96 197.86 286.94 197.89 286.9 197.91C286.88 197.93 286.85 197.94 286.81 197.94L285.82 198C283.48 195.6 280.89 192.72 278.05 189.36C275.23 186 272.61 182.69 270.19 179.43C270.27 182.71 270.31 186.81 270.31 191.73C270.31 194.53 270.3 196.58 270.28 197.88C270.28 197.98 270.23 198.03 270.13 198.03L269.29 197.97C269.25 197.97 269.21 197.96 269.17 197.94C269.15 197.9 269.14 197.86 269.14 197.82C269.16 196.48 269.17 194.37 269.17 191.49C269.17 186.17 269.11 181.56 268.99 177.66C268.99 177.62 269 177.59 269.02 177.57C269.06 177.53 269.1 177.51 269.14 177.51L269.98 177.45C270.04 177.45 270.07 177.46 270.07 177.48C270.13 177.48 270.18 177.52 270.22 177.6C272.62 180.9 275.24 184.25 278.08 187.65C280.92 191.03 283.52 193.92 285.88 196.32C286.06 191.28 286.15 185.78 286.15 179.82V177.63C286.15 177.53 286.2 177.48 286.3 177.48H287.14C287.24 177.48 287.29 177.53 287.29 177.63V180.57ZM296.593 177.51C298.093 177.51 299.413 177.99 300.553 178.95C301.693 179.91 302.573 181.25 303.193 182.97C303.833 184.69 304.153 186.65 304.153 188.85C304.153 190.65 303.823 192.25 303.163 193.65C302.503 195.03 301.573 196.1 300.373 196.86C299.193 197.62 297.823 198 296.263 198C294.783 198 293.483 197.61 292.363 196.83C291.243 196.03 290.373 194.92 289.753 193.5C289.133 192.06 288.823 190.4 288.823 188.52C288.823 186.38 289.143 184.48 289.783 182.82C290.443 181.14 291.353 179.84 292.513 178.92C293.693 177.98 295.053 177.51 296.593 177.51ZM296.593 178.65C295.273 178.65 294.113 179.07 293.113 179.91C292.113 180.73 291.333 181.89 290.773 183.39C290.233 184.87 289.963 186.58 289.963 188.52C289.963 190.18 290.223 191.64 290.743 192.9C291.263 194.16 292.003 195.14 292.963 195.84C293.923 196.52 295.023 196.86 296.263 196.86C297.603 196.86 298.783 196.53 299.803 195.87C300.823 195.21 301.613 194.28 302.173 193.08C302.733 191.86 303.013 190.45 303.013 188.85C303.013 186.85 302.743 185.08 302.203 183.54C301.683 182 300.933 180.8 299.953 179.94C298.993 179.08 297.873 178.65 296.593 178.65ZM317.102 177.45C317.202 177.45 317.252 177.5 317.252 177.6V178.44C317.252 178.48 317.232 178.52 317.192 178.56C317.172 178.58 317.132 178.59 317.072 178.59C315.692 178.65 313.882 178.68 311.642 178.68C311.722 180.86 311.762 183.49 311.762 186.57C311.762 190.53 311.682 194.29 311.522 197.85C311.522 197.89 311.502 197.93 311.462 197.97C311.442 197.99 311.412 198 311.372 198H310.532C310.432 198 310.382 197.95 310.382 197.85C310.542 194.23 310.622 190.45 310.622 186.51C310.622 183.45 310.582 180.84 310.502 178.68C308.422 178.68 306.842 178.65 305.762 178.59C305.662 178.59 305.612 178.54 305.612 178.44L305.672 177.6C305.672 177.5 305.722 177.45 305.822 177.45C307.042 177.51 308.862 177.54 311.282 177.54C313.702 177.54 315.642 177.51 317.102 177.45ZM331.721 178.89C331.781 178.95 331.771 179.02 331.691 179.1L330.971 179.58C330.911 179.64 330.841 179.63 330.761 179.55C330.301 178.91 329.601 178.59 328.661 178.59C327.921 178.59 327.311 178.8 326.831 179.22C326.351 179.64 326.111 180.17 326.111 180.81C326.111 181.49 326.241 182.09 326.501 182.61C326.761 183.11 327.101 183.57 327.521 183.99C327.961 184.39 328.621 184.95 329.501 185.67C330.481 186.47 331.281 187.19 331.901 187.83C332.541 188.45 333.091 189.21 333.551 190.11C334.011 190.99 334.241 191.97 334.241 193.05C334.241 194.01 334.001 194.87 333.521 195.63C333.061 196.37 332.421 196.95 331.601 197.37C330.781 197.79 329.851 198 328.811 198C327.691 198 326.681 197.76 325.781 197.28C324.901 196.78 324.201 196.09 323.681 195.21C323.161 194.33 322.891 193.33 322.871 192.21C322.871 192.11 322.921 192.06 323.021 192.06H323.861C323.961 192.06 324.011 192.11 324.011 192.21C324.031 193.59 324.491 194.71 325.391 195.57C326.291 196.43 327.431 196.86 328.811 196.86C330.091 196.86 331.121 196.51 331.901 195.81C332.701 195.09 333.101 194.17 333.101 193.05C333.101 192.13 332.901 191.3 332.501 190.56C332.101 189.82 331.631 189.19 331.091 188.67C330.571 188.13 329.801 187.43 328.781 186.57C327.821 185.77 327.111 185.14 326.651 184.68C326.191 184.22 325.791 183.67 325.451 183.03C325.131 182.39 324.971 181.65 324.971 180.81C324.971 179.85 325.321 179.05 326.021 178.41C326.721 177.77 327.601 177.45 328.661 177.45C329.301 177.45 329.891 177.58 330.431 177.84C330.971 178.08 331.401 178.43 331.721 178.89ZM347.195 177.45C347.295 177.45 347.345 177.5 347.345 177.6V178.44C347.345 178.48 347.325 178.52 347.285 178.56C347.265 178.58 347.225 178.59 347.165 178.59C345.785 178.65 343.975 178.68 341.735 178.68C341.815 180.86 341.855 183.49 341.855 186.57C341.855 190.53 341.775 194.29 341.615 197.85C341.615 197.89 341.595 197.93 341.555 197.97C341.535 197.99 341.505 198 341.465 198H340.625C340.525 198 340.475 197.95 340.475 197.85C340.635 194.23 340.715 190.45 340.715 186.51C340.715 183.45 340.675 180.84 340.595 178.68C338.515 178.68 336.935 178.65 335.855 178.59C335.755 178.59 335.705 178.54 335.705 178.44L335.765 177.6C335.765 177.5 335.815 177.45 335.915 177.45C337.135 177.51 338.955 177.54 341.375 177.54C343.795 177.54 345.735 177.51 347.195 177.45ZM359.992 197.04C360.052 197.1 360.052 197.18 359.992 197.28L359.422 197.88C359.342 197.96 359.272 197.97 359.212 197.91L351.862 191.76L350.722 191.85C350.742 192.55 350.752 193.58 350.752 194.94C350.752 196.26 350.742 197.23 350.722 197.85C350.722 197.95 350.662 198 350.542 198L349.732 197.91C349.692 197.91 349.652 197.9 349.612 197.88C349.592 197.84 349.582 197.8 349.582 197.76C349.602 197.12 349.612 196.11 349.612 194.73C349.612 191.89 349.542 188.93 349.402 185.85C349.282 182.75 349.112 179.97 348.892 177.51H348.922C349.142 177.49 349.462 177.48 349.882 177.48C351.322 177.48 352.702 177.71 354.022 178.17C355.362 178.63 356.502 179.27 357.442 180.09C358.382 180.89 359.032 181.78 359.392 182.76C359.712 183.6 359.872 184.44 359.872 185.28C359.872 186.82 359.302 188.14 358.162 189.24C357.022 190.32 355.422 191.08 353.362 191.52L359.992 197.04ZM350.122 178.62C350.422 182.2 350.622 186.23 350.722 190.71C353.242 190.55 355.202 189.99 356.602 189.03C358.002 188.05 358.702 186.78 358.702 185.22C358.702 184.54 358.572 183.84 358.312 183.12C358.032 182.32 357.472 181.58 356.632 180.9C355.792 180.22 354.792 179.68 353.632 179.28C352.472 178.86 351.302 178.64 350.122 178.62ZM373.038 197.79C373.058 197.85 373.048 197.9 373.008 197.94C372.968 197.96 372.928 197.97 372.888 197.97C370.448 198.07 368.578 198.12 367.278 198.12C365.998 198.12 364.108 198.07 361.608 197.97C361.748 195.05 361.828 192.55 361.848 190.47L361.098 190.41L361.128 189.27L361.878 189.33V187.41C361.878 184.29 361.818 180.98 361.698 177.48C362.338 177.46 363.288 177.45 364.548 177.45C366.668 177.45 368.568 177.49 370.248 177.57C370.308 177.57 370.348 177.6 370.368 177.66C370.408 177.7 370.418 177.74 370.398 177.78L370.188 178.59C370.188 178.63 370.168 178.66 370.128 178.68C370.108 178.7 370.078 178.71 370.038 178.71C368.118 178.63 366.668 178.59 365.688 178.59C365.068 178.59 364.118 178.61 362.838 178.65C362.958 181.49 363.018 184.17 363.018 186.69C363.018 187.89 363.008 188.79 362.988 189.39C363.948 189.45 364.908 189.48 365.868 189.48H366.828C366.888 189.48 366.938 189.51 366.978 189.57C367.018 189.61 367.028 189.65 367.008 189.69L366.828 190.47C366.828 190.55 366.778 190.59 366.678 190.59H365.688C365.088 190.59 364.188 190.57 362.988 190.53C362.908 193.25 362.828 195.35 362.748 196.83C364.568 196.91 366.258 196.95 367.818 196.95C369.398 196.95 371.038 196.91 372.738 196.83C372.838 196.83 372.888 196.87 372.888 196.95L373.038 197.79ZM385.52 197.79C385.54 197.85 385.53 197.9 385.49 197.94C385.45 197.96 385.41 197.97 385.37 197.97C382.93 198.07 381.06 198.12 379.76 198.12C378.48 198.12 376.59 198.07 374.09 197.97C374.23 195.05 374.31 192.55 374.33 190.47L373.58 190.41L373.61 189.27L374.36 189.33V187.41C374.36 184.29 374.3 180.98 374.18 177.48C374.82 177.46 375.77 177.45 377.03 177.45C379.15 177.45 381.05 177.49 382.73 177.57C382.79 177.57 382.83 177.6 382.85 177.66C382.89 177.7 382.9 177.74 382.88 177.78L382.67 178.59C382.67 178.63 382.65 178.66 382.61 178.68C382.59 178.7 382.56 178.71 382.52 178.71C380.6 178.63 379.15 178.59 378.17 178.59C377.55 178.59 376.6 178.61 375.32 178.65C375.44 181.49 375.5 184.17 375.5 186.69C375.5 187.89 375.49 188.79 375.47 189.39C376.43 189.45 377.39 189.48 378.35 189.48H379.31C379.37 189.48 379.42 189.51 379.46 189.57C379.5 189.61 379.51 189.65 379.49 189.69L379.31 190.47C379.31 190.55 379.26 190.59 379.16 190.59H378.17C377.57 190.59 376.67 190.57 375.47 190.53C375.39 193.25 375.31 195.35 375.23 196.83C377.05 196.91 378.74 196.95 380.3 196.95C381.88 196.95 383.52 196.91 385.22 196.83C385.32 196.83 385.37 196.87 385.37 196.95L385.52 197.79ZM398.002 177.45C398.102 177.45 398.152 177.5 398.152 177.6V178.44C398.152 178.48 398.132 178.52 398.092 178.56C398.072 178.58 398.032 178.59 397.972 178.59C396.592 178.65 394.782 178.68 392.542 178.68C392.622 180.86 392.662 183.49 392.662 186.57C392.662 190.53 392.582 194.29 392.422 197.85C392.422 197.89 392.402 197.93 392.362 197.97C392.342 197.99 392.312 198 392.272 198H391.432C391.332 198 391.282 197.95 391.282 197.85C391.442 194.23 391.522 190.45 391.522 186.51C391.522 183.45 391.482 180.84 391.402 178.68C389.322 178.68 387.742 178.65 386.662 178.59C386.562 178.59 386.512 178.54 386.512 178.44L386.572 177.6C386.572 177.5 386.622 177.45 386.722 177.45C387.942 177.51 389.762 177.54 392.182 177.54C394.602 177.54 396.542 177.51 398.002 177.45ZM408.369 177.96C406.409 177.88 404.929 177.84 403.929 177.84C403.289 177.84 402.329 177.86 401.049 177.9C401.169 181.04 401.229 184.22 401.229 187.44V189.39C402.989 189.47 404.329 189.5 405.249 189.48L405.009 190.59H403.989C403.369 190.59 402.439 190.57 401.199 190.53C401.179 192.63 401.099 195.12 400.959 198H399.819C399.959 195.16 400.039 192.65 400.059 190.47L399.309 190.41L399.339 189.27L400.059 189.33C400.079 188.61 400.089 187.53 400.089 186.09C400.089 183.03 400.029 179.91 399.909 176.73C400.549 176.71 401.519 176.7 402.819 176.7C404.979 176.7 406.929 176.74 408.669 176.82L408.369 177.96ZM417.576 177.51C419.076 177.51 420.396 177.99 421.536 178.95C422.676 179.91 423.556 181.25 424.176 182.97C424.816 184.69 425.136 186.65 425.136 188.85C425.136 190.65 424.806 192.25 424.146 193.65C423.486 195.03 422.556 196.1 421.356 196.86C420.176 197.62 418.806 198 417.246 198C415.766 198 414.466 197.61 413.346 196.83C412.226 196.03 411.356 194.92 410.736 193.5C410.116 192.06 409.806 190.4 409.806 188.52C409.806 186.38 410.126 184.48 410.766 182.82C411.426 181.14 412.336 179.84 413.496 178.92C414.676 177.98 416.036 177.51 417.576 177.51ZM417.576 178.65C416.256 178.65 415.096 179.07 414.096 179.91C413.096 180.73 412.316 181.89 411.756 183.39C411.216 184.87 410.946 186.58 410.946 188.52C410.946 190.18 411.206 191.64 411.726 192.9C412.246 194.16 412.986 195.14 413.946 195.84C414.906 196.52 416.006 196.86 417.246 196.86C418.586 196.86 419.766 196.53 420.786 195.87C421.806 195.21 422.596 194.28 423.156 193.08C423.716 191.86 423.996 190.45 423.996 188.85C423.996 186.85 423.726 185.08 423.186 183.54C422.666 182 421.916 180.8 420.936 179.94C419.976 179.08 418.856 178.65 417.576 178.65ZM434.365 177.51C435.865 177.51 437.185 177.99 438.325 178.95C439.465 179.91 440.345 181.25 440.965 182.97C441.605 184.69 441.925 186.65 441.925 188.85C441.925 190.65 441.595 192.25 440.935 193.65C440.275 195.03 439.345 196.1 438.145 196.86C436.965 197.62 435.595 198 434.035 198C432.555 198 431.255 197.61 430.135 196.83C429.015 196.03 428.145 194.92 427.525 193.5C426.905 192.06 426.595 190.4 426.595 188.52C426.595 186.38 426.915 184.48 427.555 182.82C428.215 181.14 429.125 179.84 430.285 178.92C431.465 177.98 432.825 177.51 434.365 177.51ZM434.365 178.65C433.045 178.65 431.885 179.07 430.885 179.91C429.885 180.73 429.105 181.89 428.545 183.39C428.005 184.87 427.735 186.58 427.735 188.52C427.735 190.18 427.995 191.64 428.515 192.9C429.035 194.16 429.775 195.14 430.735 195.84C431.695 196.52 432.795 196.86 434.035 196.86C435.375 196.86 436.555 196.53 437.575 195.87C438.595 195.21 439.385 194.28 439.945 193.08C440.505 191.86 440.785 190.45 440.785 188.85C440.785 186.85 440.515 185.08 439.975 183.54C439.455 182 438.705 180.8 437.725 179.94C436.765 179.08 435.645 178.65 434.365 178.65ZM442.963 177.48C445.243 177.5 447.193 178 448.813 178.98C450.433 179.96 451.653 181.23 452.473 182.79C453.313 184.35 453.733 186 453.733 187.74C453.733 189.46 453.333 191.08 452.533 192.6C451.753 194.12 450.583 195.38 449.023 196.38C447.463 197.36 445.573 197.9 443.353 198C443.233 198 443.173 197.94 443.173 197.82C443.293 196.28 443.353 194.39 443.353 192.15C443.353 187.61 443.163 182.78 442.783 177.66C442.783 177.54 442.843 177.48 442.963 177.48ZM444.403 196.77C446.183 196.55 447.693 196.01 448.933 195.15C450.173 194.27 451.103 193.19 451.723 191.91C452.363 190.63 452.683 189.28 452.683 187.86C452.683 186.4 452.343 185.01 451.663 183.69C451.003 182.35 450.023 181.24 448.723 180.36C447.423 179.48 445.853 178.96 444.013 178.8C444.333 183.5 444.493 188.09 444.493 192.57C444.493 194.17 444.463 195.57 444.403 196.77Z" fill="white"/>
<path d="M223.88 225.72C225.067 225.72 226.04 225.873 226.8 226.18C227.573 226.473 228.147 226.92 228.52 227.52C228.893 228.12 229.08 228.873 229.08 229.78C229.08 230.54 228.94 231.173 228.66 231.68C228.38 232.187 228.02 232.593 227.58 232.9C227.153 233.193 226.7 233.427 226.22 233.6L230.14 240H228.04L224.58 234.1H221.74V240H219.94V225.72H223.88ZM223.78 227.28H221.74V232.58H223.88C224.653 232.58 225.287 232.48 225.78 232.28C226.273 232.067 226.633 231.76 226.86 231.36C227.1 230.96 227.22 230.46 227.22 229.86C227.22 229.233 227.093 228.733 226.84 228.36C226.6 227.987 226.227 227.713 225.72 227.54C225.213 227.367 224.567 227.28 223.78 227.28ZM240.011 240H232.031V225.72H240.011V227.3H233.831V231.76H239.651V233.32H233.831V238.42H240.011V240ZM244.595 240H242.795V225.72H250.775V227.3H244.595V232.36H250.395V233.94H244.595V240ZM256.836 240H251.676V238.96L253.356 238.58V227.16L251.676 226.76V225.72H256.836V226.76L255.156 227.16V238.58L256.836 238.96V240ZM270.563 240H268.463L260.823 228.14H260.743C260.756 228.38 260.77 228.647 260.783 228.94C260.81 229.233 260.83 229.553 260.843 229.9C260.856 230.233 260.87 230.58 260.883 230.94C260.896 231.3 260.903 231.66 260.903 232.02V240H259.243V225.72H261.323L268.943 237.54H269.023C269.01 237.38 268.996 237.16 268.983 236.88C268.97 236.587 268.956 236.267 268.943 235.92C268.93 235.56 268.916 235.193 268.903 234.82C268.89 234.447 268.883 234.1 268.883 233.78V225.72H270.563V240ZM282.068 240H274.088V225.72H282.068V227.3H275.888V231.76H281.708V233.32H275.888V238.42H282.068V240ZM296.292 232.72C296.292 234.32 295.992 235.66 295.392 236.74C294.805 237.82 293.958 238.633 292.852 239.18C291.745 239.727 290.405 240 288.832 240H284.852V225.72H289.252C290.692 225.72 291.938 225.987 292.992 226.52C294.045 227.053 294.858 227.84 295.432 228.88C296.005 229.907 296.292 231.187 296.292 232.72ZM294.392 232.78C294.392 231.513 294.178 230.473 293.752 229.66C293.338 228.847 292.725 228.247 291.912 227.86C291.112 227.46 290.138 227.26 288.992 227.26H286.652V238.46H288.592C290.525 238.46 291.972 237.987 292.932 237.04C293.905 236.08 294.392 234.66 294.392 232.78ZM312.916 240L311.196 235.58H305.536L303.836 240H302.016L307.596 225.66H309.216L314.776 240H312.916ZM309.056 229.66C309.016 229.553 308.95 229.36 308.856 229.08C308.763 228.8 308.67 228.513 308.576 228.22C308.496 227.913 308.43 227.68 308.376 227.52C308.31 227.787 308.236 228.06 308.156 228.34C308.09 228.607 308.016 228.853 307.936 229.08C307.87 229.307 307.81 229.5 307.756 229.66L306.136 233.98H310.656L309.056 229.66ZM327.7 240H325.6L317.96 228.14H317.88C317.893 228.38 317.907 228.647 317.92 228.94C317.947 229.233 317.967 229.553 317.98 229.9C317.993 230.233 318.007 230.58 318.02 230.94C318.033 231.3 318.04 231.66 318.04 232.02V240H316.38V225.72H318.46L326.08 237.54H326.16C326.147 237.38 326.133 237.16 326.12 236.88C326.107 236.587 326.093 236.267 326.08 235.92C326.067 235.56 326.053 235.193 326.04 234.82C326.027 234.447 326.02 234.1 326.02 233.78V225.72H327.7V240ZM342.665 232.72C342.665 234.32 342.365 235.66 341.765 236.74C341.178 237.82 340.332 238.633 339.225 239.18C338.118 239.727 336.778 240 335.205 240H331.225V225.72H335.625C337.065 225.72 338.312 225.987 339.365 226.52C340.418 227.053 341.232 227.84 341.805 228.88C342.378 229.907 342.665 231.187 342.665 232.72ZM340.765 232.78C340.765 231.513 340.552 230.473 340.125 229.66C339.712 228.847 339.098 228.247 338.285 227.86C337.485 227.46 336.512 227.26 335.365 227.26H333.025V238.46H334.965C336.898 238.46 338.345 237.987 339.305 237.04C340.278 236.08 340.765 234.66 340.765 232.78ZM362.79 232.84C362.79 233.947 362.65 234.953 362.37 235.86C362.09 236.753 361.67 237.527 361.11 238.18C360.563 238.833 359.877 239.333 359.05 239.68C358.237 240.027 357.29 240.2 356.21 240.2C355.09 240.2 354.117 240.027 353.29 239.68C352.463 239.32 351.777 238.82 351.23 238.18C350.683 237.527 350.277 236.747 350.01 235.84C349.743 234.933 349.61 233.927 349.61 232.82C349.61 231.353 349.85 230.073 350.33 228.98C350.81 227.887 351.537 227.033 352.51 226.42C353.497 225.807 354.737 225.5 356.23 225.5C357.657 225.5 358.857 225.807 359.83 226.42C360.803 227.02 361.537 227.873 362.03 228.98C362.537 230.073 362.79 231.36 362.79 232.84ZM351.51 232.84C351.51 234.04 351.677 235.073 352.01 235.94C352.343 236.807 352.857 237.473 353.55 237.94C354.257 238.407 355.143 238.64 356.21 238.64C357.29 238.64 358.17 238.407 358.85 237.94C359.543 237.473 360.057 236.807 360.39 235.94C360.723 235.073 360.89 234.04 360.89 232.84C360.89 231.04 360.517 229.633 359.77 228.62C359.023 227.593 357.843 227.08 356.23 227.08C355.15 227.08 354.257 227.313 353.55 227.78C352.857 228.233 352.343 228.893 352.01 229.76C351.677 230.613 351.51 231.64 351.51 232.84ZM369.545 225.72C370.732 225.72 371.705 225.873 372.465 226.18C373.238 226.473 373.812 226.92 374.185 227.52C374.558 228.12 374.745 228.873 374.745 229.78C374.745 230.54 374.605 231.173 374.325 231.68C374.045 232.187 373.685 232.593 373.245 232.9C372.818 233.193 372.365 233.427 371.885 233.6L375.805 240H373.705L370.245 234.1H367.405V240H365.605V225.72H369.545ZM369.445 227.28H367.405V232.58H369.545C370.318 232.58 370.952 232.48 371.445 232.28C371.938 232.067 372.298 231.76 372.525 231.36C372.765 230.96 372.885 230.46 372.885 229.86C372.885 229.233 372.758 228.733 372.505 228.36C372.265 227.987 371.892 227.713 371.385 227.54C370.878 227.367 370.232 227.28 369.445 227.28ZM383.896 232.46H388.836V239.46C388.063 239.713 387.283 239.9 386.496 240.02C385.71 240.14 384.816 240.2 383.816 240.2C382.336 240.2 381.09 239.907 380.076 239.32C379.063 238.72 378.29 237.873 377.756 236.78C377.236 235.673 376.976 234.367 376.976 232.86C376.976 231.367 377.27 230.073 377.856 228.98C378.443 227.887 379.283 227.04 380.376 226.44C381.483 225.827 382.816 225.52 384.376 225.52C385.176 225.52 385.93 225.593 386.636 225.74C387.356 225.887 388.023 226.093 388.636 226.36L387.956 227.92C387.45 227.693 386.876 227.5 386.236 227.34C385.61 227.18 384.956 227.1 384.276 227.1C383.143 227.1 382.17 227.333 381.356 227.8C380.543 228.267 379.923 228.933 379.496 229.8C379.07 230.653 378.856 231.673 378.856 232.86C378.856 233.993 379.036 235 379.396 235.88C379.77 236.747 380.35 237.427 381.136 237.92C381.923 238.4 382.956 238.64 384.236 238.64C384.663 238.64 385.036 238.627 385.356 238.6C385.69 238.56 385.99 238.513 386.256 238.46C386.536 238.407 386.796 238.353 387.036 238.3V234.06H383.896V232.46ZM400.857 240L399.137 235.58H393.477L391.777 240H389.957L395.537 225.66H397.157L402.717 240H400.857ZM396.997 229.66C396.957 229.553 396.89 229.36 396.797 229.08C396.704 228.8 396.61 228.513 396.517 228.22C396.437 227.913 396.37 227.68 396.317 227.52C396.25 227.787 396.177 228.06 396.097 228.34C396.03 228.607 395.957 228.853 395.877 229.08C395.81 229.307 395.75 229.5 395.697 229.66L394.077 233.98H398.597L396.997 229.66ZM415.64 240H413.54L405.9 228.14H405.82C405.834 228.38 405.847 228.647 405.86 228.94C405.887 229.233 405.907 229.553 405.92 229.9C405.934 230.233 405.947 230.58 405.96 230.94C405.974 231.3 405.98 231.66 405.98 232.02V240H404.32V225.72H406.4L414.02 237.54H414.1C414.087 237.38 414.074 237.16 414.06 236.88C414.047 236.587 414.034 236.267 414.02 235.92C414.007 235.56 413.994 235.193 413.98 234.82C413.967 234.447 413.96 234.1 413.96 233.78V225.72H415.64V240ZM423.186 240H418.026V238.96L419.706 238.58V227.16L418.026 226.76V225.72H423.186V226.76L421.506 227.16V238.58L423.186 238.96V240ZM434.313 240H424.413V238.64L431.933 227.32H424.653V225.72H434.113V227.08L426.593 238.4H434.313V240ZM444.668 240H436.688V225.72H444.668V227.3H438.488V231.76H444.308V233.32H438.488V238.42H444.668V240ZM458.892 232.72C458.892 234.32 458.592 235.66 457.992 236.74C457.405 237.82 456.558 238.633 455.452 239.18C454.345 239.727 453.005 240 451.432 240H447.452V225.72H451.852C453.292 225.72 454.538 225.987 455.592 226.52C456.645 227.053 457.458 227.84 458.032 228.88C458.605 229.907 458.892 231.187 458.892 232.72ZM456.992 232.78C456.992 231.513 456.778 230.473 456.352 229.66C455.938 228.847 455.325 228.247 454.512 227.86C453.712 227.46 452.738 227.26 451.592 227.26H449.252V238.46H451.192C453.125 238.46 454.572 237.987 455.532 237.04C456.505 236.08 456.992 234.66 456.992 232.78Z" fill="white"/>
</svg>
