<svg width="101" height="101" viewBox="0 0 101 101" fill="none" xmlns="http://www.w3.org/2000/svg">
<path d="M50.5 0L50.5098 50.4503L69.8256 3.84407L50.5281 50.4581L86.2088 14.7911L50.5419 50.4719L97.1559 31.1744L50.5497 50.4902L101 50.5L50.5497 50.5098L97.1559 69.8256L50.5419 50.5281L86.2088 86.2088L50.5281 50.5419L69.8256 97.1559L50.5098 50.5497L50.5 101L50.4902 50.5497L31.1744 97.1559L50.4719 50.5419L14.7911 86.2088L50.4581 50.5281L3.84407 69.8256L50.4503 50.5098L0 50.5L50.4503 50.4902L3.84407 31.1744L50.4581 50.4719L14.7911 14.7911L50.4719 50.4581L31.1744 3.84407L50.4902 50.4503L50.5 0Z" fill="#FC7451" stroke="#FC7451" stroke-width="4"/>
</svg>
