<svg width="111" height="184" viewBox="0 0 111 184" fill="none" xmlns="http://www.w3.org/2000/svg">
<g clip-path="url(#clip0_183_4341)" filter="url(#filter0_d_183_4341)">
<path d="M27.5785 0C18.512 11.9521 10.6188 24.7508 4.00843 38.2184C4.00007 38.229 3.99389 38.2411 3.99022 38.2541C3.98654 38.2671 3.98545 38.2807 3.98703 38.2941C3.99021 38.3212 4.00404 38.3459 4.02543 38.3628C4.04682 38.3797 4.07405 38.3874 4.10112 38.3842C4.12819 38.381 4.15287 38.3672 4.16976 38.3458C8.26759 34.7993 13.4595 32.7693 18.8756 32.5961C19.6531 32.6211 20.4303 32.5382 21.185 32.3498C22.2171 31.9137 23.148 31.2689 23.919 30.4558C28.0624 26.8123 31.9936 24.6466 36.8248 26.5151C41.3503 21.776 49.8409 19.8566 56.3193 19.5169C61.2133 15.306 67.1697 12.5209 73.5383 11.4655C73.6509 11.4655 73.7589 11.4208 73.8385 11.3411C73.9181 11.2615 73.9629 11.1535 73.9629 11.0409C73.9629 10.9282 73.9181 10.8202 73.8385 10.7406C73.7589 10.661 73.6509 10.6162 73.5383 10.6162C58.4023 6.38106 43.0824 2.84232 27.5785 0Z" fill="#FAF1E1"/>
<path d="M27.171 0.586434C24.6918 11.1517 22.4672 21.7679 19.7248 32.2737C19.7216 32.423 19.7689 32.5689 19.859 32.6878C19.949 32.8068 20.0767 32.8919 20.2211 32.9292C20.3656 32.9666 20.5184 32.954 20.6549 32.8936C20.7913 32.8332 20.9034 32.7285 20.9729 32.5965C23.7069 22.0991 25.9314 11.4744 28.4107 0.909165C28.5975 0.0598667 27.3324 -0.262866 27.1456 0.560953L27.171 0.586434Z" fill="#113266"/>
<path d="M27.4689 1.32491C36.9445 7.6267 46.3691 14.0049 55.989 20.0774C56.7022 20.536 57.3645 19.398 56.6512 18.9478C47.0313 12.8669 37.6067 6.48864 28.1312 0.195343C27.4265 -0.271771 26.7642 0.866289 27.4689 1.32491Z" fill="#113266"/>
<path d="M27.1719 0.934509C31.5983 13.5494 36.0418 26.1756 40.5022 38.8132C44.8239 51.128 49.1796 63.4428 52.958 75.9275C55.0976 83.0107 57.0505 90.1617 58.6976 97.3723C58.8844 98.2216 60.1496 97.8479 59.9628 97.0241C54.1212 71.4602 44.6796 46.8221 36.0361 22.116C33.5172 14.9423 30.9983 7.76569 28.4794 0.586297C28.1993 -0.20355 26.9257 0.136169 27.2143 0.934509H27.1719Z" fill="#113266"/>
<path d="M26.916 65.3105C28.1217 68.2321 31.1613 71.3066 33.7085 73.1241C35.9416 74.6953 38.735 75.3238 40.9086 76.9714C46.8521 81.4727 45.7058 91.1377 50.5879 96.777C53.04 99.4005 56.3565 101.05 59.9276 101.423C61.9387 101.733 63.9796 101.802 66.0069 101.627C71.3476 100.871 75.5589 99.0786 77.9533 94.2376C79.5259 90.7882 80.7931 87.2074 81.7401 83.5365C82.309 81.5576 82.8354 79.3579 84.4996 78.1434C85.5257 77.5381 86.624 77.0644 87.7685 76.7336C92.3534 74.8821 96.5053 70.1006 98.1101 65.3105C75.4061 65.5653 49.5521 65.319 26.916 65.3105Z" fill="#7A7A7A"/>
<path d="M67.0942 167.635C67.1876 167.796 67.0942 167.703 67.0942 167.397C67.0942 167.091 67.0433 166.667 67.0263 166.301C66.9669 165.036 66.9414 163.753 66.9075 162.488C66.8141 158.352 66.7631 154.216 66.7122 150.071C66.5933 139.563 66.5197 129.051 66.4914 118.537C66.4914 114.239 66.4914 109.939 66.4914 105.636C66.4871 105.468 66.4186 105.309 66.3001 105.19C66.1816 105.072 66.0221 105.003 65.8546 104.999L61.5329 105.058C61.3661 105.063 61.2076 105.132 61.0905 105.25C60.9733 105.369 60.9067 105.529 60.9046 105.695C60.3866 113.169 60.3866 120.694 60.3102 128.185C60.2083 137.255 60.1744 146.317 60.1404 155.362C60.1404 158.488 60.1404 161.613 60.081 164.705C60.081 165.554 60.081 166.403 60.081 167.202C60.081 167.312 59.9876 167.686 60.081 167.779C60.081 167.728 60.2593 167.609 60.2168 167.473C60.3866 167.473 60.1744 167.337 60.2168 167.473C60.1574 167.473 60.03 167.575 59.9791 167.609C57.0413 169.197 53.8573 170.403 50.8007 171.771C49.4252 172.391 48.0158 172.994 46.6827 173.707C45.995 174.072 44.9846 175.083 46.3601 175.406C47.6166 175.587 48.8865 175.658 50.1554 175.618C51.5903 175.686 53.0253 175.737 54.4687 175.78C57.5423 175.873 60.6159 175.907 63.681 175.915C69.1914 175.915 74.7188 175.847 80.2123 175.414C81.1547 175.338 82.1057 175.253 83.0481 175.134C83.617 175.058 83.9821 174.285 83.3708 173.945C80.4089 172.501 77.3506 171.264 74.2179 170.242C72.6216 169.656 71.0254 169.079 69.4292 168.467C68.6124 168.242 67.834 167.895 67.1197 167.439C66.6188 166.802 65.7272 167.703 66.2282 168.34C66.7291 168.977 67.7905 169.189 68.4273 169.427C69.9981 170.055 71.5943 170.624 73.182 171.21C76.4528 172.262 79.6448 173.545 82.734 175.049L83.0481 173.86C78.2543 174.376 73.4355 174.626 68.6141 174.607C62.6112 174.692 56.5998 174.607 50.6054 174.37L48.7714 174.285C48.1116 174.182 47.4435 174.142 46.7761 174.166C46.3516 174.225 46.2327 173.852 46.6318 174.582L46.878 175.032L46.8101 175.126C46.8695 175.126 46.7252 175.126 46.8526 175.126C47.0405 175.047 47.2174 174.944 47.379 174.82C48.712 174.123 50.096 173.529 51.463 172.909C54.4941 171.55 57.6866 170.361 60.5989 168.764C60.8306 168.681 61.0316 168.529 61.1756 168.329C61.3195 168.129 61.3997 167.89 61.4055 167.643C61.4565 167.006 61.448 166.361 61.4564 165.732C61.4989 162.981 61.4989 160.229 61.5159 157.477C61.5583 148.721 61.5838 139.956 61.6602 131.2C61.7367 123.293 61.7706 115.377 62.1782 107.479C62.1782 106.876 62.2461 106.264 62.2885 105.661L61.6517 106.29L65.9735 106.239L65.3367 105.602C65.3367 114.571 65.3735 123.539 65.4471 132.508C65.5065 142.215 65.5659 151.931 65.7782 161.639C65.7782 163.15 65.8376 164.671 65.9056 166.182C65.8512 166.876 65.932 167.574 66.1433 168.238C66.3895 169.028 67.4848 168.382 67.0942 167.635Z" fill="#666666"/>
<path d="M105.76 44.69C104.617 50.5611 103.123 56.3581 101.285 62.0497C99.901 66.5934 98.0415 71.4599 94.2802 74.5853C93.2932 75.4059 92.1771 76.0574 90.9773 76.5132C89.7178 76.877 88.5106 77.4023 87.3858 78.0759C85.4329 79.4688 84.7197 81.8553 84.0914 84.021C83.2423 86.9596 82.3933 89.9067 81.3405 92.7773C80.415 95.2402 79.3876 97.8136 77.6215 99.818C74.5564 103.3 69.4875 104.914 64.945 105.05C59.5704 105.211 53.5591 104.081 49.6619 100.047C43.4722 93.5841 45.459 82.4583 38.0891 76.7935C35.6353 74.9081 32.5447 74.1777 29.9805 72.4706C27.4164 70.7635 25.7352 68.0967 24.4701 65.3619C21.5298 58.8423 19.7237 51.8685 19.1295 44.741L18.4927 45.3695H27.2041H48.2269H73.563H95.5538H102.771C103.9 45.3695 105.072 45.4629 106.167 45.3695H106.311C106.467 45.3515 106.61 45.2771 106.714 45.1604C106.817 45.0437 106.875 44.893 106.875 44.7367C106.875 44.5805 106.817 44.4298 106.714 44.3131C106.61 44.1964 106.467 44.122 106.311 44.104H97.6679H76.6451H51.309H29.3183H22.1012C20.972 44.104 19.8002 44.0106 18.705 44.104H18.5521C18.3847 44.1063 18.2249 44.1743 18.1073 44.2936C17.9897 44.4128 17.9238 44.5735 17.9238 44.741C18.5022 51.2364 20.0209 57.6133 22.4324 63.6718C23.3648 66.2152 24.6758 68.6032 26.3211 70.755C28.155 73.0056 30.5069 74.3051 33.1136 75.4771C35.7202 76.6491 37.9278 77.8127 39.5835 80.0463C40.838 81.8638 41.7926 83.8711 42.4108 85.9914C43.8373 90.3653 44.6354 95.1298 47.2675 99.0026C50.3496 103.538 55.5289 105.568 60.8101 106.12C65.6328 106.621 70.8035 106.026 75.0659 103.572C79.7357 100.863 81.7225 95.8687 83.3527 90.9683C84.3122 88.0976 84.966 85.1081 86.0103 82.2715C86.3715 81.1052 87.0402 80.0578 87.9462 79.2395C89.1349 78.2883 90.7226 78.0165 92.0981 77.4135C97.2604 75.1459 100.011 69.7698 101.777 64.674C102.873 61.5571 103.747 58.3383 104.647 55.1619C105.61 51.8067 106.403 48.4052 107.025 44.9703C107.127 44.2314 105.878 43.8917 105.76 44.69Z" fill="#666666"/>
<path d="M38.0304 77.0565C51.3692 73.0478 65.7184 73.6593 79.244 76.411C82.9883 77.1669 86.7157 77.8463 90.5535 77.4981C91.3601 77.4217 91.4026 76.1562 90.5535 76.2242C87.0576 76.4248 83.551 76.1158 80.144 75.3069C76.7477 74.6275 73.4024 74.0415 69.9552 73.6083C63.0024 72.7436 55.9722 72.698 49.0088 73.4724C45.1648 73.9195 41.3667 74.6981 37.6568 75.7995C37.5073 75.8552 37.3842 75.9649 37.3117 76.107C37.2393 76.2491 37.2227 76.4132 37.2654 76.5669C37.3081 76.7206 37.4069 76.8527 37.5423 76.9371C37.6776 77.0214 37.8397 77.0519 37.9964 77.0225L38.0304 77.0565Z" fill="#FAF1E1"/>
<path d="M77.9032 81.9062C78.1111 82.1151 78.2883 82.3524 78.4296 82.6111L78.523 82.781C78.5336 82.8136 78.5478 82.845 78.5654 82.8744C78.6166 82.9979 78.6564 83.1259 78.6843 83.2566C78.6883 83.3131 78.6883 83.3699 78.6843 83.4265C78.6928 83.5452 78.6928 83.6644 78.6843 83.7832C78.6843 83.9021 78.6843 83.6728 78.6843 83.8341C78.6884 83.8822 78.6884 83.9305 78.6843 83.9785C78.6869 84.0238 78.6869 84.0691 78.6843 84.1144C78.6419 84.2333 78.6843 84.1144 78.6843 84.1144C78.6413 84.2021 78.5931 84.2872 78.54 84.3692C78.472 84.4711 78.6079 84.3012 78.54 84.3692L78.4126 84.4966L78.3107 84.59C78.2258 84.6664 78.4041 84.539 78.3107 84.59L78.1749 84.6749C78.1324 84.6749 77.9966 84.7599 78.1154 84.6749C78.0109 84.7178 77.903 84.7519 77.7928 84.7768H77.4022C77.3428 84.7768 77.2239 84.7768 77.3428 84.7768L76.9862 84.6919L76.8418 84.641C76.7324 84.5869 76.6274 84.5244 76.5277 84.4541L76.4682 84.4032C76.4336 84.3643 76.3968 84.3274 76.3579 84.2927L76.239 84.1569L76.1456 83.9955C76.1038 83.879 76.0698 83.7598 76.0437 83.6388C76.0437 83.5199 76.0437 83.7237 76.0437 83.6388C76.0437 83.5539 76.0437 83.5199 76.0437 83.4519C76.0395 83.4011 76.0395 83.3499 76.0437 83.2991V83.2141C76.0437 83.2651 76.0437 83.3076 76.0437 83.2141C76.0601 83.1074 76.0857 83.0023 76.1202 82.8999C76.1391 82.8391 76.1617 82.7795 76.1881 82.7215C76.1371 82.8404 76.1881 82.7215 76.1881 82.6621C76.2407 82.5591 76.3003 82.4598 76.3664 82.3648C76.3154 82.4073 76.4343 82.2629 76.3664 82.3648L76.5107 82.212L76.6296 82.1015L76.6975 82.0591L76.8334 81.9742H76.9013H76.9692H77.0711L77.2324 81.9232C77.3004 81.9232 77.3683 81.9232 77.2324 81.9232H77.5805C77.5126 81.9232 77.7249 81.9232 77.5805 81.9232L77.9202 82.0166C77.9881 82.0166 77.8777 82.0166 77.8692 82.0166L77.9796 82.0676L78.1239 82.1525C78.1239 82.1525 78.2853 82.2884 78.1834 82.1525L78.3107 82.2629C78.3516 82.3151 78.397 82.3634 78.4466 82.4073C78.4711 82.432 78.4912 82.4607 78.506 82.4922C78.5793 82.6006 78.6445 82.7141 78.7013 82.8319C78.7128 82.878 78.7269 82.9234 78.7438 82.9678L78.8032 83.1547C78.8032 83.2396 78.8032 83.316 78.8032 83.3925C78.8032 83.2821 78.8032 83.5029 78.8032 83.5369C78.8095 83.7038 78.8786 83.8622 78.9967 83.9803C79.1148 84.0984 79.2731 84.1675 79.44 84.1738C79.6082 84.1716 79.7689 84.1038 79.8878 83.9848C80.0068 83.8659 80.0746 83.7051 80.0768 83.5369C80.0774 82.8873 79.859 82.2564 79.4568 81.7463C79.0547 81.2362 78.4924 80.8766 77.8607 80.7257C77.2013 80.6347 76.531 80.78 75.9684 81.136C75.4059 81.492 74.9874 82.0356 74.7871 82.6706C74.5651 83.2926 74.5742 83.9738 74.8127 84.5897C75.0512 85.2056 75.5032 85.7152 76.0862 86.0253C76.6497 86.3524 77.3125 86.4647 77.9523 86.3414C78.5921 86.2181 79.1657 85.8675 79.5674 85.3544C79.9524 84.8092 80.119 84.1395 80.0343 83.4774C79.9011 82.5993 79.4905 81.7868 78.8626 81.1588C78.7419 81.0463 78.5823 80.9851 78.4173 80.988C78.2523 80.9909 78.0949 81.0577 77.9782 81.1744C77.8615 81.2911 77.7947 81.4486 77.7918 81.6136C77.7889 81.7786 77.8501 81.9383 77.9626 82.0591L77.9032 81.9062Z" fill="#FAF1E1"/>
<path d="M74.6585 89.7031C74.2526 89.5141 73.7982 89.4551 73.3575 89.5341C72.9167 89.6132 72.5112 89.8264 72.1962 90.1448C71.8719 90.4461 71.6581 90.8475 71.5888 91.2848C71.5196 91.7221 71.5989 92.1699 71.8141 92.5568C72.0295 92.9077 72.3337 93.1954 72.6961 93.3908C73.0584 93.5862 73.4659 93.6823 73.8774 93.6694C74.3369 93.6445 74.773 93.458 75.1085 93.1428C75.3866 92.8653 75.5808 92.515 75.6689 92.1321C75.7829 91.6824 75.7524 91.2081 75.5817 90.7767C75.411 90.3452 75.1088 89.9785 74.7179 89.7286C74.5734 89.6549 74.4063 89.6391 74.2506 89.6845C74.0948 89.7298 73.9623 89.8329 73.8799 89.9727C73.7976 90.1125 73.7717 90.2784 73.8075 90.4367C73.8433 90.5949 73.9382 90.7335 74.0726 90.8242L74.1491 90.8752H74.2L74.1321 90.8157C74.183 90.8667 74.234 90.9091 74.2764 90.9601L74.3698 91.1384C74.4208 91.2913 74.3698 91.2064 74.3698 91.2404C74.3889 91.3043 74.4031 91.3696 74.4123 91.4357C74.4123 91.5461 74.4123 91.2828 74.4123 91.3848V91.4782C74.4204 91.5459 74.4204 91.6143 74.4123 91.682C74.4123 91.682 74.4123 91.7415 74.4123 91.7754C74.4123 91.5631 74.4123 91.682 74.4123 91.733C74.4034 91.8027 74.3863 91.8711 74.3613 91.9368C74.3104 92.0642 74.3613 91.9368 74.3613 91.9368C74.3338 91.9997 74.2997 92.0595 74.2594 92.1151C74.1915 92.2171 74.3443 92.0217 74.2594 92.1151C74.2353 92.1336 74.2151 92.1567 74.2 92.1831L74.1321 92.2425C74.0811 92.2935 74.2679 92.1491 74.183 92.2425L74.0217 92.336C73.9283 92.3869 74.166 92.285 74.0217 92.336H73.9198H73.8264C73.733 92.336 73.9877 92.336 73.8264 92.336H73.6141L73.4104 92.285C73.2575 92.2001 73.3509 92.285 73.4104 92.285H73.3255L73.1387 92.1746L73.0623 92.1236C73.0623 92.1236 73.1726 92.2171 73.1302 92.1746C73.0711 92.1325 73.0195 92.0808 72.9773 92.0217C72.9264 91.9708 73.0622 92.1406 73.0198 92.0812L72.9688 92.0047C72.9497 91.9792 72.9353 91.9505 72.9264 91.9198V91.8349C72.9225 91.7982 72.9225 91.7612 72.9264 91.7245C72.9264 91.7245 72.9264 91.8858 72.9264 91.8179V91.5886C72.9264 91.5206 72.9264 91.699 72.9264 91.682C72.9264 91.665 72.9264 91.5122 72.9773 91.4697V91.4272C72.9773 91.3678 72.9773 91.5121 72.9773 91.5037V91.4187C72.9773 91.3508 73.0623 91.2998 73.0962 91.2319C73.1302 91.1639 73.0028 91.3423 73.0453 91.2998L73.1047 91.2404L73.1811 91.1554L73.266 91.079L73.2151 91.1215H73.266C73.33 91.073 73.3982 91.0304 73.4698 90.9941C73.5462 90.9516 73.4698 90.9941 73.4104 90.9941L73.5292 90.9516L73.75 90.8922C73.5972 90.9431 73.6141 90.8922 73.6736 90.8922H73.8434C73.8434 90.8922 74.0217 90.8922 73.9028 90.8922H74.0217C73.8689 90.8242 74.0896 90.8922 74.0217 90.8922C74.1654 90.9571 74.328 90.9664 74.4781 90.9183C74.6283 90.8703 74.7552 90.7682 74.8345 90.6319C74.9137 90.4955 74.9396 90.3347 74.9071 90.1804C74.8746 90.0261 74.786 89.8893 74.6585 89.7966V89.7031Z" fill="#FAF1E1"/>
<path d="M67.2125 92.0464H67.2635C67.3144 92.0464 67.1531 91.9445 67.1956 91.9954C67.2231 92.0187 67.2487 92.0443 67.272 92.0718C67.272 92.0718 67.272 92.0718 67.3144 92.1143C67.3569 92.1568 67.221 91.9784 67.272 92.0549L67.3314 92.1483C67.3467 92.1831 67.3637 92.2171 67.3824 92.2502C67.3824 92.2502 67.3229 92.0973 67.3824 92.1738V92.2332C67.4074 92.3076 67.4245 92.3845 67.4333 92.4625V92.2927C67.4589 92.4302 67.4589 92.5713 67.4333 92.7088V92.539C67.4381 92.5955 67.4381 92.6523 67.4333 92.7088C67.4333 92.7768 67.3229 92.9636 67.4333 92.7513C67.4141 92.7982 67.3914 92.8437 67.3654 92.8872L67.3144 92.9721C67.255 93.0485 67.4248 92.8447 67.3144 92.9211L67.2041 93.0316L67.1361 93.074L67.0597 93.1165C67.0088 93.1165 67.2295 93.0485 67.0597 93.1165H66.8814H67.0512C66.9386 93.1335 66.8242 93.1335 66.7116 93.1165H66.8814L66.6776 93.0655H66.6012C66.4993 93.0655 66.771 93.142 66.6012 93.0655L66.4399 92.9721L66.355 92.9127C66.4314 92.9721 66.5248 93.0231 66.355 92.9127L66.2191 92.7768C66.1512 92.6918 66.3125 92.9127 66.2191 92.7768C66.2022 92.7465 66.1823 92.7181 66.1597 92.6918C66.1525 92.658 66.138 92.6261 66.1173 92.5984C66.1173 92.5984 66.1852 92.7683 66.1173 92.6494C66.0923 92.5837 66.0752 92.5153 66.0663 92.4455V92.6154C66.0536 92.5252 66.0536 92.4338 66.0663 92.3436V92.5135C66.0714 92.4467 66.0857 92.381 66.1088 92.3181C66.1088 92.2587 66.1852 92.1823 66.1088 92.3181C66.1245 92.2878 66.1387 92.2566 66.1512 92.2247C66.1684 92.2041 66.1827 92.1812 66.1937 92.1568C66.1937 92.1058 66.321 92.0294 66.1937 92.1568C66.2361 92.1143 66.2786 92.0634 66.3295 92.0209L66.3974 91.9529L66.5588 91.8595C66.4399 91.8595 66.7031 91.7916 66.5588 91.8595H66.6352L66.8474 91.8171H66.6861C66.7935 91.8086 66.9014 91.8086 67.0088 91.8171H66.8389H66.9833H67.0427C67.1446 91.8171 66.8984 91.7491 67.0003 91.8171C67.0731 91.8583 67.1533 91.8848 67.2363 91.895C67.3194 91.9052 67.4036 91.8989 67.4842 91.8765C67.6054 91.8452 67.7144 91.7784 67.7974 91.6846C67.8803 91.5909 67.9334 91.4746 67.9498 91.3505C67.9662 91.2264 67.9452 91.1003 67.8895 90.9882C67.8338 90.8761 67.7459 90.7832 67.6371 90.7215C67.2602 90.5373 66.8312 90.4893 66.4229 90.5856C66.0653 90.6701 65.7369 90.849 65.472 91.1036C65.1844 91.3671 64.9931 91.7192 64.9285 92.1039C64.8639 92.4886 64.9296 92.8839 65.1153 93.2269C65.2964 93.5407 65.5579 93.8006 65.8728 93.9797C66.1877 94.1589 66.5447 94.2508 66.9069 94.246C67.2824 94.2289 67.6425 94.0919 67.9344 93.8549C68.2263 93.618 68.4346 93.2937 68.5286 92.9296C68.6403 92.5377 68.6267 92.1207 68.4897 91.7369C68.3527 91.3531 68.0991 91.0218 67.7644 90.7894C67.6924 90.737 67.6101 90.7003 67.523 90.6816C67.4358 90.663 67.3458 90.6629 67.2586 90.6813C67.1714 90.6996 67.089 90.7361 67.0168 90.7883C66.9446 90.8406 66.8842 90.9073 66.8394 90.9844C66.7946 91.0614 66.7665 91.147 66.7568 91.2357C66.7472 91.3243 66.7562 91.4139 66.7834 91.4988C66.8106 91.5837 66.8553 91.6619 66.9146 91.7284C66.9738 91.795 67.0464 91.8483 67.1276 91.885L67.2125 92.0464Z" fill="#FAF1E1"/>
</g>
<defs>
<filter id="filter0_d_183_4341" x="0" y="0" width="111" height="184" filterUnits="userSpaceOnUse" color-interpolation-filters="sRGB">
<feFlood flood-opacity="0" result="BackgroundImageFix"/>
<feColorMatrix in="SourceAlpha" type="matrix" values="0 0 0 0 0 0 0 0 0 0 0 0 0 0 0 0 0 0 127 0" result="hardAlpha"/>
<feOffset dy="4"/>
<feGaussianBlur stdDeviation="2"/>
<feComposite in2="hardAlpha" operator="out"/>
<feColorMatrix type="matrix" values="0 0 0 0 0 0 0 0 0 0 0 0 0 0 0 0 0 0 0.25 0"/>
<feBlend mode="normal" in2="BackgroundImageFix" result="effect1_dropShadow_183_4341"/>
<feBlend mode="normal" in="SourceGraphic" in2="effect1_dropShadow_183_4341" result="shape"/>
</filter>
<clipPath id="clip0_183_4341">
<rect width="103" height="176" fill="white" transform="translate(4)"/>
</clipPath>
</defs>
</svg>
