<svg width="219" height="326" viewBox="0 0 219 326" fill="none" xmlns="http://www.w3.org/2000/svg">
<g clip-path="url(#clip0_205_2124)">
<path d="M218.897 121.025C218.809 119.98 218.72 118.934 218.544 117.903C218.293 116.43 218.013 114.956 217.674 113.483C216.938 110.375 216.113 107.297 215.229 104.233C214.345 101.169 213.491 98.3405 212.518 95.3944C211.546 92.4483 210.603 89.679 209.572 86.8508C208.408 83.7132 207.068 80.6345 205.653 77.6C204.3 74.8373 202.744 72.1785 200.998 69.6456C199.26 67.0235 197.477 64.431 195.68 61.8384L195.032 60.8662C195.032 58.1853 195.032 55.5043 194.811 52.8381C194.708 51.1736 194.546 49.509 194.281 47.8739C194.016 46.2388 193.809 44.9278 193.456 43.4548C192.719 40.5087 191.85 37.5626 190.848 34.6165C190.377 33.1435 189.788 31.8324 189.242 30.4478C188.565 28.7832 187.858 27.1187 187.151 25.4689C185.928 22.5228 184.72 19.6504 183.394 16.7927C182.13 14.083 180.606 11.5028 178.842 9.0886C178.238 8.26369 177.605 7.45353 176.956 6.65808C176.521 6.10555 176.054 5.57926 175.557 5.08193C174.627 4.17845 173.643 3.33234 172.611 2.54829C171.194 1.4606 169.537 0.728163 167.779 0.412355C167.204 0.309242 166.629 0.235592 166.04 0.16194C165.687 0.16194 165.318 0.0441094 164.965 0.0146484H163.02H162.416C160.792 0.05088 159.173 0.198536 157.57 0.456567C156.789 0.589141 156.096 0.721697 155.257 0.898463C154.417 1.07523 153.784 1.28146 153.018 1.50242C152.166 1.7829 151.331 2.10741 150.513 2.47463C149.762 2.7987 149.04 3.10804 148.274 3.46157C145.464 4.76234 142.738 6.23829 140.113 7.88071C138.73 8.79076 137.398 9.7742 136.12 10.8268C135.457 11.3718 134.795 11.9021 134.146 12.4619C133.486 13.0467 132.893 13.7039 132.379 14.421C131.898 15.0627 131.488 15.754 131.156 16.4833L130.655 15.9088C130.062 15.2969 129.411 14.7443 128.71 14.259C128.046 13.8017 127.335 13.4165 126.589 13.11C125.792 12.7543 124.97 12.4588 124.129 12.2262C121.002 11.3483 117.793 10.7906 114.553 10.5616C113.242 10.4733 111.931 10.3996 110.62 10.3996H110.281C108.749 10.4264 107.22 10.5346 105.7 10.7237C104.776 10.8295 103.861 10.9969 102.96 11.2245C102.253 11.4209 101.559 11.662 100.882 11.9463C99.29 12.5203 97.7436 13.2147 96.2566 14.0233C94.6621 15.0142 93.1364 16.1116 91.6898 17.3082C89.2933 19.4299 87.6409 22.2645 86.9757 25.3952C86.5547 27.2191 86.2594 29.0696 86.0918 30.9339C86.0034 31.7441 85.9592 32.5837 85.9298 33.4086C85.9224 33.5165 85.9224 33.6248 85.9298 33.7327C84.1401 33.2137 82.3128 32.8345 80.4643 32.5984C77.8721 32.2377 75.2591 32.0458 72.6419 32.024H71.5075C68.3956 32.1586 65.2956 32.4931 62.2266 33.0256C60.9146 33.2518 59.6467 33.6844 58.4701 34.3072C57.44 34.8675 56.4848 35.5554 55.6269 36.3547C54.7426 37.1609 53.9962 38.1063 53.4171 39.1535C52.7691 40.378 52.2365 41.6602 51.8261 42.9834C51.5752 43.7267 51.3686 44.4842 51.2074 45.2519C50.8531 46.8942 50.6022 48.5571 50.4561 50.2308C50.3088 51.7775 50.2204 53.3389 50.1614 54.9004C50.1614 55.2244 50.1614 55.5485 50.1614 55.8578L49.2039 54.8415C48.1571 53.6605 46.7992 52.7978 45.2853 52.352C44.8373 52.24 44.3769 52.1856 43.9152 52.19C42.9813 52.2213 42.0531 52.3496 41.1457 52.573C40.3944 52.7497 39.6725 52.9707 38.9065 53.1769C37.4333 53.5746 36.0928 53.9723 34.6933 54.4143C31.7469 55.3275 28.9332 56.3881 26.1195 57.5666C23.1995 58.6772 20.4362 60.1627 17.8992 61.9857C16.7623 62.8065 15.6977 63.7232 14.7172 64.7256C13.8968 65.6491 13.1482 66.634 12.478 67.6717C12.0944 68.2367 11.7498 68.8273 11.4468 69.4393C11.0078 70.3049 10.6192 71.1951 10.283 72.1056C9.76306 73.5489 9.33982 75.0252 9.01607 76.5247C8.68722 78.1588 8.4609 79.8118 8.33842 81.4741C8.22057 82.9472 8.13218 84.5233 8.11745 86.0553C8.10271 87.5873 8.11745 89.0898 8.11745 90.5923C8.11745 92.0948 8.11745 93.671 8.11745 95.2029C8.11745 96.7349 8.11745 98.0017 8.11745 99.4011C8.11745 99.7399 8.11745 100.079 8.01433 100.432C7.86821 101.319 7.64642 102.191 7.3514 103.04C7.05939 103.648 6.71432 104.23 6.32019 104.778C5.45102 105.809 4.53766 106.811 3.6685 107.842C3.00667 108.59 2.39637 109.382 1.84178 110.213C1.54557 110.739 1.29898 111.291 1.1052 111.863C0.957884 112.231 0.825301 112.614 0.692717 112.997C0.383583 114.084 0.190987 115.199 0.118185 116.326C0.0297834 118.219 0.148336 120.116 0.471741 121.983C0.663252 123.456 0.840029 124.929 0.987345 126.402C1.28198 129.422 1.56188 132.442 1.665 135.476C1.76812 138.511 1.81232 141.899 1.75339 145.124C1.75339 148.071 1.47349 151.017 1.31144 153.963C1.14939 156.909 1.01682 160.208 0.972621 163.346C0.928426 166.484 0.972621 169.769 0.972621 172.98C0.972621 175.926 0.972621 178.946 0.972621 181.921C1.09894 188.253 1.7742 194.561 2.99084 200.776C3.29293 202.23 3.70664 203.658 4.2283 205.048C4.77337 206.521 5.39209 207.994 5.98136 209.467C7.0774 212.257 7.93491 215.135 8.54466 218.07C9.81158 224.153 11.2111 230.208 12.5222 236.291C13.8333 242.375 15.0413 248.4 16.1904 254.483C17.1921 259.816 18.2528 265.148 19.1367 270.51C19.8805 276.095 20.2055 281.728 20.109 287.362C20.109 290.396 19.9469 293.431 19.7407 296.451C19.5344 299.47 19.1661 302.048 18.7979 304.847C18.6358 306.055 18.459 307.277 18.297 308.485C18.0907 309.958 17.9582 311.431 17.7961 312.905C17.6677 313.683 17.4654 314.448 17.1921 315.188C17.0327 315.573 16.895 315.966 16.7796 316.366C16.5696 317.06 16.5135 317.791 16.6153 318.508C16.7171 319.226 16.9743 319.912 17.3689 320.52C17.6786 321.051 18.12 321.492 18.6505 321.802C19.4936 322.287 20.4945 322.42 21.4348 322.17C22.036 322.002 22.5839 321.683 23.0258 321.242C23.5246 320.734 23.8584 320.087 23.9834 319.386C24.2983 318.704 24.5117 317.979 24.6168 317.235C24.7494 316.263 24.8673 315.291 24.9262 314.289C25.0293 312.728 25.1324 311.181 25.265 309.62C25.5155 306.674 25.8838 303.727 26.1931 300.693C26.8018 294.575 27.0134 288.425 26.8266 282.28C26.8266 279.334 26.4878 276.211 26.1784 273.206C25.8396 269.847 25.265 266.518 24.7052 263.204C23.5267 257.164 22.4071 251.11 21.2138 245.071L20.8603 243.347C25.3789 244.937 30.1392 245.729 34.929 245.689C36.1222 245.689 37.3155 245.689 38.5087 245.689C39.3632 245.689 40.1881 245.689 41.0426 245.689C41.897 245.689 42.8398 245.689 43.7385 245.542C44.6371 245.395 45.7714 245.351 46.7879 245.218C48.0254 245.071 49.2628 244.909 50.4855 244.717C51.5315 244.58 52.5591 244.328 53.5497 243.966C54.0896 243.801 54.5507 243.445 54.8461 242.964C54.9911 242.715 55.0853 242.44 55.1233 242.154C55.1612 241.868 55.1421 241.578 55.0671 241.3C54.8965 240.759 54.5246 240.305 54.0283 240.03C53.532 239.756 52.9492 239.683 52.4006 239.827C50.9275 240.298 49.3365 240.696 47.7749 241.02C47.0236 241.167 46.3018 241.359 45.521 241.476L43.0755 241.874L40.3797 242.125C39.702 242.125 39.0244 242.198 38.332 242.213H35.2972C34.1924 242.213 33.058 242.213 31.9384 242.125C30.8188 242.036 29.3457 241.948 28.0493 241.786C25.9698 241.539 23.9273 241.044 21.9652 240.313C21.3464 240.048 20.7424 239.768 20.1532 239.444L19.9469 239.355C19.7112 238.236 19.4755 237.116 19.2251 235.997L18.8715 234.303C19.0621 234.41 19.2649 234.494 19.4755 234.553C20.9487 234.877 22.4218 235.231 23.895 235.511L28.0493 236.306L30.5831 236.792C31.5407 236.969 32.5424 237.057 33.5295 237.205C35.8129 237.529 38.0963 237.823 40.3944 238.118L43.1639 238.398C43.5764 238.398 44.0184 238.398 44.4456 238.486H45.2264H45.5946L46.6406 238.354C47.0531 238.206 47.4655 238.03 47.8633 237.853C48.4352 237.537 48.8589 237.007 49.0418 236.38L49.1302 235.702C49.1297 235.246 49.0077 234.799 48.7767 234.406C48.5763 233.946 48.28 233.534 47.9075 233.198C47.5117 232.874 47.0698 232.611 46.5964 232.417C45.4503 231.905 44.2625 231.491 43.0461 231.18L40.0998 230.34C38.5087 229.884 36.903 229.442 35.2972 229.029C35.1508 229.007 35.0018 229.007 34.8553 229.029C34.4502 229.02 34.055 229.155 33.739 229.408C33.423 229.662 33.2064 230.018 33.1273 230.416C33.0482 230.813 33.1116 231.226 33.3064 231.581C33.5011 231.936 33.8148 232.211 34.1924 232.358L31.7322 231.99L27.1654 231.136L24.4548 230.635C23.1879 230.399 21.9357 230.09 20.6835 229.81C20.0369 229.641 19.3497 229.73 18.7684 230.06C18.4708 230.24 18.2147 230.481 18.0171 230.767L17.2216 227.129C16.5734 224.183 15.9105 221.325 15.3065 218.409C14.9676 216.803 14.6141 215.212 14.2311 213.621C13.8521 212.095 13.3898 210.59 12.8463 209.114C11.874 206.359 10.6071 203.722 9.67899 200.953C9.28059 199.661 8.95598 198.348 8.70671 197.02C8.42681 195.547 8.17637 194.074 7.94066 192.674C7.60184 189.979 7.33666 187.283 7.18935 184.573C7.02239 181.558 6.93891 178.528 6.93891 175.484C6.93891 169.165 6.82106 162.831 6.93891 156.496C7.0273 153.55 7.21881 150.604 7.3072 147.732C7.3072 146.008 7.39559 144.285 7.41032 142.547C7.41032 141.074 7.41032 139.512 7.3072 138.01C7.21881 135.064 7.02731 132.117 6.76214 129.171C6.49697 126.225 6.06975 123.088 5.73092 120.053C5.60579 118.839 5.60579 117.615 5.73092 116.4C5.87519 115.541 6.10213 114.697 6.40857 113.881C6.61101 113.44 6.85781 113.02 7.14515 112.629C7.95539 111.657 8.78036 110.685 9.57587 109.683C10.1651 108.961 10.7397 108.21 11.2553 107.444C11.7219 106.705 12.1118 105.92 12.4191 105.102C12.6567 104.49 12.844 103.859 12.9789 103.216C13.4644 100.624 13.6572 97.9855 13.5534 95.3502C13.5534 92.6988 13.5534 90.062 13.5534 87.4105C13.5855 85.0216 13.7527 82.6363 14.0543 80.2662C14.2073 79.2386 14.4188 78.2206 14.6877 77.217C14.9971 76.1712 15.3654 75.14 15.7484 74.1089C16.0578 73.4608 16.3671 72.8421 16.706 72.2087C16.9634 71.7686 17.2488 71.3454 17.5604 70.9418C17.855 70.5883 18.1349 70.2201 18.4443 69.8665C19.0479 69.1648 19.7135 68.519 20.4331 67.9368C22.4769 66.4219 24.651 65.091 26.9297 63.9596C29.2131 62.8254 31.5407 61.7648 33.883 60.7484C35.4888 60.1002 37.1092 59.4815 38.7297 58.8776L41.2046 57.9643C42.1339 57.5987 43.0892 57.3033 44.0626 57.0805H44.5192C44.8072 57.2194 45.0831 57.382 45.3442 57.5666C47.2298 59.2329 48.9335 61.0945 50.4266 63.12L50.515 63.2378C50.515 63.5914 50.6181 63.9449 50.677 64.2984C50.8732 65.7013 51.1437 67.0929 51.4873 68.4671C51.8556 69.9402 52.2386 71.4132 52.5922 72.8863C53.2993 75.8324 53.9033 78.7785 54.5073 81.7982C55.1113 84.8179 55.7153 87.9703 56.2751 91.0784C56.7907 93.9214 57.4094 96.7644 58.0134 99.5926C58.6174 102.421 59.354 105.485 60.1937 108.431C60.8811 110.857 61.5097 113.312 62.0793 115.796C61.8476 116.022 61.6492 116.28 61.49 116.562C61.0347 117.376 60.7068 118.256 60.5178 119.169C60.5178 119.656 60.3852 120.142 60.2968 120.642C60.1157 121.796 59.8448 122.934 59.4865 124.045L59.2066 124.546L58.8825 124.841C58.4577 125.129 58.0149 125.39 57.5567 125.621C56.4154 126.019 55.2425 126.32 54.0506 126.52C51.0558 126.753 48.0452 126.684 45.0643 126.314C43.7683 126.085 42.485 125.79 41.2194 125.43C39.9377 125.076 38.6855 124.59 37.4481 124.119C35.9336 123.46 34.492 122.646 33.1464 121.688C32.5693 121.207 32.0368 120.674 31.5554 120.097C30.0095 117.801 28.6921 115.359 27.6221 112.806C26.3994 109.447 25.265 106.059 24.0865 102.671L19.4313 89.4139C19.2102 88.6829 18.7278 88.0589 18.076 87.6609C17.6298 87.3962 17.1217 87.2539 16.6029 87.2485C16.3432 87.2517 16.0854 87.2913 15.8368 87.3663C15.0857 87.5731 14.4471 88.0688 14.0606 88.7451C13.6741 89.4214 13.5712 90.2233 13.7744 90.9753C16.1314 97.6335 18.4443 104.297 20.713 110.965C21.2138 112.438 21.7147 113.911 22.3187 115.384C22.9909 116.975 23.7482 118.529 24.5874 120.039C24.9262 120.672 25.265 121.305 25.6186 121.939C26.5184 123.556 27.6667 125.023 29.0216 126.284C30.436 127.503 31.9711 128.574 33.6031 129.481C34.2366 129.849 34.9142 130.144 35.5919 130.453C36.2695 130.762 37.3155 131.204 38.1994 131.543C39.63 132.153 41.1081 132.646 42.6189 133.016C44.336 133.385 46.072 133.661 47.8191 133.841C49.2859 134.014 50.7616 134.103 52.2386 134.106C54.0437 134.074 55.8427 133.887 57.6156 133.546C59.239 133.2 60.8093 132.641 62.2855 131.882C62.8315 131.595 63.3537 131.265 63.8471 130.895C64.2706 130.588 64.6696 130.248 65.0404 129.878C65.2478 130.278 65.4841 130.662 65.7475 131.027C66.2336 131.69 66.7197 132.353 67.2206 133.031C65.7475 134.062 63.9797 134.857 62.3445 135.726C61.2838 136.271 60.2379 136.831 59.1919 137.391C57.2915 138.393 55.3764 139.409 53.535 140.543C49.0271 143.298 44.5782 146.141 40.0408 148.837C39.6582 149.056 39.3229 149.35 39.0542 149.699C38.7855 150.049 38.5887 150.449 38.4751 150.875C38.3616 151.302 38.3335 151.746 38.3925 152.183C38.4515 152.621 38.5965 153.042 38.819 153.423C39.0416 153.804 39.3373 154.137 39.6892 154.403C40.0411 154.669 40.4422 154.863 40.8693 154.973C41.2965 155.084 41.7413 155.109 42.1781 155.046C42.6149 154.984 43.035 154.836 43.4144 154.611C47.9517 151.93 52.4154 149.102 56.9822 146.436C58.8531 145.345 60.7977 144.403 62.7275 143.489L65.9095 141.884L67.8983 140.853C68.9684 140.288 69.9591 139.585 70.8446 138.761C71.6693 140.129 72.6588 141.39 73.7909 142.517C76.0449 144.668 79.2122 145.242 82.1879 145.625C83.6324 145.76 85.0841 145.8 86.5338 145.743C88.0069 145.743 89.4801 145.611 90.8649 145.463C92.488 145.334 94.0929 145.032 95.6526 144.565C98.2089 143.695 100.539 142.265 102.473 140.381C103.362 139.467 104.175 138.481 104.904 137.435C105.361 136.788 105.779 136.114 106.156 135.417C106.499 134.818 106.804 134.198 107.07 133.561C107.423 132.751 107.762 131.926 108.042 131.086C108.219 130.512 108.351 129.923 108.499 129.348C108.821 127.975 109.057 126.582 109.206 125.179C110.193 125.504 111.194 125.828 112.152 126.122C112.741 126.299 113.331 126.461 113.935 126.608C114.774 126.807 115.639 126.866 116.498 126.785L115.702 127.404C114.824 128.301 113.873 129.124 112.859 129.864C111.747 130.716 110.68 131.625 109.662 132.589C108.996 133.257 108.623 134.162 108.624 135.106C108.626 136.049 109.002 136.953 109.67 137.619C110.338 138.285 111.243 138.659 112.187 138.657C113.13 138.656 114.034 138.28 114.701 137.612C116.277 136.139 117.824 134.592 119.282 132.987C120.122 132.073 120.844 131.042 121.595 130.04C122.346 129.039 122.832 128.405 123.451 127.58C124.718 125.975 125.97 124.355 127.296 122.793C128.076 121.873 128.907 120.998 129.786 120.171C130.488 119.508 131.225 118.883 131.995 118.3C132.835 117.667 133.675 117.033 134.544 116.43C135.417 115.858 136.339 115.365 137.299 114.956C137.821 114.762 138.358 114.609 138.905 114.5C139.395 114.461 139.887 114.461 140.378 114.5C140.584 114.5 140.776 114.588 140.982 114.632H141.159C142.19 114.883 143.221 115.177 144.223 115.457C145.696 115.885 147.169 116.341 148.642 116.798C148.872 116.863 149.11 116.893 149.349 116.886L150.395 118.212C151.22 119.287 152.016 120.363 152.811 121.467C153.607 122.572 154.564 123.957 155.463 125.194C156.362 126.432 157.466 127.772 158.498 129.039C158.925 129.569 159.352 130.099 159.809 130.6C160.265 131.101 160.324 131.189 160.604 131.469C160.941 131.793 161.295 132.098 161.665 132.383C161.922 132.641 162.242 132.829 162.593 132.928C163.144 133.076 163.731 133.001 164.228 132.721C164.712 132.439 165.066 131.979 165.215 131.44C165.293 131.167 165.313 130.881 165.275 130.599C165.237 130.318 165.142 130.047 164.994 129.805C164.434 129.054 163.875 128.332 163.271 127.61L161.798 125.975C160.884 124.914 160 123.839 159.131 122.749C157.894 121.129 156.715 119.479 155.448 117.873C154.815 117.063 154.167 116.267 153.504 115.472C152.841 114.677 152.266 114.073 151.662 113.351L151.353 112.879C151.559 111.981 151.898 111.112 152.193 110.228L153.253 106.958C154.726 107.577 156.111 108.166 157.584 108.652C158.512 108.961 159.426 109.256 160.383 109.477C161.341 109.698 162.328 109.874 163.33 110.022C165.965 110.434 168.64 110.538 171.299 110.331C171.852 110.312 172.378 110.086 172.773 109.698C173.168 109.308 173.396 108.78 173.406 108.225C173.402 107.652 173.173 107.103 172.768 106.698C172.362 106.293 171.814 106.063 171.24 106.059C169.767 106.059 168.294 106.133 166.821 106.059C165.348 105.986 164.287 105.927 163.02 105.794C162.097 105.647 161.169 105.47 160.236 105.264C159.205 105.043 158.188 104.719 157.172 104.395C155.242 103.776 153.342 103.025 151.456 102.259C150.822 101.979 150.218 101.684 149.6 101.375C148.988 101.033 148.397 100.655 147.832 100.241C147.302 99.8136 146.771 99.3864 146.256 98.9445C147.331 98.5615 148.377 98.0901 149.408 97.604C150.498 97.0909 151.547 96.495 152.546 95.8216C154.857 94.2959 156.974 92.4954 158.851 90.4597C159.882 89.296 160.811 88.0734 161.798 86.8213C162.958 85.1444 163.912 83.3343 164.641 81.4299C165.128 80.2688 165.541 79.0782 165.878 77.8652C166.288 76.386 166.515 74.8624 166.556 73.3282C166.547 72.5186 166.247 71.7393 165.711 71.1325C165.175 70.5256 164.439 70.1317 163.637 70.0227C162.834 69.9138 162.02 70.0969 161.341 70.5388C160.663 70.9807 160.166 71.6518 159.941 72.4296C159.588 73.9027 159.323 75.2726 158.94 76.6867C158.637 77.7709 158.263 78.8338 157.82 79.8685C157.447 80.6959 157.029 81.5023 156.568 82.2843C156.2 82.8883 155.743 83.4775 155.316 84.052C154.586 84.9705 153.804 85.8459 152.973 86.674C152.03 87.5726 151.073 88.4269 150.027 89.2666C149.261 89.7969 148.554 90.2977 147.729 90.7396C146.852 91.2949 145.936 91.7872 144.989 92.2126C143.637 92.7409 142.235 93.1308 140.805 93.3763C138.992 93.5456 137.167 93.5456 135.354 93.3763C134.529 93.2438 133.704 93.0817 132.894 92.8755C132.03 92.6251 131.179 92.3301 130.346 91.9917C129.241 91.4909 128.151 90.9458 127.06 90.4155C125.97 89.8852 124.6 89.2518 123.378 88.6773C120.991 87.5578 118.59 86.4972 116.203 85.4219C114.73 84.7738 113.345 84.1256 111.902 83.5217C110.458 82.9177 109.368 82.52 108.071 82.0486C106.775 81.5773 105.464 81.1501 104.153 80.7082C102.842 80.2662 101.928 79.9127 100.838 79.4561C99.7511 78.9728 98.7106 78.391 97.7298 77.7179C97.3201 77.3524 96.9315 76.9638 96.566 76.5542C96.2457 76.0564 95.9649 75.5344 95.7263 74.9927C94.2125 70.9017 93.1697 66.6516 92.6179 62.3245C92.5219 61.5624 92.4777 60.7947 92.4853 60.0266C92.4853 59.29 92.4853 58.5535 92.6326 57.8023C92.819 56.4576 93.1398 55.1351 93.5902 53.8545C93.7188 53.5483 93.8715 53.2527 94.0469 52.9707C94.0469 54.3259 93.9143 55.6958 93.8848 57.0658C93.7889 58.3876 93.8782 59.7164 94.15 61.0135C94.4053 61.8866 94.9189 62.662 95.6232 63.2378C96.0493 63.5962 96.5024 63.9212 96.9785 64.21C97.5549 64.509 98.1504 64.7698 98.761 64.9907C101.707 66.1692 104.654 66.9646 107.703 67.8485C109.176 68.2757 110.649 68.7323 112.123 69.0269C112.859 69.1889 113.596 69.3068 114.347 69.4246C115.398 69.5989 116.463 69.6778 117.529 69.6603C118.089 69.6603 118.649 69.6603 119.194 69.5719C120.122 69.5719 121.035 69.3804 121.949 69.2479C122.862 69.1153 123.422 69.0564 124.232 68.8943C125.692 68.578 127.133 68.1796 128.548 67.7011C129.432 67.4213 130.301 67.0677 131.156 66.6995C131.723 66.4652 132.274 66.1946 132.806 65.8893C134.103 65.136 135.275 64.187 136.282 63.0758C136.888 62.3562 137.439 61.5931 137.932 60.7926C138.439 59.9137 138.868 58.9919 139.214 58.038C139.79 56.5455 140.243 55.0084 140.569 53.442C140.731 52.7792 140.864 52.1163 140.967 51.4387C141.07 50.7611 141.144 50.2308 141.188 49.6121C141.225 49.1759 141.225 48.7374 141.188 48.3011C141.194 47.6145 140.984 46.9434 140.587 46.3829C140.191 45.8224 139.628 45.4009 138.978 45.1782L139.7 44.8984C141.173 44.2797 142.646 43.6021 144.12 42.9687C145.239 42.512 146.359 42.0554 147.493 41.6282C148.627 41.201 150.145 40.7591 151.485 40.3908C154.093 39.6985 156.774 39.2271 159.426 38.7852C160.563 38.6189 161.709 38.5254 162.858 38.5053C163.668 38.5053 164.464 38.5053 165.274 38.5053C165.819 38.5053 166.364 38.5937 166.909 38.6527C167.99 38.819 169.054 39.0752 170.091 39.4187C171.127 39.9026 172.113 40.4846 173.038 41.1568C173.701 41.7166 174.334 42.3058 174.953 42.9245C175.547 43.5687 176.103 44.2475 176.618 44.9573L176.234 44.4712C177.163 45.7086 178.105 46.9607 178.975 48.2569C179.844 49.5532 180.551 50.7022 181.346 51.9101C183.011 54.4585 184.646 57.0068 186.164 59.6436C186.944 60.9841 187.637 62.3392 188.462 63.665C189.287 64.9907 189.935 66.0513 190.73 67.215C192.483 69.8371 194.251 72.4591 196.004 75.0958C197.408 77.1654 198.683 79.3202 199.82 81.5478C200.88 83.6395 201.867 85.7607 202.766 87.9114C204.77 93.0081 206.567 98.2227 208.173 103.452C209.845 108.68 211.183 114.008 212.18 119.405C212.297 120.539 212.386 121.688 212.459 122.837C212.501 123.914 212.462 124.992 212.342 126.063C212.044 127.462 211.655 128.84 211.178 130.188C210.647 131.376 210.046 132.531 209.381 133.649C208.57 135.034 207.731 136.375 206.847 137.7C205.226 140.175 203.503 142.576 201.823 144.992C198.244 150.133 194.723 155.303 191.217 160.459C188.874 163.921 186.473 167.338 184.057 170.77C181.641 174.202 179.637 177.193 177.236 180.316C175.306 182.658 173.318 184.941 171.167 187.077C169.016 189.213 166.659 191.275 164.508 193.485C162.357 195.694 160.089 198.243 157.982 200.732C155.875 203.221 153.887 205.947 151.942 208.598C148.35 213.539 145.294 218.847 142.823 224.433C141.378 227.43 140.204 230.551 139.317 233.758C138.934 235.231 138.595 236.836 138.36 238.398C138.124 239.959 137.888 241.948 137.77 243.745C137.616 246.797 137.616 249.855 137.77 252.907C137.873 255.971 138.094 259.035 138.374 262.084C138.654 265.134 138.89 268.345 139.111 271.482C139.332 274.62 139.612 277.375 139.803 280.394C139.995 283.414 140.127 286.508 140.348 289.557C140.569 292.606 140.79 295.876 140.997 299.043C141.203 302.21 141.424 305.171 141.777 308.22C142.131 311.269 142.602 314.51 143.044 317.648C143.383 320.093 143.737 322.553 144.105 325.013C144.153 325.212 144.242 325.398 144.367 325.56C144.491 325.723 144.648 325.857 144.827 325.956C145.005 326.067 145.205 326.14 145.413 326.168C145.622 326.195 145.833 326.178 146.035 326.118C146.232 326.065 146.416 325.975 146.578 325.851C146.74 325.727 146.876 325.572 146.978 325.396C147.185 325.024 147.243 324.587 147.14 324.173L146.639 320.373C146.256 317.279 145.887 314.171 145.578 311.063C145.269 307.955 145.121 304.95 145.048 301.886C144.974 298.822 144.945 295.685 144.871 292.591C144.797 289.498 144.768 286.39 144.768 283.296C144.768 280.203 144.62 277.404 144.517 274.458C144.414 271.512 144.341 268.286 144.208 265.193C144.075 262.099 143.884 259.006 143.825 255.912C143.766 252.819 143.722 249.784 143.928 246.735C144.016 245.424 144.12 244.143 144.252 242.846C144.37 242.007 144.503 241.167 144.665 240.342C144.871 239.237 145.151 238.147 145.416 237.043C145.683 235.981 146.018 234.938 146.418 233.92C146.712 233.08 147.036 232.27 147.375 231.46C148.348 229.353 149.364 227.276 150.41 225.199C151.456 223.122 152.399 221.399 153.504 219.572C154.829 217.377 156.2 215.227 157.658 213.106C158.94 211.25 160.28 209.452 161.621 207.641C163.3 205.46 165.024 203.31 166.85 201.248C167.896 200.054 168.928 198.847 170.033 197.698C171.137 196.549 172.257 195.4 173.391 194.251C175.542 192.071 177.663 189.831 179.637 187.519C181.612 185.206 183.777 182.393 185.692 179.697C189.331 174.615 193.058 169.562 196.564 164.407C200.07 159.251 203.679 154.095 207.274 148.91C209.042 146.362 210.824 143.828 212.548 141.25C214.405 138.616 215.975 135.792 217.233 132.825C217.806 131.433 218.235 129.987 218.514 128.509C218.691 127.536 218.809 126.564 218.941 125.562C219.022 124.74 219.052 123.914 219.03 123.088C219 122.351 218.941 121.688 218.897 121.025ZM147.287 108.446C147.657 107.39 147.847 106.279 147.847 105.161C147.868 104.768 147.868 104.375 147.847 103.982C148.253 104.272 148.676 104.537 149.114 104.778L149.791 105.131C149.738 105.241 149.694 105.354 149.659 105.47C149.069 107.282 148.451 109.108 147.92 110.95C147.92 111.112 147.832 111.259 147.802 111.421L146.079 110.891C146.589 110.134 146.996 109.311 147.287 108.446ZM132.29 111.789C131.082 112.541 129.933 113.366 128.769 114.191C127.384 115.192 126.073 116.268 124.777 117.402C124.586 117.564 124.409 117.755 124.217 117.932C124.09 117.917 123.961 117.917 123.834 117.932C123.351 117.934 122.875 118.056 122.449 118.286C121.359 118.875 120.343 119.611 119.297 120.259C118.427 120.802 117.527 121.294 116.601 121.732C115.918 119.609 115.372 117.444 114.966 115.251C114.951 115.021 114.951 114.789 114.966 114.559C114.991 114.408 115.031 114.26 115.084 114.117L115.201 113.881L115.334 113.763L115.717 113.557C117.057 113.064 118.444 112.709 119.857 112.497L123.319 112.04C124.482 111.878 125.617 111.672 126.766 111.51L129.064 111.244C130.04 111.098 131.024 111.009 132.01 110.979H132.172C132.323 111.054 132.466 111.142 132.599 111.244L132.85 111.451L132.29 111.789ZM105.655 86.674C106.893 87.219 108.13 87.7641 109.353 88.3533C110.826 89.0751 112.299 89.8263 113.773 90.5776C116.395 91.9328 119.032 93.2438 121.654 94.5843C124.506 96.1657 127.459 97.5583 130.493 98.753C132.058 99.2888 133.679 99.6446 135.325 99.8136C136.943 100.002 138.572 100.081 140.201 100.049C140.731 100.049 141.276 99.9756 141.807 99.9167C141.704 100.303 141.704 100.709 141.807 101.095C142.083 101.99 142.309 102.9 142.484 103.82C142.521 104.379 142.521 104.94 142.484 105.5C142.413 105.885 142.309 106.265 142.175 106.634C141.923 107.146 141.633 107.639 141.306 108.107L140.127 109.491C139.877 109.477 139.626 109.477 139.376 109.491C139.037 109.491 138.698 109.491 138.36 109.491H138.006C137.939 109.281 137.85 109.079 137.741 108.888C137.402 108.363 137.018 107.87 136.592 107.414C136.31 107.127 135.999 106.87 135.664 106.649C135.264 106.381 134.827 106.172 134.367 106.03C133.844 105.874 133.306 105.775 132.762 105.735H132.467C132.084 105.714 131.701 105.714 131.318 105.735L130.522 105.838C129.152 106.015 127.782 106.177 126.412 106.383C124.04 106.766 121.683 107.252 119.297 107.606C118.108 107.764 116.931 108.005 115.776 108.328C115.408 108.431 115.039 108.578 114.686 108.711C114.332 108.843 113.831 109.064 113.419 109.241C113.058 109.437 112.717 109.669 112.402 109.933C111.361 110.797 110.661 112.003 110.428 113.336C110.256 114.648 110.351 115.981 110.708 117.254C110.826 117.785 110.959 118.315 111.091 118.831C111.224 119.346 111.46 120.201 111.651 120.893L109.545 120.201C109.395 120.157 109.242 120.127 109.088 120.112V119.597C108.926 117.947 108.646 116.326 108.337 114.706C108.071 113.336 107.806 111.966 107.556 110.596C107.305 109.226 107.114 108.004 106.804 106.737C106.495 105.47 106.112 104.218 105.744 102.966C105.403 101.757 105.142 100.527 104.963 99.2833C104.654 96.6171 104.418 93.9361 104.226 91.2552C104.123 89.7821 104.064 88.4564 103.961 87.057C103.961 86.6445 103.888 86.2173 103.829 85.8049L105.655 86.674ZM100.823 130.099C100.499 130.836 100.131 131.572 99.7333 132.28C99.2787 133.011 98.787 133.719 98.2601 134.401C97.0776 135.941 95.4993 137.133 93.6933 137.848C91.8803 138.444 90.0163 138.873 88.1248 139.129C86.961 139.276 85.7972 139.409 84.6186 139.468H82.2763C81.7295 139.458 81.1837 139.419 80.6411 139.35C79.9605 139.232 79.2906 139.06 78.6376 138.835C78.2912 138.671 77.9565 138.484 77.6359 138.275C77.4396 138.103 77.2573 137.916 77.0908 137.715C76.4426 136.831 75.8533 135.888 75.2788 134.946C75.2719 134.833 75.2719 134.72 75.2788 134.607C75.1586 133.561 75.134 132.505 75.2052 131.455C76.0301 131.455 76.8551 131.617 77.6801 131.676C78.572 131.756 79.4693 131.756 80.3612 131.676C81.4741 131.579 82.5747 131.372 83.6464 131.057C84.826 130.678 85.9658 130.185 87.0494 129.584C88.7571 128.59 90.396 127.483 91.955 126.269C93.4389 125.137 95.0448 124.173 96.7428 123.397C97.1611 123.245 97.5893 123.122 98.0244 123.029L98.1865 123.191C98.7677 124.074 99.2989 124.988 99.7775 125.931C100.278 126.888 100.765 127.86 101.251 128.877C101.118 129.275 100.971 129.687 100.823 130.085V130.099ZM75.1168 131.823V131.455C75.1086 131.577 75.1086 131.7 75.1168 131.823ZM91.793 49.1997C91.4243 49.6962 91.099 50.2235 90.8207 50.7758C90.1627 52.1402 89.7109 53.5948 89.4801 55.0919C88.8612 58.2535 88.8612 61.5051 89.4801 64.6667C89.7747 66.7731 90.1725 68.8648 90.6144 70.9566C90.8207 71.914 91.0564 72.8568 91.3215 73.7996C91.659 75.0673 92.0773 76.3121 92.5737 77.5264C92.7754 77.9639 93.0067 78.3872 93.2661 78.7932C93.6811 79.3904 94.139 79.9565 94.6361 80.4872C95.1962 81.0693 95.8187 81.588 96.4923 82.0339C96.2611 82.6884 96.0741 83.3577 95.9325 84.0372C95.7672 85.01 95.7178 85.9989 95.7852 86.9833C95.7852 88.4564 95.9915 89.8116 96.1241 91.2257C96.4187 94.4664 96.787 97.6973 97.2289 100.918C97.4357 102.33 97.7309 103.727 98.1128 105.102C98.4664 106.413 99.0114 107.665 99.3355 108.976C100.057 111.848 100.706 114.736 101.324 117.623C101.501 118.448 101.648 119.287 101.796 120.112C101.337 119.528 100.778 119.029 100.146 118.639C99.6183 118.361 99.0332 118.209 98.4369 118.197H98.0244C97.4746 118.21 96.9271 118.274 96.3892 118.389C95.4058 118.609 94.455 118.955 93.5607 119.42C91.93 120.172 90.3675 121.064 88.8908 122.086C87.4391 123.091 85.9179 123.992 84.3388 124.782C83.7187 125.035 83.0841 125.252 82.4384 125.43C81.8491 125.592 81.2598 125.71 80.6706 125.813C79.6909 125.897 78.7075 125.932 77.7243 125.916C76.2039 125.731 74.6645 125.776 73.1575 126.049C72.0834 126.394 71.1822 127.137 70.6384 128.126L69.9165 127.256C69.7895 127.068 69.6762 126.872 69.5777 126.667C69.2077 125.45 68.9464 124.203 68.7969 122.94L68.4434 120.48C68.4434 120.245 68.4434 120.009 68.4434 119.773C68.4536 119.28 68.4141 118.786 68.3255 118.3C68.3237 117.648 68.151 117.008 67.8246 116.444L67.692 116.253C67.2943 114.043 66.8376 111.834 66.2189 109.668C65.4823 106.722 64.6721 103.776 64.0533 100.83C63.4346 97.8839 62.8159 94.8641 62.2266 91.8739C61.7847 89.6937 61.4458 87.4547 61.0334 85.3188C60.5767 82.8883 60.1053 80.4577 59.6486 77.9535C59.1919 75.4494 58.7647 73.4166 58.2638 71.1628C57.7629 68.9091 57.159 66.7437 56.7907 64.5046C56.4641 62.1665 56.2918 59.8095 56.2751 57.4487C56.3236 55.1633 56.4908 52.8819 56.7759 50.6138C56.938 49.4795 57.1442 48.3748 57.3799 47.27C57.6309 46.1684 57.986 45.0931 58.4406 44.0587C58.712 43.4741 59.022 42.9082 59.3687 42.3647C59.6695 42.037 59.9893 41.7272 60.3262 41.4367C60.8423 41.0864 61.3784 40.7667 61.932 40.4792C63.5535 40.0097 65.2157 39.694 66.8965 39.5365C71.9328 38.9032 77.0267 38.8735 82.0701 39.4481C83.2339 39.6101 84.3829 39.8164 85.5173 40.0373C86.6775 40.2274 87.8241 40.4931 88.9497 40.8328L89.156 41.0537C89.9714 42.3136 90.6999 43.6277 91.3363 44.9868L92.7063 47.7266C92.3644 48.2037 92.0591 48.706 91.793 49.2291V49.1997ZM97.1847 45.193C96.6102 43.9998 96.0357 42.8067 95.4464 41.6282C94.9897 40.6707 94.5183 39.7133 93.9732 38.7705C93.8112 38.4612 93.6344 38.1518 93.4576 37.8572C93.1681 37.3894 92.8163 36.9632 92.4117 36.5904C92.4615 36.3523 92.4959 36.1112 92.5148 35.8686C92.5148 34.7196 92.6474 33.5559 92.78 32.4069C92.9273 31.4838 93.0893 30.5558 93.2661 29.6229C93.4592 28.7495 93.7202 27.8925 94.0469 27.0598C94.4295 26.2017 94.8777 25.3743 95.3875 24.5851C95.8441 24.0607 96.3363 23.5686 96.8606 23.112C98.0615 22.1707 99.3266 21.3143 100.647 20.5489C101.987 19.8124 103.387 19.0759 104.801 18.5161C105.611 18.2215 106.421 17.9564 107.261 17.7354C108.101 17.5144 108.985 17.3671 109.854 17.2198C111.533 17.0283 113.227 16.9105 114.922 16.8221C116.795 16.7556 118.672 16.8295 120.534 17.0431C122.188 17.2362 123.818 17.6016 125.396 18.1331C125.911 18.3683 126.404 18.6493 126.869 18.9728C127.639 19.6348 128.354 20.359 129.005 21.1381L129.786 22.2429C129.786 22.8763 129.786 23.5245 129.786 24.1431C129.786 25.6162 129.963 27.0892 130.125 28.5623C130.581 32.569 131.141 36.5609 131.701 40.5676C129.963 41.1421 128.224 41.7608 126.471 42.3058C124.729 42.8019 122.958 43.1905 121.168 43.4695C119.385 43.7936 117.588 44.0882 115.805 44.3828C114.507 44.5575 113.197 44.6363 111.887 44.6185C110.414 44.6185 109.058 44.4565 107.644 44.3681C106.23 44.2797 104.698 44.1471 103.151 44.1766C101.449 44.2022 99.7541 44.4146 98.0981 44.81L97.1847 45.193ZM134.691 47.2111C134.515 47.9181 134.308 48.6105 134.161 49.3175C134.014 50.0246 133.881 50.6433 133.734 51.3061C133.428 52.7267 133.024 54.1245 132.526 55.4896C132.21 56.1708 131.84 56.8259 131.421 57.4487C131.112 57.8164 130.772 58.1564 130.404 58.4651C129.808 58.8556 129.188 59.2098 128.548 59.5257C125.4 60.6914 122.143 61.5401 118.825 62.0594C117.542 62.2389 116.246 62.3079 114.951 62.2656C114.038 62.2656 113.124 62.133 112.196 62.0299C110.237 61.7206 108.292 61.3818 106.304 61.0577C105.272 60.881 104.271 60.66 103.254 60.439C102.032 60.1733 100.83 59.8188 99.6596 59.3784C99.4092 59.2606 99.1588 59.1133 98.9083 58.966L98.8199 58.5683C98.729 56.3045 98.7634 54.0375 98.923 51.7775C98.9492 51.3096 98.814 50.8468 98.54 50.4665C98.6336 50.2917 98.7124 50.1094 98.7757 49.9215C98.7757 49.7889 98.7757 49.671 98.7757 49.5532L99.4534 49.4059C100.855 49.2807 102.265 49.2807 103.667 49.4059C105.14 49.5385 106.613 49.7152 108.16 49.8773C109.707 50.0393 111.106 50.1866 112.579 50.275C114.091 50.3316 115.605 50.2478 117.102 50.0246C118.811 49.8184 120.534 49.5679 122.243 49.3323C123.952 49.0966 125.19 48.8756 126.736 48.5663C129.535 47.977 132.246 47.0932 134.986 46.2536C134.831 46.5627 134.731 46.8968 134.691 47.2405V47.2111ZM178.017 24.2905C177.758 24.2885 177.5 24.3232 177.251 24.3936C176.49 24.6098 175.841 25.1109 175.439 25.793C175.038 26.5046 174.927 27.3437 175.13 28.1351C175.601 30.2268 176.146 32.2891 176.603 34.3956C176.73 35.0339 176.848 35.6673 176.956 36.2958L176.794 36.1632C176.044 35.5669 175.262 35.0112 174.452 34.4987C172.941 33.5693 171.274 32.9205 169.532 32.5837C168.53 32.3922 167.528 32.2449 166.512 32.1123C165.803 32.012 165.09 31.9481 164.376 31.9208H162.902H162.122C161.282 31.9208 160.442 32.024 159.603 32.1271C156.368 32.527 153.157 33.0973 149.983 33.8358C145.4 35.0935 140.957 36.8161 136.724 38.9767L136.165 39.183C135.885 36.8261 135.619 34.4692 135.413 32.1123C135.281 30.4331 135.222 28.7391 135.207 27.0598C135.207 26.5148 135.207 25.9697 135.207 25.4247C135.545 25.0704 135.758 24.6165 135.817 24.1307C135.875 23.6449 135.775 23.1532 135.531 22.729L135.354 22.4639C135.354 22.3608 135.354 22.2577 135.354 22.1545C135.544 21.0946 135.83 20.0543 136.209 19.0464C136.412 18.6551 136.638 18.2763 136.886 17.9122C137.333 17.3791 137.826 16.8862 138.36 16.4391C139.081 15.9088 139.833 15.3932 140.525 14.9661C141.217 14.5389 142.16 13.8171 143.029 13.3163C144.944 12.2643 146.911 11.3105 148.922 10.4585L148.127 10.7973C151.184 9.34029 154.41 8.26666 157.732 7.60083C159.072 7.4388 160.413 7.32096 161.768 7.26204C163.032 7.22282 164.297 7.27203 165.554 7.40933C166.204 7.51419 166.845 7.67184 167.469 7.88071C167.841 8.06507 168.196 8.28197 168.53 8.52886C169.928 9.73247 171.21 11.064 172.36 12.5061C173.509 14.0528 174.585 15.6289 175.586 17.2788C176.752 19.2523 177.81 21.2882 178.754 23.3772C178.96 23.7896 179.151 24.2021 179.343 24.6145C178.927 24.4177 178.476 24.3074 178.017 24.2905ZM185.869 47.0048C185.088 45.8853 184.293 44.7658 183.482 43.6758C183.173 40.9359 182.864 38.2108 182.495 35.4856C182.216 33.4234 181.891 31.3758 181.523 29.3283C182.319 31.0959 183.085 32.8636 183.836 34.6313C185.954 39.676 187.496 44.9435 188.432 50.3339C188.432 50.4665 188.432 50.5991 188.432 50.7316C187.593 49.5237 186.723 48.2864 185.869 47.0343V47.0048Z" fill="#FC7451"/>
<path d="M48.2453 176.766C48.4135 176.723 48.5711 176.647 48.708 176.54C48.8449 176.434 48.9583 176.3 49.0408 176.147C49.6006 174.954 50.1898 173.761 50.7644 172.568C51.1179 171.861 51.4568 171.095 51.8545 170.461L52.8268 168.738C52.9741 168.487 53.1067 168.207 53.2687 167.972L54.9039 165.526L54.9923 165.409L54.9187 165.512L57.3494 162.374L57.1284 162.669C58.086 161.431 59.073 160.238 60.0747 159.001C60.6787 158.235 61.2975 157.528 61.872 156.688L63.5514 154.39C64.5089 153.065 65.4076 151.695 66.3062 150.325L68.899 146.421L69.8123 145.051C69.9668 144.796 70.0495 144.505 70.0515 144.207C70.0535 143.909 69.9748 143.616 69.8237 143.359C69.6726 143.102 69.4549 142.891 69.1935 142.748C68.9321 142.605 68.6369 142.536 68.3392 142.547C68.1927 142.525 68.0437 142.525 67.8972 142.547C67.4834 142.668 67.1275 142.935 66.8955 143.298C65.3192 145.655 63.9491 148.174 62.476 150.531C62.0046 151.238 61.5332 152.004 61.0028 152.667C60.4725 153.33 60.1779 153.845 59.7654 154.42C58.9699 155.524 58.1596 156.6 57.3494 157.675C56.5391 158.75 55.8762 159.664 55.0365 160.621C54.1968 161.579 53.3866 162.801 52.5763 163.906C52.267 164.319 52.0018 164.775 51.7219 165.202C51.442 165.63 51.0737 166.16 50.8086 166.675C50.2193 167.751 49.5858 168.811 49.0408 169.916C48.2747 171.507 47.5676 173.113 46.7426 174.733C46.5746 175.049 46.5274 175.416 46.61 175.764C46.7091 176.098 46.9299 176.382 47.2288 176.56C47.3756 176.661 47.5414 176.731 47.716 176.766C47.8907 176.802 48.0707 176.802 48.2453 176.766Z" fill="#FC7451"/>
<path d="M64.9658 178.724C62.373 182.687 59.6919 186.59 57.0549 190.509C56.7327 191.064 56.6432 191.724 56.8061 192.345C56.9689 192.966 57.3708 193.497 57.9241 193.823C58.198 193.987 58.5018 194.094 58.8176 194.139C59.1335 194.183 59.4551 194.165 59.7637 194.084C60.0723 194.003 60.3616 193.861 60.6149 193.667C60.8681 193.473 61.0802 193.231 61.2387 192.954C64.9805 187.386 68.7223 181.818 72.3905 176.206C75.3368 171.786 78.0032 167.073 80.6991 162.447C82.6437 159.103 84.8976 155.936 86.9159 152.637C87.1447 152.246 87.2662 151.802 87.2678 151.35C87.2695 150.897 87.1514 150.453 86.9254 150.061C86.6995 149.669 86.3737 149.343 85.9813 149.118C85.5889 148.893 85.1439 148.775 84.6914 148.777C84.4626 148.778 84.2349 148.808 84.0137 148.866C83.3928 149.061 82.8673 149.481 82.5406 150.044C80.979 152.342 79.5943 154.714 78.1211 157.1C76.6479 159.486 75.5872 161.519 74.3351 163.744C73.6279 164.966 72.9503 166.218 72.2137 167.426C71.4771 168.634 70.4901 170.254 69.621 171.668C68.0889 174.07 66.4978 176.382 64.9658 178.724Z" fill="#FC7451"/>
</g>
<defs>
<clipPath id="clip0_205_2124">
<rect width="219" height="326" fill="white"/>
</clipPath>
</defs>
</svg>
