<svg width="196" height="212" viewBox="0 0 196 212" fill="none" xmlns="http://www.w3.org/2000/svg">
<g clip-path="url(#clip0_183_4515)">
<path d="M137.766 134.191C145.121 131.815 152.476 129.452 159.832 127.103L165.599 125.269" stroke="#FC7451" stroke-width="3" stroke-miterlimit="10"/>
<path d="M73.1613 154.623C65.3973 157.937 57.4248 160.687 49.5036 163.623C45.76 165.019 42.0215 166.685 38.0624 167.308C34.4182 167.857 30.6989 167.529 27.2118 166.349C22.1869 164.696 18.0831 161.648 14.6252 157.73C11.7117 154.43 8.57949 150.638 7.18952 146.393C6.72452 144.985 6.39891 143.185 7.41357 141.927C9.27809 139.663 13.1597 140.006 15.4736 141.183C18.9222 142.933 21.2423 146.238 24.4164 148.386C27.503 150.476 31.2284 151.706 34.9727 151.113C38.7873 150.511 42.5223 148.682 46.0884 147.255C49.7687 145.82 53.368 144.183 56.8702 142.352C63.9256 138.577 70.4546 133.468 74.3853 126.351C74.8722 125.468 75.3259 124.565 75.7552 123.651C75.9519 123.235 76.8876 121.86 76.7821 121.401C76.6345 120.773 75.2192 121.23 74.7763 121.324C72.2943 121.845 69.803 122.602 67.3809 123.335C59.903 125.605 53.1314 129.085 46.3066 132.829C40.9415 135.772 34.9375 138.965 28.646 138.715C25.8089 138.597 21.7881 137.683 20.184 135.087C18.3498 132.121 20.757 128.726 23.2501 127.113C26.4698 125.04 30.27 123.778 33.6646 122.008C37.1545 120.184 40.5517 118.187 43.8435 116.023C47.1565 113.841 50.3578 111.493 53.4351 108.987C56.459 106.531 59.3893 103.954 62.574 101.702C68.3533 97.6172 74.8854 95.3399 81.8619 94.4274C88.5855 93.5461 95.3851 93.7598 102.145 93.8145C109.054 93.8727 115.885 93.6099 122.658 92.0749C129.238 90.5793 135.548 88.1168 141.627 85.2054C148.721 81.8049 155.577 77.8982 162.286 73.7894C169.603 69.3064 176.78 64.5958 183.994 59.9442C187.561 57.6396 191.128 55.3378 194.693 53.0387" stroke="#FC7451" stroke-width="3" stroke-miterlimit="10"/>
<path d="M83.2213 169.599C70.741 171.583 58.1855 172.961 45.5547 173.732C42.6981 173.905 39.7687 174.039 37.0306 173.215C35.6046 172.808 34.3031 172.052 33.2436 171.013C32.1841 169.974 31.3999 168.687 30.962 167.266" stroke="#FC7451" stroke-width="3" stroke-miterlimit="10"/>
<path d="M137.765 134.191C127.801 143.189 113.116 156.353 103.147 165.346C100.627 167.622 98.0984 169.901 95.41 171.966C92.1148 174.49 88.4436 176.733 84.3606 177.389C82.1825 177.738 79.9617 177.621 77.7651 177.445C69.971 176.836 62.1481 175.194 54.6306 173.079" stroke="#FC7451" stroke-width="3" stroke-miterlimit="10"/>
<path d="M25.7263 149.478C25.6891 145.761 26.4337 142.074 27.9116 138.66" stroke="#FC7451" stroke-width="3" stroke-miterlimit="10"/>
<path d="M40.6389 149.395L36.5547 147.496" stroke="#FC7451" stroke-width="3" stroke-miterlimit="10"/>
<path d="M39.2364 148.742C38.3551 144.164 39.1384 139.415 41.4445 135.356" stroke="#FC7451" stroke-width="3" stroke-miterlimit="10"/>
<path d="M51.6973 129.677C51.9491 129.827 52.1699 130.024 52.3481 130.258C52.6185 130.636 52.7971 131.073 52.8699 131.533C53.576 135.263 50.7695 139.787 49.4603 143.165C49.0622 144.16 48.7637 145.192 48.569 146.246" stroke="#FC7451" stroke-width="3" stroke-miterlimit="10"/>
<path d="M60.2149 140.439C60.6571 138.996 61.2054 137.588 61.8554 136.225C62.2796 135.333 62.7534 134.45 62.9595 133.495C63.4933 131.15 62.3037 128.076 59.5039 128.742C57.7133 129.165 56.0355 130.749 54.8878 132.125C53.9975 133.224 53.2104 134.403 52.5366 135.648" stroke="#FC7451" stroke-width="3" stroke-miterlimit="10"/>
</g>
<defs>
<clipPath id="clip0_183_4515">
<rect width="141.243" height="171.249" fill="white" transform="translate(64.1914) rotate(22.0148)"/>
</clipPath>
</defs>
</svg>
