<svg width="397" height="61" viewBox="0 0 397 61" fill="none" xmlns="http://www.w3.org/2000/svg">
<mask id="path-1-outside-1_1401_1007" maskUnits="userSpaceOnUse" x="-1" y="-1" width="400" height="63" fill="black">
<rect fill="white" x="-1" y="-1" width="400" height="63"/>
<path d="M0.44 59V1.8H17.16V44.68H41.64V59H0.44ZM46.065 59V1.8H62.785V59H46.065ZM84.1388 59L65.8187 1.8H83.0188L90.8588 28.68L93.6588 39.8H93.8188C94.7788 35.64 95.7121 31.9333 96.6188 28.68L104.299 1.8H121.259L102.859 59H84.1388ZM124.268 59V1.8H168.828V15.4H140.988V23.16H164.268V35.72H140.988V44.68H169.628V59H124.268ZM187.159 59V1.8H231.719V15.4H203.879V23.16H227.159V35.72H203.879V44.68H232.519V59H187.159ZM234.336 59L255.456 1.8H272.496L293.696 59H275.936L273.136 50.6H253.776L250.976 59H234.336ZM261.296 27.88L257.536 39.08H269.376L265.776 27.88L263.616 20.52H263.456C262.656 23.56 261.936 26.0133 261.296 27.88ZM319.114 60.36C311.328 60.36 305.008 58.68 300.154 55.32C295.301 51.96 292.821 47.1067 292.714 40.76H309.834C310.368 45.24 313.568 47.48 319.434 47.48C321.354 47.48 323.034 47.1067 324.474 46.36C325.968 45.56 326.714 44.36 326.714 42.76C326.714 41 325.461 39.64 322.954 38.68C321.834 38.2533 319.461 37.5867 315.834 36.68C313.381 36.0933 311.381 35.56 309.834 35.08C308.288 34.6 306.448 33.88 304.314 32.92C302.181 31.9067 300.474 30.84 299.194 29.72C297.968 28.5467 296.901 27.0267 295.994 25.16C295.088 23.2933 294.634 21.1867 294.634 18.84C294.634 12.6533 296.821 8.09333 301.194 5.16C305.568 2.22666 311.248 0.759996 318.234 0.759996C322.394 0.759996 326.128 1.32 329.434 2.44C332.741 3.56 335.514 5.48 337.754 8.2C339.994 10.8667 341.141 14.2 341.194 18.2H324.634C324.101 14.7867 321.674 13.08 317.354 13.08C315.541 13.08 314.048 13.4533 312.874 14.2C311.701 14.9467 311.114 15.9067 311.114 17.08C311.114 17.4533 311.168 17.8 311.274 18.12C311.381 18.3867 311.568 18.6533 311.834 18.92C312.101 19.1867 312.368 19.4267 312.634 19.64C312.954 19.8533 313.381 20.0667 313.914 20.28C314.448 20.44 314.928 20.6 315.354 20.76C315.834 20.92 316.474 21.1067 317.274 21.32C318.074 21.48 318.768 21.64 319.354 21.8C319.994 21.96 320.821 22.1467 321.834 22.36C322.848 22.5733 323.754 22.7867 324.554 23C327.328 23.6933 329.701 24.44 331.674 25.24C333.648 25.9867 335.621 27.0533 337.594 28.44C339.621 29.7733 341.141 31.5333 342.154 33.72C343.221 35.8533 343.754 38.36 343.754 41.24C343.754 47.2667 341.408 51.96 336.714 55.32C332.074 58.68 326.208 60.36 319.114 60.36ZM360.346 59V38.92L340.746 1.8H358.906L364.986 14.52C365.626 15.8 366.266 17.2133 366.906 18.76C367.546 20.3067 368.026 21.5067 368.346 22.36L368.826 23.72H368.986C370.213 20.4667 371.52 17.4 372.906 14.52L378.986 1.8H396.746L377.066 38.92V59H360.346Z"/>
</mask>
<path d="M0.44 59H-0.56V60H0.44V59ZM0.44 1.8V0.799997H-0.56V1.8H0.44ZM17.16 1.8H18.16V0.799997H17.16V1.8ZM17.16 44.68H16.16V45.68H17.16V44.68ZM41.64 44.68H42.64V43.68H41.64V44.68ZM41.64 59V60H42.64V59H41.64ZM1.44 59V1.8H-0.56V59H1.44ZM0.44 2.8H17.16V0.799997H0.44V2.8ZM16.16 1.8V44.68H18.16V1.8H16.16ZM17.16 45.68H41.64V43.68H17.16V45.68ZM40.64 44.68V59H42.64V44.68H40.64ZM41.64 58H0.44V60H41.64V58ZM46.065 59H45.065V60H46.065V59ZM46.065 1.8V0.799997H45.065V1.8H46.065ZM62.785 1.8H63.785V0.799997H62.785V1.8ZM62.785 59V60H63.785V59H62.785ZM47.065 59V1.8H45.065V59H47.065ZM46.065 2.8H62.785V0.799997H46.065V2.8ZM61.785 1.8V59H63.785V1.8H61.785ZM62.785 58H46.065V60H62.785V58ZM84.1388 59L83.1864 59.305L83.409 60H84.1388V59ZM65.8187 1.8V0.799997H64.4484L64.8664 2.10501L65.8187 1.8ZM83.0188 1.8L83.9788 1.52L83.7688 0.799997H83.0188V1.8ZM90.8588 28.68L91.8285 28.4358L91.824 28.4178L91.8188 28.4L90.8588 28.68ZM93.6588 39.8L92.689 40.0442L92.8793 40.8H93.6588V39.8ZM93.8188 39.8V40.8H94.6143L94.7931 40.0249L93.8188 39.8ZM96.6188 28.68L95.6572 28.4053L95.6555 28.4115L96.6188 28.68ZM104.299 1.8V0.799997H103.544L103.337 1.52528L104.299 1.8ZM121.259 1.8L122.211 2.10622L122.631 0.799997H121.259V1.8ZM102.859 59V60H103.588L103.811 59.3062L102.859 59ZM85.0911 58.695L66.7711 1.49498L64.8664 2.10501L83.1864 59.305L85.0911 58.695ZM65.8187 2.8H83.0188V0.799997H65.8187V2.8ZM82.0588 2.08L89.8988 28.96L91.8188 28.4L83.9788 1.52L82.0588 2.08ZM89.889 28.9242L92.689 40.0442L94.6285 39.5558L91.8285 28.4358L89.889 28.9242ZM93.6588 40.8H93.8188V38.8H93.6588V40.8ZM94.7931 40.0249C95.7506 35.8759 96.6803 32.1842 97.582 28.9485L95.6555 28.4115C94.7439 31.6825 93.8069 35.4041 92.8444 39.5751L94.7931 40.0249ZM97.5803 28.9547L105.26 2.07472L103.337 1.52528L95.6572 28.4053L97.5803 28.9547ZM104.299 2.8H121.259V0.799997H104.299V2.8ZM120.307 1.49377L101.907 58.6938L103.811 59.3062L122.211 2.10622L120.307 1.49377ZM102.859 58H84.1388V60H102.859V58ZM124.268 59H123.268V60H124.268V59ZM124.268 1.8V0.799997H123.268V1.8H124.268ZM168.828 1.8H169.828V0.799997H168.828V1.8ZM168.828 15.4V16.4H169.828V15.4H168.828ZM140.988 15.4V14.4H139.988V15.4H140.988ZM140.988 23.16H139.988V24.16H140.988V23.16ZM164.268 23.16H165.268V22.16H164.268V23.16ZM164.268 35.72V36.72H165.268V35.72H164.268ZM140.988 35.72V34.72H139.988V35.72H140.988ZM140.988 44.68H139.988V45.68H140.988V44.68ZM169.628 44.68H170.628V43.68H169.628V44.68ZM169.628 59V60H170.628V59H169.628ZM125.268 59V1.8H123.268V59H125.268ZM124.268 2.8H168.828V0.799997H124.268V2.8ZM167.828 1.8V15.4H169.828V1.8H167.828ZM168.828 14.4H140.988V16.4H168.828V14.4ZM139.988 15.4V23.16H141.988V15.4H139.988ZM140.988 24.16H164.268V22.16H140.988V24.16ZM163.268 23.16V35.72H165.268V23.16H163.268ZM164.268 34.72H140.988V36.72H164.268V34.72ZM139.988 35.72V44.68H141.988V35.72H139.988ZM140.988 45.68H169.628V43.68H140.988V45.68ZM168.628 44.68V59H170.628V44.68H168.628ZM169.628 58H124.268V60H169.628V58ZM187.159 59H186.159V60H187.159V59ZM187.159 1.8V0.799997H186.159V1.8H187.159ZM231.719 1.8H232.719V0.799997H231.719V1.8ZM231.719 15.4V16.4H232.719V15.4H231.719ZM203.879 15.4V14.4H202.879V15.4H203.879ZM203.879 23.16H202.879V24.16H203.879V23.16ZM227.159 23.16H228.159V22.16H227.159V23.16ZM227.159 35.72V36.72H228.159V35.72H227.159ZM203.879 35.72V34.72H202.879V35.72H203.879ZM203.879 44.68H202.879V45.68H203.879V44.68ZM232.519 44.68H233.519V43.68H232.519V44.68ZM232.519 59V60H233.519V59H232.519ZM188.159 59V1.8H186.159V59H188.159ZM187.159 2.8H231.719V0.799997H187.159V2.8ZM230.719 1.8V15.4H232.719V1.8H230.719ZM231.719 14.4H203.879V16.4H231.719V14.4ZM202.879 15.4V23.16H204.879V15.4H202.879ZM203.879 24.16H227.159V22.16H203.879V24.16ZM226.159 23.16V35.72H228.159V23.16H226.159ZM227.159 34.72H203.879V36.72H227.159V34.72ZM202.879 35.72V44.68H204.879V35.72H202.879ZM203.879 45.68H232.519V43.68H203.879V45.68ZM231.519 44.68V59H233.519V44.68H231.519ZM232.519 58H187.159V60H232.519V58ZM234.336 59L233.398 58.6536L232.901 60H234.336V59ZM255.456 1.8V0.799997H254.759L254.518 1.45362L255.456 1.8ZM272.496 1.8L273.434 1.45247L273.192 0.799997H272.496V1.8ZM293.696 59V60H295.133L294.634 58.6525L293.696 59ZM275.936 59L274.988 59.3162L275.215 60H275.936V59ZM273.136 50.6L274.085 50.2838L273.857 49.6H273.136V50.6ZM253.776 50.6V49.6H253.055L252.828 50.2838L253.776 50.6ZM250.976 59V60H251.697L251.925 59.3162L250.976 59ZM261.296 27.88L260.35 27.5557L260.348 27.5617L261.296 27.88ZM257.536 39.08L256.588 38.7617L256.146 40.08H257.536V39.08ZM269.376 39.08V40.08H270.748L270.328 38.774L269.376 39.08ZM265.776 27.88L264.817 28.1616L264.82 28.1739L264.824 28.186L265.776 27.88ZM263.616 20.52L264.576 20.2384L264.365 19.52H263.616V20.52ZM263.456 20.52V19.52H262.685L262.489 20.2655L263.456 20.52ZM235.274 59.3464L256.394 2.14637L254.518 1.45362L233.398 58.6536L235.274 59.3464ZM255.456 2.8H272.496V0.799997H255.456V2.8ZM271.559 2.14753L292.759 59.3475L294.634 58.6525L273.434 1.45247L271.559 2.14753ZM293.696 58H275.936V60H293.696V58ZM276.885 58.6838L274.085 50.2838L272.188 50.9162L274.988 59.3162L276.885 58.6838ZM273.136 49.6H253.776V51.6H273.136V49.6ZM252.828 50.2838L250.028 58.6838L251.925 59.3162L254.725 50.9162L252.828 50.2838ZM250.976 58H234.336V60H250.976V58ZM260.348 27.5617L256.588 38.7617L258.484 39.3983L262.244 28.1983L260.348 27.5617ZM257.536 40.08H269.376V38.08H257.536V40.08ZM270.328 38.774L266.728 27.574L264.824 28.186L268.424 39.386L270.328 38.774ZM266.736 27.5984L264.576 20.2384L262.657 20.8016L264.817 28.1616L266.736 27.5984ZM263.616 19.52H263.456V21.52H263.616V19.52ZM262.489 20.2655C261.692 23.294 260.979 25.7213 260.35 27.5557L262.242 28.2043C262.893 26.3053 263.62 23.826 264.423 20.7745L262.489 20.2655ZM300.154 55.32L300.724 54.4978L300.724 54.4978L300.154 55.32ZM292.714 40.76V39.76H291.697L291.715 40.7768L292.714 40.76ZM309.834 40.76L310.827 40.6418L310.722 39.76H309.834V40.76ZM324.474 46.36L324.935 47.2478L324.947 47.2415L324.474 46.36ZM322.954 38.68L323.312 37.7461L323.31 37.7455L322.954 38.68ZM315.834 36.68L316.077 35.7098L316.067 35.7074L315.834 36.68ZM304.314 32.92L303.885 33.8233L303.895 33.8277L303.904 33.8319L304.314 32.92ZM299.194 29.72L298.503 30.4426L298.519 30.458L298.536 30.4726L299.194 29.72ZM295.994 25.16L295.095 25.5969L295.095 25.5969L295.994 25.16ZM329.434 2.44L329.114 3.38714L329.114 3.38714L329.434 2.44ZM337.754 8.2L336.982 8.83573L336.989 8.84319L337.754 8.2ZM341.194 18.2V19.2H342.208L342.194 18.1867L341.194 18.2ZM324.634 18.2L323.646 18.3544L323.778 19.2H324.634V18.2ZM312.874 14.2L313.411 15.0437L313.411 15.0437L312.874 14.2ZM311.274 18.12L310.326 18.4362L310.335 18.4641L310.346 18.4914L311.274 18.12ZM311.834 18.92L312.541 18.2129L312.541 18.2129L311.834 18.92ZM312.634 19.64L312.01 20.4209L312.044 20.448L312.08 20.472L312.634 19.64ZM313.914 20.28L313.543 21.2085L313.584 21.225L313.627 21.2378L313.914 20.28ZM315.354 20.76L315.003 21.6963L315.021 21.7028L315.038 21.7087L315.354 20.76ZM317.274 21.32L317.017 22.2862L317.047 22.2944L317.078 22.3006L317.274 21.32ZM319.354 21.8L319.091 22.7648L319.102 22.7676L319.112 22.7701L319.354 21.8ZM321.834 22.36L322.04 21.3814L322.04 21.3814L321.834 22.36ZM324.554 23L324.297 23.9662L324.304 23.9682L324.312 23.9701L324.554 23ZM331.674 25.24L331.299 26.1667L331.31 26.1711L331.32 26.1753L331.674 25.24ZM337.594 28.44L337.019 29.2582L337.032 29.267L337.045 29.2754L337.594 28.44ZM342.154 33.72L341.247 34.1405L341.253 34.1539L341.26 34.1672L342.154 33.72ZM336.714 55.32L336.132 54.5069L336.128 54.5101L336.714 55.32ZM319.114 59.36C311.467 59.36 305.364 57.7102 300.724 54.4978L299.585 56.1422C304.652 59.6498 311.188 61.36 319.114 61.36V59.36ZM300.724 54.4978C296.158 51.3368 293.816 46.7961 293.714 40.7432L291.715 40.7768C291.826 47.4172 294.444 52.5832 299.585 56.1422L300.724 54.4978ZM292.714 41.76H309.834V39.76H292.714V41.76ZM308.841 40.8782C309.136 43.3526 310.191 45.31 312.061 46.6192C313.894 47.9024 316.393 48.48 319.434 48.48V46.48C316.609 46.48 314.575 45.9376 313.208 44.9808C311.878 44.05 311.066 42.6474 310.827 40.6418L308.841 40.8782ZM319.434 48.48C321.485 48.48 323.329 48.0806 324.935 47.2478L324.014 45.4722C322.74 46.1328 321.223 46.48 319.434 46.48V48.48ZM324.947 47.2415C325.817 46.7752 326.521 46.164 327.003 45.3883C327.488 44.6096 327.714 43.7214 327.714 42.76H325.714C325.714 43.3986 325.567 43.9104 325.305 44.3317C325.041 44.756 324.625 45.1448 324.002 45.4785L324.947 47.2415ZM327.714 42.76C327.714 40.3803 325.969 38.7639 323.312 37.7461L322.597 39.6139C324.953 40.5161 325.714 41.6197 325.714 42.76H327.714ZM323.31 37.7455C322.125 37.2939 319.692 36.6137 316.077 35.7099L315.592 37.6501C319.23 38.5597 321.544 39.2128 322.598 39.6145L323.31 37.7455ZM316.067 35.7074C313.625 35.1234 311.648 34.5958 310.131 34.1249L309.538 36.0351C311.114 36.5241 313.137 37.0633 315.602 37.6526L316.067 35.7074ZM310.131 34.1249C308.636 33.661 306.836 32.958 304.725 32.0081L303.904 33.8319C306.06 34.802 307.94 35.539 309.538 36.0351L310.131 34.1249ZM304.743 32.0167C302.664 31.0288 301.043 30.0085 299.853 28.9674L298.536 30.4726C299.906 31.6715 301.699 32.7846 303.885 33.8233L304.743 32.0167ZM299.886 28.9974C298.762 27.9221 297.76 26.5059 296.894 24.7231L295.095 25.5969C296.042 27.5474 297.174 29.1712 298.503 30.4426L299.886 28.9974ZM296.894 24.7231C296.062 23.0094 295.634 21.0552 295.634 18.84H293.634C293.634 21.3181 294.114 23.5772 295.095 25.5969L296.894 24.7231ZM295.634 18.84C295.634 12.9194 297.707 8.70352 301.751 5.99049L300.637 4.32951C295.936 7.48315 293.634 12.3873 293.634 18.84H295.634ZM301.751 5.99049C305.914 3.19848 311.382 1.76 318.234 1.76V-0.240004C311.113 -0.240004 305.221 1.25485 300.637 4.32951L301.751 5.99049ZM318.234 1.76C322.306 1.76 325.928 2.30811 329.114 3.38714L329.755 1.49285C326.328 0.331882 322.483 -0.240004 318.234 -0.240004V1.76ZM329.114 3.38714C332.242 4.44679 334.86 6.2581 336.982 8.8357L338.526 7.56429C336.169 4.7019 333.24 2.6732 329.755 1.49285L329.114 3.38714ZM336.989 8.84319C339.059 11.3074 340.144 14.4079 340.194 18.2133L342.194 18.1867C342.138 13.9921 340.93 10.4259 338.52 7.5568L336.989 8.84319ZM341.194 17.2H324.634V19.2H341.194V17.2ZM325.622 18.0456C325.321 16.1188 324.462 14.5773 322.99 13.542C321.547 12.5274 319.631 12.08 317.354 12.08V14.08C319.398 14.08 320.855 14.4859 321.839 15.178C322.794 15.8494 323.414 16.8678 323.646 18.3544L325.622 18.0456ZM317.354 12.08C315.408 12.08 313.713 12.4808 312.338 13.3563L313.411 15.0437C314.382 14.4258 315.674 14.08 317.354 14.08V12.08ZM312.338 13.3563C310.938 14.247 310.114 15.497 310.114 17.08H312.114C312.114 16.3163 312.464 15.6464 313.411 15.0437L312.338 13.3563ZM310.114 17.08C310.114 17.5494 310.182 18.004 310.326 18.4362L312.223 17.8038C312.154 17.596 312.114 17.3572 312.114 17.08H310.114ZM310.346 18.4914C310.516 18.9165 310.793 19.2932 311.127 19.6271L312.541 18.2129C312.342 18.0134 312.246 17.8568 312.203 17.7486L310.346 18.4914ZM311.127 19.6271C311.417 19.9172 311.711 20.1823 312.01 20.4209L313.259 18.8591C313.024 18.6711 312.785 18.4561 312.541 18.2129L311.127 19.6271ZM312.08 20.472C312.478 20.7376 312.974 20.9807 313.543 21.2085L314.286 19.3515C313.789 19.1526 313.431 18.9691 313.189 18.8079L312.08 20.472ZM313.627 21.2378C314.143 21.3927 314.602 21.5457 315.003 21.6963L315.706 19.8237C315.254 19.6543 314.752 19.4873 314.202 19.3222L313.627 21.2378ZM315.038 21.7087C315.546 21.8779 316.208 22.0705 317.017 22.2862L317.532 20.3538C316.741 20.1428 316.123 19.9621 315.671 19.8113L315.038 21.7087ZM317.078 22.3006C317.863 22.4575 318.533 22.6124 319.091 22.7648L319.617 20.8352C319.003 20.6676 318.286 20.5025 317.47 20.3394L317.078 22.3006ZM319.112 22.7701C319.769 22.9344 320.609 23.1239 321.628 23.3385L322.04 21.3814C321.033 21.1694 320.22 20.9856 319.597 20.8299L319.112 22.7701ZM321.628 23.3385C322.628 23.5491 323.517 23.7584 324.297 23.9662L324.812 22.0338C323.991 21.8149 323.067 21.5976 322.04 21.3814L321.628 23.3385ZM324.312 23.9701C327.054 24.6557 329.38 25.3891 331.299 26.1667L332.05 24.3133C330.022 23.4909 327.601 22.731 324.797 22.0299L324.312 23.9701ZM331.32 26.1753C333.205 26.8885 335.105 27.9129 337.019 29.2582L338.169 27.6218C336.137 26.1937 334.09 25.0849 332.028 24.3047L331.32 26.1753ZM337.045 29.2754C338.917 30.5071 340.313 32.1239 341.247 34.1405L343.062 33.2995C341.97 30.9428 340.325 29.0395 338.144 27.6046L337.045 29.2754ZM341.26 34.1672C342.244 36.1358 342.754 38.4834 342.754 41.24H344.754C344.754 38.2366 344.198 35.5709 343.049 33.2728L341.26 34.1672ZM342.754 41.24C342.754 46.9609 340.55 51.3442 336.132 54.5069L337.296 56.1331C342.265 52.5758 344.754 47.5724 344.754 41.24H342.754ZM336.128 54.5101C331.696 57.7197 326.048 59.36 319.114 59.36V61.36C326.367 61.36 332.453 59.6403 337.301 56.1299L336.128 54.5101ZM360.346 59H359.346V60H360.346V59ZM360.346 38.92H361.346V38.6722L361.231 38.4531L360.346 38.92ZM340.746 1.8V0.799997H339.087L339.862 2.26692L340.746 1.8ZM358.906 1.8L359.808 1.36874L359.537 0.799997H358.906V1.8ZM364.986 14.52L364.084 14.9513L364.088 14.9593L364.092 14.9672L364.986 14.52ZM366.906 18.76L365.982 19.1424L366.906 18.76ZM368.346 22.36L369.289 22.0272L369.286 22.018L369.283 22.0089L368.346 22.36ZM368.826 23.72L367.883 24.0528L368.119 24.72H368.826V23.72ZM368.986 23.72V24.72H369.678L369.922 24.0728L368.986 23.72ZM372.906 14.52L373.807 14.9538L373.808 14.9513L372.906 14.52ZM378.986 1.8V0.799997H378.356L378.084 1.36874L378.986 1.8ZM396.746 1.8L397.63 2.26841L398.408 0.799997H396.746V1.8ZM377.066 38.92L376.183 38.4516L376.066 38.6713V38.92H377.066ZM377.066 59V60H378.066V59H377.066ZM361.346 59V38.92H359.346V59H361.346ZM361.231 38.4531L341.631 1.33307L339.862 2.26692L359.462 39.3869L361.231 38.4531ZM340.746 2.8H358.906V0.799997H340.746V2.8ZM358.004 2.23125L364.084 14.9513L365.888 14.0887L359.808 1.36874L358.004 2.23125ZM364.092 14.9672C364.72 16.2228 365.35 17.6141 365.982 19.1424L367.83 18.3776C367.183 16.8126 366.533 15.3772 365.881 14.0728L364.092 14.9672ZM365.982 19.1424C366.621 20.6857 367.096 21.8735 367.41 22.7111L369.283 22.0089C368.957 21.1398 368.472 19.9277 367.83 18.3776L365.982 19.1424ZM367.403 22.6928L367.883 24.0528L369.769 23.3872L369.289 22.0272L367.403 22.6928ZM368.826 24.72H368.986V22.72H368.826V24.72ZM369.922 24.0728C371.139 20.8446 372.434 17.8051 373.807 14.9538L372.005 14.0862C370.605 16.9948 369.287 20.0887 368.051 23.3672L369.922 24.0728ZM373.808 14.9513L379.888 2.23125L378.084 1.36874L372.004 14.0887L373.808 14.9513ZM378.986 2.8H396.746V0.799997H378.986V2.8ZM395.863 1.33158L376.183 38.4516L377.95 39.3884L397.63 2.26841L395.863 1.33158ZM376.066 38.92V59H378.066V38.92H376.066ZM377.066 58H360.346V60H377.066V58Z" fill="#27272A" mask="url(#path-1-outside-1_1401_1007)"/>
</svg>
