<svg width="1094" height="96" viewBox="0 0 1094 96" fill="none" xmlns="http://www.w3.org/2000/svg">
<mask id="path-1-outside-1_1401_1006" maskUnits="userSpaceOnUse" x="2" y="13" width="400" height="63" fill="black">
<rect fill="white" x="2" y="13" width="400" height="63"/>
<path d="M3.44 73V15.8H20.16V58.68H44.64V73H3.44ZM49.065 73V15.8H65.785V73H49.065ZM87.1388 73L68.8187 15.8H86.0188L93.8588 42.68L96.6588 53.8H96.8188C97.7788 49.64 98.7121 45.9333 99.6188 42.68L107.299 15.8H124.259L105.859 73H87.1388ZM127.268 73V15.8H171.828V29.4H143.988V37.16H167.268V49.72H143.988V58.68H172.628V73H127.268ZM190.159 73V15.8H234.719V29.4H206.879V37.16H230.159V49.72H206.879V58.68H235.519V73H190.159ZM237.336 73L258.456 15.8H275.496L296.696 73H278.936L276.136 64.6H256.776L253.976 73H237.336ZM264.296 41.88L260.536 53.08H272.376L268.776 41.88L266.616 34.52H266.456C265.656 37.56 264.936 40.0133 264.296 41.88ZM322.114 74.36C314.328 74.36 308.008 72.68 303.154 69.32C298.301 65.96 295.821 61.1067 295.714 54.76H312.834C313.368 59.24 316.568 61.48 322.434 61.48C324.354 61.48 326.034 61.1067 327.474 60.36C328.968 59.56 329.714 58.36 329.714 56.76C329.714 55 328.461 53.64 325.954 52.68C324.834 52.2533 322.461 51.5867 318.834 50.68C316.381 50.0933 314.381 49.56 312.834 49.08C311.288 48.6 309.448 47.88 307.314 46.92C305.181 45.9067 303.474 44.84 302.194 43.72C300.968 42.5467 299.901 41.0267 298.994 39.16C298.088 37.2933 297.634 35.1867 297.634 32.84C297.634 26.6533 299.821 22.0933 304.194 19.16C308.568 16.2267 314.248 14.76 321.234 14.76C325.394 14.76 329.128 15.32 332.434 16.44C335.741 17.56 338.514 19.48 340.754 22.2C342.994 24.8667 344.141 28.2 344.194 32.2H327.634C327.101 28.7867 324.674 27.08 320.354 27.08C318.541 27.08 317.048 27.4533 315.874 28.2C314.701 28.9467 314.114 29.9067 314.114 31.08C314.114 31.4533 314.168 31.8 314.274 32.12C314.381 32.3867 314.568 32.6533 314.834 32.92C315.101 33.1867 315.368 33.4267 315.634 33.64C315.954 33.8533 316.381 34.0667 316.914 34.28C317.448 34.44 317.928 34.6 318.354 34.76C318.834 34.92 319.474 35.1067 320.274 35.32C321.074 35.48 321.768 35.64 322.354 35.8C322.994 35.96 323.821 36.1467 324.834 36.36C325.848 36.5733 326.754 36.7867 327.554 37C330.328 37.6933 332.701 38.44 334.674 39.24C336.648 39.9867 338.621 41.0533 340.594 42.44C342.621 43.7733 344.141 45.5333 345.154 47.72C346.221 49.8533 346.754 52.36 346.754 55.24C346.754 61.2667 344.408 65.96 339.714 69.32C335.074 72.68 329.208 74.36 322.114 74.36ZM363.346 73V52.92L343.746 15.8H361.906L367.986 28.52C368.626 29.8 369.266 31.2133 369.906 32.76C370.546 34.3067 371.026 35.5067 371.346 36.36L371.826 37.72H371.986C373.213 34.4667 374.52 31.4 375.906 28.52L381.986 15.8H399.746L380.066 52.92V73H363.346Z"/>
</mask>
<path d="M3.44 73H2.44V74H3.44V73ZM3.44 15.8V14.8H2.44V15.8H3.44ZM20.16 15.8H21.16V14.8H20.16V15.8ZM20.16 58.68H19.16V59.68H20.16V58.68ZM44.64 58.68H45.64V57.68H44.64V58.68ZM44.64 73V74H45.64V73H44.64ZM4.44 73V15.8H2.44V73H4.44ZM3.44 16.8H20.16V14.8H3.44V16.8ZM19.16 15.8V58.68H21.16V15.8H19.16ZM20.16 59.68H44.64V57.68H20.16V59.68ZM43.64 58.68V73H45.64V58.68H43.64ZM44.64 72H3.44V74H44.64V72ZM49.065 73H48.065V74H49.065V73ZM49.065 15.8V14.8H48.065V15.8H49.065ZM65.785 15.8H66.785V14.8H65.785V15.8ZM65.785 73V74H66.785V73H65.785ZM50.065 73V15.8H48.065V73H50.065ZM49.065 16.8H65.785V14.8H49.065V16.8ZM64.785 15.8V73H66.785V15.8H64.785ZM65.785 72H49.065V74H65.785V72ZM87.1388 73L86.1864 73.305L86.409 74H87.1388V73ZM68.8187 15.8V14.8H67.4484L67.8664 16.105L68.8187 15.8ZM86.0188 15.8L86.9788 15.52L86.7688 14.8H86.0188V15.8ZM93.8588 42.68L94.8285 42.4358L94.824 42.4178L94.8188 42.4L93.8588 42.68ZM96.6588 53.8L95.689 54.0442L95.8793 54.8H96.6588V53.8ZM96.8188 53.8V54.8H97.6143L97.7931 54.0249L96.8188 53.8ZM99.6188 42.68L98.6572 42.4053L98.6555 42.4115L99.6188 42.68ZM107.299 15.8V14.8H106.544L106.337 15.5253L107.299 15.8ZM124.259 15.8L125.211 16.1062L125.631 14.8H124.259V15.8ZM105.859 73V74H106.588L106.811 73.3062L105.859 73ZM88.0911 72.695L69.7711 15.495L67.8664 16.105L86.1864 73.305L88.0911 72.695ZM68.8187 16.8H86.0188V14.8H68.8187V16.8ZM85.0588 16.08L92.8988 42.96L94.8188 42.4L86.9788 15.52L85.0588 16.08ZM92.889 42.9242L95.689 54.0442L97.6285 53.5558L94.8285 42.4358L92.889 42.9242ZM96.6588 54.8H96.8188V52.8H96.6588V54.8ZM97.7931 54.0249C98.7506 49.8759 99.6803 46.1842 100.582 42.9485L98.6555 42.4115C97.7439 45.6825 96.8069 49.4041 95.8444 53.5751L97.7931 54.0249ZM100.58 42.9547L108.26 16.0747L106.337 15.5253L98.6572 42.4053L100.58 42.9547ZM107.299 16.8H124.259V14.8H107.299V16.8ZM123.307 15.4938L104.907 72.6938L106.811 73.3062L125.211 16.1062L123.307 15.4938ZM105.859 72H87.1388V74H105.859V72ZM127.268 73H126.268V74H127.268V73ZM127.268 15.8V14.8H126.268V15.8H127.268ZM171.828 15.8H172.828V14.8H171.828V15.8ZM171.828 29.4V30.4H172.828V29.4H171.828ZM143.988 29.4V28.4H142.988V29.4H143.988ZM143.988 37.16H142.988V38.16H143.988V37.16ZM167.268 37.16H168.268V36.16H167.268V37.16ZM167.268 49.72V50.72H168.268V49.72H167.268ZM143.988 49.72V48.72H142.988V49.72H143.988ZM143.988 58.68H142.988V59.68H143.988V58.68ZM172.628 58.68H173.628V57.68H172.628V58.68ZM172.628 73V74H173.628V73H172.628ZM128.268 73V15.8H126.268V73H128.268ZM127.268 16.8H171.828V14.8H127.268V16.8ZM170.828 15.8V29.4H172.828V15.8H170.828ZM171.828 28.4H143.988V30.4H171.828V28.4ZM142.988 29.4V37.16H144.988V29.4H142.988ZM143.988 38.16H167.268V36.16H143.988V38.16ZM166.268 37.16V49.72H168.268V37.16H166.268ZM167.268 48.72H143.988V50.72H167.268V48.72ZM142.988 49.72V58.68H144.988V49.72H142.988ZM143.988 59.68H172.628V57.68H143.988V59.68ZM171.628 58.68V73H173.628V58.68H171.628ZM172.628 72H127.268V74H172.628V72ZM190.159 73H189.159V74H190.159V73ZM190.159 15.8V14.8H189.159V15.8H190.159ZM234.719 15.8H235.719V14.8H234.719V15.8ZM234.719 29.4V30.4H235.719V29.4H234.719ZM206.879 29.4V28.4H205.879V29.4H206.879ZM206.879 37.16H205.879V38.16H206.879V37.16ZM230.159 37.16H231.159V36.16H230.159V37.16ZM230.159 49.72V50.72H231.159V49.72H230.159ZM206.879 49.72V48.72H205.879V49.72H206.879ZM206.879 58.68H205.879V59.68H206.879V58.68ZM235.519 58.68H236.519V57.68H235.519V58.68ZM235.519 73V74H236.519V73H235.519ZM191.159 73V15.8H189.159V73H191.159ZM190.159 16.8H234.719V14.8H190.159V16.8ZM233.719 15.8V29.4H235.719V15.8H233.719ZM234.719 28.4H206.879V30.4H234.719V28.4ZM205.879 29.4V37.16H207.879V29.4H205.879ZM206.879 38.16H230.159V36.16H206.879V38.16ZM229.159 37.16V49.72H231.159V37.16H229.159ZM230.159 48.72H206.879V50.72H230.159V48.72ZM205.879 49.72V58.68H207.879V49.72H205.879ZM206.879 59.68H235.519V57.68H206.879V59.68ZM234.519 58.68V73H236.519V58.68H234.519ZM235.519 72H190.159V74H235.519V72ZM237.336 73L236.398 72.6536L235.901 74H237.336V73ZM258.456 15.8V14.8H257.759L257.518 15.4536L258.456 15.8ZM275.496 15.8L276.434 15.4525L276.192 14.8H275.496V15.8ZM296.696 73V74H298.133L297.634 72.6525L296.696 73ZM278.936 73L277.988 73.3162L278.215 74H278.936V73ZM276.136 64.6L277.085 64.2838L276.857 63.6H276.136V64.6ZM256.776 64.6V63.6H256.055L255.828 64.2838L256.776 64.6ZM253.976 73V74H254.697L254.925 73.3162L253.976 73ZM264.296 41.88L263.35 41.5557L263.348 41.5617L264.296 41.88ZM260.536 53.08L259.588 52.7617L259.146 54.08H260.536V53.08ZM272.376 53.08V54.08H273.748L273.328 52.774L272.376 53.08ZM268.776 41.88L267.817 42.1616L267.82 42.1739L267.824 42.186L268.776 41.88ZM266.616 34.52L267.576 34.2384L267.365 33.52H266.616V34.52ZM266.456 34.52V33.52H265.685L265.489 34.2655L266.456 34.52ZM238.274 73.3464L259.394 16.1464L257.518 15.4536L236.398 72.6536L238.274 73.3464ZM258.456 16.8H275.496V14.8H258.456V16.8ZM274.559 16.1475L295.759 73.3475L297.634 72.6525L276.434 15.4525L274.559 16.1475ZM296.696 72H278.936V74H296.696V72ZM279.885 72.6838L277.085 64.2838L275.188 64.9162L277.988 73.3162L279.885 72.6838ZM276.136 63.6H256.776V65.6H276.136V63.6ZM255.828 64.2838L253.028 72.6838L254.925 73.3162L257.725 64.9162L255.828 64.2838ZM253.976 72H237.336V74H253.976V72ZM263.348 41.5617L259.588 52.7617L261.484 53.3983L265.244 42.1983L263.348 41.5617ZM260.536 54.08H272.376V52.08H260.536V54.08ZM273.328 52.774L269.728 41.574L267.824 42.186L271.424 53.386L273.328 52.774ZM269.736 41.5984L267.576 34.2384L265.657 34.8016L267.817 42.1616L269.736 41.5984ZM266.616 33.52H266.456V35.52H266.616V33.52ZM265.489 34.2655C264.692 37.294 263.979 39.7213 263.35 41.5557L265.242 42.2043C265.893 40.3053 266.62 37.826 267.423 34.7745L265.489 34.2655ZM303.154 69.32L303.724 68.4978L303.724 68.4978L303.154 69.32ZM295.714 54.76V53.76H294.697L294.715 54.7768L295.714 54.76ZM312.834 54.76L313.827 54.6418L313.722 53.76H312.834V54.76ZM327.474 60.36L327.935 61.2478L327.947 61.2415L327.474 60.36ZM325.954 52.68L326.312 51.7461L326.31 51.7455L325.954 52.68ZM318.834 50.68L319.077 49.7098L319.067 49.7074L318.834 50.68ZM307.314 46.92L306.885 47.8233L306.895 47.8277L306.904 47.8319L307.314 46.92ZM302.194 43.72L301.503 44.4426L301.519 44.458L301.536 44.4726L302.194 43.72ZM298.994 39.16L298.095 39.5969L298.095 39.5969L298.994 39.16ZM332.434 16.44L332.114 17.3871L332.114 17.3871L332.434 16.44ZM340.754 22.2L339.982 22.8357L339.989 22.8432L340.754 22.2ZM344.194 32.2V33.2H345.208L345.194 32.1867L344.194 32.2ZM327.634 32.2L326.646 32.3544L326.778 33.2H327.634V32.2ZM315.874 28.2L316.411 29.0437L316.411 29.0437L315.874 28.2ZM314.274 32.12L313.326 32.4362L313.335 32.4641L313.346 32.4914L314.274 32.12ZM314.834 32.92L315.541 32.2129L315.541 32.2129L314.834 32.92ZM315.634 33.64L315.01 34.4209L315.044 34.448L315.08 34.472L315.634 33.64ZM316.914 34.28L316.543 35.2085L316.584 35.225L316.627 35.2378L316.914 34.28ZM318.354 34.76L318.003 35.6963L318.021 35.7028L318.038 35.7087L318.354 34.76ZM320.274 35.32L320.017 36.2862L320.047 36.2944L320.078 36.3006L320.274 35.32ZM322.354 35.8L322.091 36.7648L322.102 36.7676L322.112 36.7701L322.354 35.8ZM324.834 36.36L325.04 35.3814L325.04 35.3814L324.834 36.36ZM327.554 37L327.297 37.9662L327.304 37.9682L327.312 37.9701L327.554 37ZM334.674 39.24L334.299 40.1667L334.31 40.1711L334.32 40.1753L334.674 39.24ZM340.594 42.44L340.019 43.2582L340.032 43.267L340.045 43.2754L340.594 42.44ZM345.154 47.72L344.247 48.1405L344.253 48.1539L344.26 48.1672L345.154 47.72ZM339.714 69.32L339.132 68.5069L339.128 68.5101L339.714 69.32ZM322.114 73.36C314.467 73.36 308.364 71.7102 303.724 68.4978L302.585 70.1422C307.652 73.6498 314.188 75.36 322.114 75.36V73.36ZM303.724 68.4978C299.158 65.3368 296.816 60.7961 296.714 54.7432L294.715 54.7768C294.826 61.4172 297.444 66.5832 302.585 70.1422L303.724 68.4978ZM295.714 55.76H312.834V53.76H295.714V55.76ZM311.841 54.8782C312.136 57.3526 313.191 59.31 315.061 60.6192C316.894 61.9024 319.393 62.48 322.434 62.48V60.48C319.609 60.48 317.575 59.9376 316.208 58.9808C314.878 58.05 314.066 56.6474 313.827 54.6418L311.841 54.8782ZM322.434 62.48C324.485 62.48 326.329 62.0806 327.935 61.2478L327.014 59.4722C325.74 60.1328 324.223 60.48 322.434 60.48V62.48ZM327.947 61.2415C328.817 60.7752 329.521 60.164 330.003 59.3883C330.488 58.6096 330.714 57.7214 330.714 56.76H328.714C328.714 57.3986 328.567 57.9104 328.305 58.3317C328.041 58.756 327.625 59.1448 327.002 59.4785L327.947 61.2415ZM330.714 56.76C330.714 54.3803 328.969 52.7639 326.312 51.7461L325.597 53.6139C327.953 54.5161 328.714 55.6197 328.714 56.76H330.714ZM326.31 51.7455C325.125 51.2939 322.692 50.6137 319.077 49.7099L318.592 51.6501C322.23 52.5597 324.544 53.2128 325.598 53.6145L326.31 51.7455ZM319.067 49.7074C316.625 49.1234 314.648 48.5958 313.131 48.1249L312.538 50.0351C314.114 50.5241 316.137 51.0633 318.602 51.6526L319.067 49.7074ZM313.131 48.1249C311.636 47.661 309.836 46.958 307.725 46.0081L306.904 47.8319C309.06 48.802 310.94 49.539 312.538 50.0351L313.131 48.1249ZM307.743 46.0167C305.664 45.0288 304.043 44.0085 302.853 42.9674L301.536 44.4726C302.906 45.6715 304.699 46.7846 306.885 47.8233L307.743 46.0167ZM302.886 42.9974C301.762 41.9221 300.76 40.5059 299.894 38.7231L298.095 39.5969C299.042 41.5474 300.174 43.1712 301.503 44.4426L302.886 42.9974ZM299.894 38.7231C299.062 37.0094 298.634 35.0552 298.634 32.84H296.634C296.634 35.3181 297.114 37.5772 298.095 39.5969L299.894 38.7231ZM298.634 32.84C298.634 26.9194 300.707 22.7035 304.751 19.9905L303.637 18.3295C298.936 21.4831 296.634 26.3873 296.634 32.84H298.634ZM304.751 19.9905C308.914 17.1985 314.382 15.76 321.234 15.76V13.76C314.113 13.76 308.221 15.2548 303.637 18.3295L304.751 19.9905ZM321.234 15.76C325.306 15.76 328.928 16.3081 332.114 17.3871L332.755 15.4929C329.328 14.3319 325.483 13.76 321.234 13.76V15.76ZM332.114 17.3871C335.242 18.4468 337.86 20.2581 339.982 22.8357L341.526 21.5643C339.169 18.7019 336.24 16.6732 332.755 15.4929L332.114 17.3871ZM339.989 22.8432C342.059 25.3074 343.144 28.4079 343.194 32.2133L345.194 32.1867C345.138 27.9921 343.93 24.4259 341.52 21.5568L339.989 22.8432ZM344.194 31.2H327.634V33.2H344.194V31.2ZM328.622 32.0456C328.321 30.1188 327.462 28.5773 325.99 27.542C324.547 26.5274 322.631 26.08 320.354 26.08V28.08C322.398 28.08 323.855 28.4859 324.839 29.178C325.794 29.8494 326.414 30.8678 326.646 32.3544L328.622 32.0456ZM320.354 26.08C318.408 26.08 316.713 26.4808 315.338 27.3563L316.411 29.0437C317.382 28.4258 318.674 28.08 320.354 28.08V26.08ZM315.338 27.3563C313.938 28.247 313.114 29.497 313.114 31.08H315.114C315.114 30.3163 315.464 29.6464 316.411 29.0437L315.338 27.3563ZM313.114 31.08C313.114 31.5494 313.182 32.004 313.326 32.4362L315.223 31.8038C315.154 31.596 315.114 31.3572 315.114 31.08H313.114ZM313.346 32.4914C313.516 32.9165 313.793 33.2932 314.127 33.6271L315.541 32.2129C315.342 32.0134 315.246 31.8568 315.203 31.7486L313.346 32.4914ZM314.127 33.6271C314.417 33.9172 314.711 34.1823 315.01 34.4209L316.259 32.8591C316.024 32.6711 315.785 32.4561 315.541 32.2129L314.127 33.6271ZM315.08 34.472C315.478 34.7376 315.974 34.9807 316.543 35.2085L317.286 33.3515C316.789 33.1526 316.431 32.9691 316.189 32.8079L315.08 34.472ZM316.627 35.2378C317.143 35.3927 317.602 35.5457 318.003 35.6963L318.706 33.8237C318.254 33.6543 317.752 33.4873 317.202 33.3222L316.627 35.2378ZM318.038 35.7087C318.546 35.8779 319.208 36.0705 320.017 36.2862L320.532 34.3538C319.741 34.1428 319.123 33.9621 318.671 33.8113L318.038 35.7087ZM320.078 36.3006C320.863 36.4575 321.533 36.6124 322.091 36.7648L322.617 34.8352C322.003 34.6676 321.286 34.5025 320.47 34.3394L320.078 36.3006ZM322.112 36.7701C322.769 36.9344 323.609 37.1239 324.628 37.3385L325.04 35.3814C324.033 35.1694 323.22 34.9856 322.597 34.8299L322.112 36.7701ZM324.628 37.3385C325.628 37.5491 326.517 37.7584 327.297 37.9662L327.812 36.0338C326.991 35.8149 326.067 35.5976 325.04 35.3814L324.628 37.3385ZM327.312 37.9701C330.054 38.6557 332.38 39.3891 334.299 40.1667L335.05 38.3133C333.022 37.4909 330.601 36.731 327.797 36.0299L327.312 37.9701ZM334.32 40.1753C336.205 40.8885 338.105 41.9129 340.019 43.2582L341.169 41.6218C339.137 40.1937 337.09 39.0849 335.028 38.3047L334.32 40.1753ZM340.045 43.2754C341.917 44.5071 343.313 46.1239 344.247 48.1405L346.062 47.2995C344.97 44.9428 343.325 43.0395 341.144 41.6046L340.045 43.2754ZM344.26 48.1672C345.244 50.1358 345.754 52.4834 345.754 55.24H347.754C347.754 52.2366 347.198 49.5709 346.049 47.2728L344.26 48.1672ZM345.754 55.24C345.754 60.9609 343.55 65.3442 339.132 68.5069L340.296 70.1331C345.265 66.5758 347.754 61.5724 347.754 55.24H345.754ZM339.128 68.5101C334.696 71.7197 329.048 73.36 322.114 73.36V75.36C329.367 75.36 335.453 73.6403 340.301 70.1299L339.128 68.5101ZM363.346 73H362.346V74H363.346V73ZM363.346 52.92H364.346V52.6722L364.231 52.4531L363.346 52.92ZM343.746 15.8V14.8H342.087L342.862 16.2669L343.746 15.8ZM361.906 15.8L362.808 15.3687L362.537 14.8H361.906V15.8ZM367.986 28.52L367.084 28.9513L367.088 28.9593L367.092 28.9672L367.986 28.52ZM369.906 32.76L368.982 33.1424L369.906 32.76ZM371.346 36.36L372.289 36.0272L372.286 36.018L372.283 36.0089L371.346 36.36ZM371.826 37.72L370.883 38.0528L371.119 38.72H371.826V37.72ZM371.986 37.72V38.72H372.678L372.922 38.0728L371.986 37.72ZM375.906 28.52L376.807 28.9538L376.808 28.9513L375.906 28.52ZM381.986 15.8V14.8H381.356L381.084 15.3687L381.986 15.8ZM399.746 15.8L400.63 16.2684L401.408 14.8H399.746V15.8ZM380.066 52.92L379.183 52.4516L379.066 52.6713V52.92H380.066ZM380.066 73V74H381.066V73H380.066ZM364.346 73V52.92H362.346V73H364.346ZM364.231 52.4531L344.631 15.3331L342.862 16.2669L362.462 53.3869L364.231 52.4531ZM343.746 16.8H361.906V14.8H343.746V16.8ZM361.004 16.2313L367.084 28.9513L368.888 28.0887L362.808 15.3687L361.004 16.2313ZM367.092 28.9672C367.72 30.2228 368.35 31.6141 368.982 33.1424L370.83 32.3776C370.183 30.8126 369.533 29.3772 368.881 28.0728L367.092 28.9672ZM368.982 33.1424C369.621 34.6857 370.096 35.8735 370.41 36.7111L372.283 36.0089C371.957 35.1398 371.472 33.9277 370.83 32.3776L368.982 33.1424ZM370.403 36.6928L370.883 38.0528L372.769 37.3872L372.289 36.0272L370.403 36.6928ZM371.826 38.72H371.986V36.72H371.826V38.72ZM372.922 38.0728C374.139 34.8446 375.434 31.8051 376.807 28.9538L375.005 28.0862C373.605 30.9948 372.287 34.0887 371.051 37.3672L372.922 38.0728ZM376.808 28.9513L382.888 16.2313L381.084 15.3687L375.004 28.0887L376.808 28.9513ZM381.986 16.8H399.746V14.8H381.986V16.8ZM398.863 15.3316L379.183 52.4516L380.95 53.3884L400.63 16.2684L398.863 15.3316ZM379.066 52.92V73H381.066V52.92H379.066ZM380.066 72H363.346V74H380.066V72Z" fill="#27272A" mask="url(#path-1-outside-1_1401_1006)"/>
<path fill-rule="evenodd" clip-rule="evenodd" d="M457.5 77C457.433 58.5212 442.46 43.5621 424 43.5621C442.502 43.5621 457.5 28.5356 457.5 10C457.567 28.4788 472.54 43.4379 491 43.4379C472.498 43.4379 457.5 58.4644 457.5 77Z" fill="#DC5B27" fill-opacity="0.8"/>
<path fill-rule="evenodd" clip-rule="evenodd" d="M1060.5 81C1060.43 62.5212 1045.46 47.5621 1027 47.5621C1045.5 47.5621 1060.5 32.5356 1060.5 14C1060.57 32.4788 1075.54 47.4379 1094 47.4379C1075.5 47.4379 1060.5 62.4644 1060.5 81Z" fill="#DC5B27" fill-opacity="0.8"/>
<mask id="path-5-outside-2_1401_1006" maskUnits="userSpaceOnUse" x="517" y="14" width="486" height="62" fill="black">
<rect fill="white" x="517" y="14" width="486" height="62"/>
<path d="M518.44 73V15.8H535.16V58.68H559.64V73H518.44ZM564.065 73V15.8H580.785V73H564.065ZM602.139 73L583.819 15.8H601.019L608.859 42.68L611.659 53.8H611.819C612.779 49.64 613.712 45.9333 614.619 42.68L622.299 15.8H639.259L620.859 73H602.139ZM642.268 73V15.8H686.828V29.4H658.988V37.16H682.268V49.72H658.988V58.68H687.628V73H642.268ZM730.279 74.04C721.852 74.04 715.479 72.0667 711.159 68.12C706.892 64.12 704.759 58.4667 704.759 51.16V15.8H721.479V52.12C721.479 54.84 722.225 56.9467 723.719 58.44C725.265 59.9333 727.532 60.68 730.519 60.68C733.292 60.68 735.399 59.88 736.839 58.28C738.332 56.6267 739.079 54.4667 739.079 51.8V15.8H755.799V51.16C755.799 58.36 753.639 63.9867 749.319 68.04C744.999 72.04 738.652 74.04 730.279 74.04ZM762.268 73V15.8H778.988L797.708 47.96H797.868V15.8H814.028V73H796.748L778.588 40.6H778.428V73H762.268ZM820.94 73V15.8H837.66V73H820.94ZM842.294 30.04V15.8H891.574V30.04H875.174V73H858.454V30.04H842.294ZM896.253 73V15.8H940.813V29.4H912.973V37.16H936.253V49.72H912.973V58.68H941.613V73H896.253ZM947.19 73V15.8H973.59C981.963 15.8 988.71 18.36 993.83 23.48C998.95 28.5467 1001.51 35.56 1001.51 44.52C1001.51 53.5867 998.977 60.6 993.91 65.56C988.843 70.52 981.83 73 972.87 73H947.19ZM963.91 59.16H971.51C975.457 59.16 978.603 57.9067 980.95 55.4C983.35 52.84 984.55 49.2133 984.55 44.52C984.55 39.8267 983.377 36.1733 981.03 33.56C978.737 30.9467 975.563 29.64 971.51 29.64H963.91V59.16Z"/>
</mask>
<path d="M518.44 73H517.44V74H518.44V73ZM518.44 15.8V14.8H517.44V15.8H518.44ZM535.16 15.8H536.16V14.8H535.16V15.8ZM535.16 58.68H534.16V59.68H535.16V58.68ZM559.64 58.68H560.64V57.68H559.64V58.68ZM559.64 73V74H560.64V73H559.64ZM519.44 73V15.8H517.44V73H519.44ZM518.44 16.8H535.16V14.8H518.44V16.8ZM534.16 15.8V58.68H536.16V15.8H534.16ZM535.16 59.68H559.64V57.68H535.16V59.68ZM558.64 58.68V73H560.64V58.68H558.64ZM559.64 72H518.44V74H559.64V72ZM564.065 73H563.065V74H564.065V73ZM564.065 15.8V14.8H563.065V15.8H564.065ZM580.785 15.8H581.785V14.8H580.785V15.8ZM580.785 73V74H581.785V73H580.785ZM565.065 73V15.8H563.065V73H565.065ZM564.065 16.8H580.785V14.8H564.065V16.8ZM579.785 15.8V73H581.785V15.8H579.785ZM580.785 72H564.065V74H580.785V72ZM602.139 73L601.186 73.305L601.409 74H602.139V73ZM583.819 15.8V14.8H582.448L582.866 16.105L583.819 15.8ZM601.019 15.8L601.979 15.52L601.769 14.8H601.019V15.8ZM608.859 42.68L609.828 42.4358L609.824 42.4178L609.819 42.4L608.859 42.68ZM611.659 53.8L610.689 54.0442L610.879 54.8H611.659V53.8ZM611.819 53.8V54.8H612.614L612.793 54.0249L611.819 53.8ZM614.619 42.68L613.657 42.4053L613.655 42.4115L614.619 42.68ZM622.299 15.8V14.8H621.544L621.337 15.5253L622.299 15.8ZM639.259 15.8L640.211 16.1062L640.631 14.8H639.259V15.8ZM620.859 73V74H621.588L621.811 73.3062L620.859 73ZM603.091 72.695L584.771 15.495L582.866 16.105L601.186 73.305L603.091 72.695ZM583.819 16.8H601.019V14.8H583.819V16.8ZM600.059 16.08L607.899 42.96L609.819 42.4L601.979 15.52L600.059 16.08ZM607.889 42.9242L610.689 54.0442L612.628 53.5558L609.828 42.4358L607.889 42.9242ZM611.659 54.8H611.819V52.8H611.659V54.8ZM612.793 54.0249C613.751 49.8759 614.68 46.1842 615.582 42.9485L613.655 42.4115C612.744 45.6825 611.807 49.4041 610.844 53.5751L612.793 54.0249ZM615.58 42.9547L623.26 16.0747L621.337 15.5253L613.657 42.4053L615.58 42.9547ZM622.299 16.8H639.259V14.8H622.299V16.8ZM638.307 15.4938L619.907 72.6938L621.811 73.3062L640.211 16.1062L638.307 15.4938ZM620.859 72H602.139V74H620.859V72ZM642.268 73H641.268V74H642.268V73ZM642.268 15.8V14.8H641.268V15.8H642.268ZM686.828 15.8H687.828V14.8H686.828V15.8ZM686.828 29.4V30.4H687.828V29.4H686.828ZM658.988 29.4V28.4H657.988V29.4H658.988ZM658.988 37.16H657.988V38.16H658.988V37.16ZM682.268 37.16H683.268V36.16H682.268V37.16ZM682.268 49.72V50.72H683.268V49.72H682.268ZM658.988 49.72V48.72H657.988V49.72H658.988ZM658.988 58.68H657.988V59.68H658.988V58.68ZM687.628 58.68H688.628V57.68H687.628V58.68ZM687.628 73V74H688.628V73H687.628ZM643.268 73V15.8H641.268V73H643.268ZM642.268 16.8H686.828V14.8H642.268V16.8ZM685.828 15.8V29.4H687.828V15.8H685.828ZM686.828 28.4H658.988V30.4H686.828V28.4ZM657.988 29.4V37.16H659.988V29.4H657.988ZM658.988 38.16H682.268V36.16H658.988V38.16ZM681.268 37.16V49.72H683.268V37.16H681.268ZM682.268 48.72H658.988V50.72H682.268V48.72ZM657.988 49.72V58.68H659.988V49.72H657.988ZM658.988 59.68H687.628V57.68H658.988V59.68ZM686.628 58.68V73H688.628V58.68H686.628ZM687.628 72H642.268V74H687.628V72ZM711.159 68.12L710.475 68.8496L710.484 68.8583L711.159 68.12ZM704.759 15.8V14.8H703.759V15.8H704.759ZM721.479 15.8H722.479V14.8H721.479V15.8ZM723.719 58.44L723.012 59.1471L723.018 59.1533L723.024 59.1594L723.719 58.44ZM736.839 58.28L736.097 57.6097L736.095 57.611L736.839 58.28ZM739.079 15.8V14.8H738.079V15.8H739.079ZM755.799 15.8H756.799V14.8H755.799V15.8ZM749.319 68.04L749.998 68.7738L750.003 68.7693L749.319 68.04ZM730.279 73.04C721.993 73.04 715.902 71.0987 711.833 67.3817L710.484 68.8583C715.056 73.0346 721.711 75.04 730.279 75.04V73.04ZM711.843 67.3905C707.826 63.6245 705.759 58.2638 705.759 51.16H703.759C703.759 58.6695 705.958 64.6155 710.475 68.8495L711.843 67.3905ZM705.759 51.16V15.8H703.759V51.16H705.759ZM704.759 16.8H721.479V14.8H704.759V16.8ZM720.479 15.8V52.12H722.479V15.8H720.479ZM720.479 52.12C720.479 55.0254 721.281 57.4165 723.012 59.1471L724.426 57.7329C723.17 56.4769 722.479 54.6546 722.479 52.12H720.479ZM723.024 59.1594C724.82 60.893 727.375 61.68 730.519 61.68V59.68C727.689 59.68 725.711 58.9737 724.413 57.7206L723.024 59.1594ZM730.519 61.68C733.489 61.68 735.901 60.8166 737.582 58.949L736.095 57.611C734.896 58.9434 733.096 59.68 730.519 59.68V61.68ZM737.581 58.9503C739.272 57.0783 740.079 54.6629 740.079 51.8H738.079C738.079 54.2705 737.392 56.1751 736.097 57.6097L737.581 58.9503ZM740.079 51.8V15.8H738.079V51.8H740.079ZM739.079 16.8H755.799V14.8H739.079V16.8ZM754.799 15.8V51.16H756.799V15.8H754.799ZM754.799 51.16C754.799 58.1478 752.711 63.4862 748.635 67.3107L750.003 68.7693C754.567 64.4871 756.799 58.5722 756.799 51.16H754.799ZM748.639 67.3062C744.57 71.0745 738.506 73.04 730.279 73.04V75.04C738.798 75.04 745.428 73.0055 749.998 68.7738L748.639 67.3062ZM762.268 73H761.268V74H762.268V73ZM762.268 15.8V14.8H761.268V15.8H762.268ZM778.988 15.8L779.852 15.2969L779.563 14.8H778.988V15.8ZM797.708 47.96L796.844 48.4631L797.133 48.96H797.708V47.96ZM797.868 47.96V48.96H798.868V47.96H797.868ZM797.868 15.8V14.8H796.868V15.8H797.868ZM814.028 15.8H815.028V14.8H814.028V15.8ZM814.028 73V74H815.028V73H814.028ZM796.748 73L795.876 73.4889L796.162 74H796.748V73ZM778.588 40.6L779.46 40.1111L779.174 39.6H778.588V40.6ZM778.428 40.6V39.6H777.428V40.6H778.428ZM778.428 73V74H779.428V73H778.428ZM763.268 73V15.8H761.268V73H763.268ZM762.268 16.8H778.988V14.8H762.268V16.8ZM778.124 16.3031L796.844 48.4631L798.572 47.4569L779.852 15.2969L778.124 16.3031ZM797.708 48.96H797.868V46.96H797.708V48.96ZM798.868 47.96V15.8H796.868V47.96H798.868ZM797.868 16.8H814.028V14.8H797.868V16.8ZM813.028 15.8V73H815.028V15.8H813.028ZM814.028 72H796.748V74H814.028V72ZM797.62 72.5111L779.46 40.1111L777.716 41.0889L795.876 73.4889L797.62 72.5111ZM778.588 39.6H778.428V41.6H778.588V39.6ZM777.428 40.6V73H779.428V40.6H777.428ZM778.428 72H762.268V74H778.428V72ZM820.94 73H819.94V74H820.94V73ZM820.94 15.8V14.8H819.94V15.8H820.94ZM837.66 15.8H838.66V14.8H837.66V15.8ZM837.66 73V74H838.66V73H837.66ZM821.94 73V15.8H819.94V73H821.94ZM820.94 16.8H837.66V14.8H820.94V16.8ZM836.66 15.8V73H838.66V15.8H836.66ZM837.66 72H820.94V74H837.66V72ZM842.294 30.04H841.294V31.04H842.294V30.04ZM842.294 15.8V14.8H841.294V15.8H842.294ZM891.574 15.8H892.574V14.8H891.574V15.8ZM891.574 30.04V31.04H892.574V30.04H891.574ZM875.174 30.04V29.04H874.174V30.04H875.174ZM875.174 73V74H876.174V73H875.174ZM858.454 73H857.454V74H858.454V73ZM858.454 30.04H859.454V29.04H858.454V30.04ZM843.294 30.04V15.8H841.294V30.04H843.294ZM842.294 16.8H891.574V14.8H842.294V16.8ZM890.574 15.8V30.04H892.574V15.8H890.574ZM891.574 29.04H875.174V31.04H891.574V29.04ZM874.174 30.04V73H876.174V30.04H874.174ZM875.174 72H858.454V74H875.174V72ZM859.454 73V30.04H857.454V73H859.454ZM858.454 29.04H842.294V31.04H858.454V29.04ZM896.253 73H895.253V74H896.253V73ZM896.253 15.8V14.8H895.253V15.8H896.253ZM940.813 15.8H941.813V14.8H940.813V15.8ZM940.813 29.4V30.4H941.813V29.4H940.813ZM912.973 29.4V28.4H911.973V29.4H912.973ZM912.973 37.16H911.973V38.16H912.973V37.16ZM936.253 37.16H937.253V36.16H936.253V37.16ZM936.253 49.72V50.72H937.253V49.72H936.253ZM912.973 49.72V48.72H911.973V49.72H912.973ZM912.973 58.68H911.973V59.68H912.973V58.68ZM941.613 58.68H942.613V57.68H941.613V58.68ZM941.613 73V74H942.613V73H941.613ZM897.253 73V15.8H895.253V73H897.253ZM896.253 16.8H940.813V14.8H896.253V16.8ZM939.813 15.8V29.4H941.813V15.8H939.813ZM940.813 28.4H912.973V30.4H940.813V28.4ZM911.973 29.4V37.16H913.973V29.4H911.973ZM912.973 38.16H936.253V36.16H912.973V38.16ZM935.253 37.16V49.72H937.253V37.16H935.253ZM936.253 48.72H912.973V50.72H936.253V48.72ZM911.973 49.72V58.68H913.973V49.72H911.973ZM912.973 59.68H941.613V57.68H912.973V59.68ZM940.613 58.68V73H942.613V58.68H940.613ZM941.613 72H896.253V74H941.613V72ZM947.19 73H946.19V74H947.19V73ZM947.19 15.8V14.8H946.19V15.8H947.19ZM993.83 23.48L993.123 24.1871L993.127 24.1908L993.83 23.48ZM993.91 65.56L993.21 64.8454L993.91 65.56ZM963.91 59.16H962.91V60.16H963.91V59.16ZM980.95 55.4L980.22 54.7161L980.22 54.7166L980.95 55.4ZM981.03 33.56L980.278 34.2196L980.286 34.2281L981.03 33.56ZM963.91 29.64V28.64H962.91V29.64H963.91ZM948.19 73V15.8H946.19V73H948.19ZM947.19 16.8H973.59V14.8H947.19V16.8ZM973.59 16.8C981.743 16.8 988.22 19.2842 993.123 24.1871L994.537 22.7729C989.2 17.4358 982.184 14.8 973.59 14.8V16.8ZM993.127 24.1908C998.013 29.0261 1000.51 35.758 1000.51 44.52H1002.51C1002.51 35.362 999.887 28.0672 994.533 22.7692L993.127 24.1908ZM1000.51 44.52C1000.51 53.3966 998.035 60.1223 993.21 64.8454L994.61 66.2746C999.918 61.0777 1002.51 53.7767 1002.51 44.52H1000.51ZM993.21 64.8454C988.377 69.5774 981.641 72 972.87 72V74C982.019 74 989.31 71.4626 994.61 66.2746L993.21 64.8454ZM972.87 72H947.19V74H972.87V72ZM963.91 60.16H971.51V58.16H963.91V60.16ZM971.51 60.16C975.688 60.16 979.115 58.8229 981.68 56.0834L980.22 54.7166C978.091 56.9904 975.225 58.16 971.51 58.16V60.16ZM981.68 56.0839C984.305 53.2833 985.55 49.3798 985.55 44.52H983.55C983.55 49.0469 982.395 52.3967 980.22 54.7161L981.68 56.0839ZM985.55 44.52C985.55 39.6643 984.334 35.743 981.774 32.8919L980.286 34.2281C982.419 36.6037 983.55 39.9891 983.55 44.52H985.55ZM981.782 32.9004C979.266 30.0341 975.799 28.64 971.51 28.64V30.64C975.328 30.64 978.207 31.8593 980.278 34.2196L981.782 32.9004ZM971.51 28.64H963.91V30.64H971.51V28.64ZM962.91 29.64V59.16H964.91V29.64H962.91Z" fill="#27272A" mask="url(#path-5-outside-2_1401_1006)"/>
</svg>
