<svg width="484" height="60" viewBox="0 0 484 60" fill="none" xmlns="http://www.w3.org/2000/svg">
<mask id="path-1-outside-1_1401_1010" maskUnits="userSpaceOnUse" x="-1" y="-1" width="486" height="62" fill="black">
<rect fill="white" x="-1" y="-1" width="486" height="62"/>
<path d="M0.44 58V0.799997H17.16V43.68H41.64V58H0.44ZM46.065 58V0.799997H62.785V58H46.065ZM84.1388 58L65.8187 0.799997H83.0188L90.8588 27.68L93.6588 38.8H93.8188C94.7788 34.64 95.7121 30.9333 96.6188 27.68L104.299 0.799997H121.259L102.859 58H84.1388ZM124.268 58V0.799997H168.828V14.4H140.988V22.16H164.268V34.72H140.988V43.68H169.628V58H124.268ZM212.279 59.04C203.852 59.04 197.479 57.0667 193.159 53.12C188.892 49.12 186.759 43.4667 186.759 36.16V0.799997H203.479V37.12C203.479 39.84 204.225 41.9467 205.719 43.44C207.265 44.9333 209.532 45.68 212.519 45.68C215.292 45.68 217.399 44.88 218.839 43.28C220.332 41.6267 221.079 39.4667 221.079 36.8V0.799997H237.799V36.16C237.799 43.36 235.639 48.9867 231.319 53.04C226.999 57.04 220.652 59.04 212.279 59.04ZM244.268 58V0.799997H260.988L279.708 32.96H279.868V0.799997H296.028V58H278.748L260.588 25.6H260.428V58H244.268ZM302.94 58V0.799997H319.66V58H302.94ZM324.294 15.04V0.799997H373.574V15.04H357.174V58H340.454V15.04H324.294ZM378.253 58V0.799997H422.813V14.4H394.973V22.16H418.253V34.72H394.973V43.68H423.613V58H378.253ZM429.19 58V0.799997H455.59C463.963 0.799997 470.71 3.36 475.83 8.48C480.95 13.5467 483.51 20.56 483.51 29.52C483.51 38.5867 480.977 45.6 475.91 50.56C470.843 55.52 463.83 58 454.87 58H429.19ZM445.91 44.16H453.51C457.457 44.16 460.603 42.9067 462.95 40.4C465.35 37.84 466.55 34.2133 466.55 29.52C466.55 24.8267 465.377 21.1733 463.03 18.56C460.737 15.9467 457.563 14.64 453.51 14.64H445.91V44.16Z"/>
</mask>
<path d="M0.44 58H-0.56V59H0.44V58ZM0.44 0.799997V-0.200003H-0.56V0.799997H0.44ZM17.16 0.799997H18.16V-0.200003H17.16V0.799997ZM17.16 43.68H16.16V44.68H17.16V43.68ZM41.64 43.68H42.64V42.68H41.64V43.68ZM41.64 58V59H42.64V58H41.64ZM1.44 58V0.799997H-0.56V58H1.44ZM0.44 1.8H17.16V-0.200003H0.44V1.8ZM16.16 0.799997V43.68H18.16V0.799997H16.16ZM17.16 44.68H41.64V42.68H17.16V44.68ZM40.64 43.68V58H42.64V43.68H40.64ZM41.64 57H0.44V59H41.64V57ZM46.065 58H45.065V59H46.065V58ZM46.065 0.799997V-0.200003H45.065V0.799997H46.065ZM62.785 0.799997H63.785V-0.200003H62.785V0.799997ZM62.785 58V59H63.785V58H62.785ZM47.065 58V0.799997H45.065V58H47.065ZM46.065 1.8H62.785V-0.200003H46.065V1.8ZM61.785 0.799997V58H63.785V0.799997H61.785ZM62.785 57H46.065V59H62.785V57ZM84.1388 58L83.1864 58.305L83.409 59H84.1388V58ZM65.8187 0.799997V-0.200003H64.4484L64.8664 1.10501L65.8187 0.799997ZM83.0188 0.799997L83.9788 0.519997L83.7688 -0.200003H83.0188V0.799997ZM90.8588 27.68L91.8285 27.4358L91.824 27.4178L91.8188 27.4L90.8588 27.68ZM93.6588 38.8L92.689 39.0442L92.8793 39.8H93.6588V38.8ZM93.8188 38.8V39.8H94.6143L94.7931 39.0249L93.8188 38.8ZM96.6188 27.68L95.6572 27.4053L95.6555 27.4115L96.6188 27.68ZM104.299 0.799997V-0.200003H103.544L103.337 0.525276L104.299 0.799997ZM121.259 0.799997L122.211 1.10622L122.631 -0.200003H121.259V0.799997ZM102.859 58V59H103.588L103.811 58.3062L102.859 58ZM85.0911 57.695L66.7711 0.49498L64.8664 1.10501L83.1864 58.305L85.0911 57.695ZM65.8187 1.8H83.0188V-0.200003H65.8187V1.8ZM82.0588 1.08L89.8988 27.96L91.8188 27.4L83.9788 0.519997L82.0588 1.08ZM89.889 27.9242L92.689 39.0442L94.6285 38.5558L91.8285 27.4358L89.889 27.9242ZM93.6588 39.8H93.8188V37.8H93.6588V39.8ZM94.7931 39.0249C95.7506 34.8759 96.6803 31.1842 97.582 27.9485L95.6555 27.4115C94.7439 30.6825 93.8069 34.4041 92.8444 38.5751L94.7931 39.0249ZM97.5803 27.9547L105.26 1.07472L103.337 0.525276L95.6572 27.4053L97.5803 27.9547ZM104.299 1.8H121.259V-0.200003H104.299V1.8ZM120.307 0.493773L101.907 57.6938L103.811 58.3062L122.211 1.10622L120.307 0.493773ZM102.859 57H84.1388V59H102.859V57ZM124.268 58H123.268V59H124.268V58ZM124.268 0.799997V-0.200003H123.268V0.799997H124.268ZM168.828 0.799997H169.828V-0.200003H168.828V0.799997ZM168.828 14.4V15.4H169.828V14.4H168.828ZM140.988 14.4V13.4H139.988V14.4H140.988ZM140.988 22.16H139.988V23.16H140.988V22.16ZM164.268 22.16H165.268V21.16H164.268V22.16ZM164.268 34.72V35.72H165.268V34.72H164.268ZM140.988 34.72V33.72H139.988V34.72H140.988ZM140.988 43.68H139.988V44.68H140.988V43.68ZM169.628 43.68H170.628V42.68H169.628V43.68ZM169.628 58V59H170.628V58H169.628ZM125.268 58V0.799997H123.268V58H125.268ZM124.268 1.8H168.828V-0.200003H124.268V1.8ZM167.828 0.799997V14.4H169.828V0.799997H167.828ZM168.828 13.4H140.988V15.4H168.828V13.4ZM139.988 14.4V22.16H141.988V14.4H139.988ZM140.988 23.16H164.268V21.16H140.988V23.16ZM163.268 22.16V34.72H165.268V22.16H163.268ZM164.268 33.72H140.988V35.72H164.268V33.72ZM139.988 34.72V43.68H141.988V34.72H139.988ZM140.988 44.68H169.628V42.68H140.988V44.68ZM168.628 43.68V58H170.628V43.68H168.628ZM169.628 57H124.268V59H169.628V57ZM193.159 53.12L192.475 53.8496L192.484 53.8583L193.159 53.12ZM186.759 0.799997V-0.200003H185.759V0.799997H186.759ZM203.479 0.799997H204.479V-0.200003H203.479V0.799997ZM205.719 43.44L205.012 44.1471L205.018 44.1533L205.024 44.1594L205.719 43.44ZM218.839 43.28L218.097 42.6097L218.095 42.611L218.839 43.28ZM221.079 0.799997V-0.200003H220.079V0.799997H221.079ZM237.799 0.799997H238.799V-0.200003H237.799V0.799997ZM231.319 53.04L231.998 53.7738L232.003 53.7693L231.319 53.04ZM212.279 58.04C203.993 58.04 197.902 56.0987 193.833 52.3817L192.484 53.8583C197.056 58.0346 203.711 60.04 212.279 60.04V58.04ZM193.843 52.3905C189.826 48.6245 187.759 43.2638 187.759 36.16H185.759C185.759 43.6695 187.958 49.6155 192.475 53.8495L193.843 52.3905ZM187.759 36.16V0.799997H185.759V36.16H187.759ZM186.759 1.8H203.479V-0.200003H186.759V1.8ZM202.479 0.799997V37.12H204.479V0.799997H202.479ZM202.479 37.12C202.479 40.0254 203.281 42.4165 205.012 44.1471L206.426 42.7329C205.17 41.4769 204.479 39.6546 204.479 37.12H202.479ZM205.024 44.1594C206.82 45.893 209.375 46.68 212.519 46.68V44.68C209.689 44.68 207.711 43.9737 206.413 42.7206L205.024 44.1594ZM212.519 46.68C215.489 46.68 217.901 45.8166 219.582 43.949L218.095 42.611C216.896 43.9434 215.096 44.68 212.519 44.68V46.68ZM219.581 43.9503C221.272 42.0783 222.079 39.6629 222.079 36.8H220.079C220.079 39.2705 219.392 41.1751 218.097 42.6097L219.581 43.9503ZM222.079 36.8V0.799997H220.079V36.8H222.079ZM221.079 1.8H237.799V-0.200003H221.079V1.8ZM236.799 0.799997V36.16H238.799V0.799997H236.799ZM236.799 36.16C236.799 43.1478 234.711 48.4862 230.635 52.3107L232.003 53.7693C236.567 49.4871 238.799 43.5722 238.799 36.16H236.799ZM230.639 52.3062C226.57 56.0745 220.506 58.04 212.279 58.04V60.04C220.798 60.04 227.428 58.0055 231.998 53.7738L230.639 52.3062ZM244.268 58H243.268V59H244.268V58ZM244.268 0.799997V-0.200003H243.268V0.799997H244.268ZM260.988 0.799997L261.852 0.296929L261.563 -0.200003H260.988V0.799997ZM279.708 32.96L278.844 33.4631L279.133 33.96H279.708V32.96ZM279.868 32.96V33.96H280.868V32.96H279.868ZM279.868 0.799997V-0.200003H278.868V0.799997H279.868ZM296.028 0.799997H297.028V-0.200003H296.028V0.799997ZM296.028 58V59H297.028V58H296.028ZM278.748 58L277.876 58.4889L278.162 59H278.748V58ZM260.588 25.6L261.46 25.1111L261.174 24.6H260.588V25.6ZM260.428 25.6V24.6H259.428V25.6H260.428ZM260.428 58V59H261.428V58H260.428ZM245.268 58V0.799997H243.268V58H245.268ZM244.268 1.8H260.988V-0.200003H244.268V1.8ZM260.124 1.30307L278.844 33.4631L280.572 32.4569L261.852 0.296929L260.124 1.30307ZM279.708 33.96H279.868V31.96H279.708V33.96ZM280.868 32.96V0.799997H278.868V32.96H280.868ZM279.868 1.8H296.028V-0.200003H279.868V1.8ZM295.028 0.799997V58H297.028V0.799997H295.028ZM296.028 57H278.748V59H296.028V57ZM279.62 57.5111L261.46 25.1111L259.716 26.0889L277.876 58.4889L279.62 57.5111ZM260.588 24.6H260.428V26.6H260.588V24.6ZM259.428 25.6V58H261.428V25.6H259.428ZM260.428 57H244.268V59H260.428V57ZM302.94 58H301.94V59H302.94V58ZM302.94 0.799997V-0.200003H301.94V0.799997H302.94ZM319.66 0.799997H320.66V-0.200003H319.66V0.799997ZM319.66 58V59H320.66V58H319.66ZM303.94 58V0.799997H301.94V58H303.94ZM302.94 1.8H319.66V-0.200003H302.94V1.8ZM318.66 0.799997V58H320.66V0.799997H318.66ZM319.66 57H302.94V59H319.66V57ZM324.294 15.04H323.294V16.04H324.294V15.04ZM324.294 0.799997V-0.200003H323.294V0.799997H324.294ZM373.574 0.799997H374.574V-0.200003H373.574V0.799997ZM373.574 15.04V16.04H374.574V15.04H373.574ZM357.174 15.04V14.04H356.174V15.04H357.174ZM357.174 58V59H358.174V58H357.174ZM340.454 58H339.454V59H340.454V58ZM340.454 15.04H341.454V14.04H340.454V15.04ZM325.294 15.04V0.799997H323.294V15.04H325.294ZM324.294 1.8H373.574V-0.200003H324.294V1.8ZM372.574 0.799997V15.04H374.574V0.799997H372.574ZM373.574 14.04H357.174V16.04H373.574V14.04ZM356.174 15.04V58H358.174V15.04H356.174ZM357.174 57H340.454V59H357.174V57ZM341.454 58V15.04H339.454V58H341.454ZM340.454 14.04H324.294V16.04H340.454V14.04ZM378.253 58H377.253V59H378.253V58ZM378.253 0.799997V-0.200003H377.253V0.799997H378.253ZM422.813 0.799997H423.813V-0.200003H422.813V0.799997ZM422.813 14.4V15.4H423.813V14.4H422.813ZM394.973 14.4V13.4H393.973V14.4H394.973ZM394.973 22.16H393.973V23.16H394.973V22.16ZM418.253 22.16H419.253V21.16H418.253V22.16ZM418.253 34.72V35.72H419.253V34.72H418.253ZM394.973 34.72V33.72H393.973V34.72H394.973ZM394.973 43.68H393.973V44.68H394.973V43.68ZM423.613 43.68H424.613V42.68H423.613V43.68ZM423.613 58V59H424.613V58H423.613ZM379.253 58V0.799997H377.253V58H379.253ZM378.253 1.8H422.813V-0.200003H378.253V1.8ZM421.813 0.799997V14.4H423.813V0.799997H421.813ZM422.813 13.4H394.973V15.4H422.813V13.4ZM393.973 14.4V22.16H395.973V14.4H393.973ZM394.973 23.16H418.253V21.16H394.973V23.16ZM417.253 22.16V34.72H419.253V22.16H417.253ZM418.253 33.72H394.973V35.72H418.253V33.72ZM393.973 34.72V43.68H395.973V34.72H393.973ZM394.973 44.68H423.613V42.68H394.973V44.68ZM422.613 43.68V58H424.613V43.68H422.613ZM423.613 57H378.253V59H423.613V57ZM429.19 58H428.19V59H429.19V58ZM429.19 0.799997V-0.200003H428.19V0.799997H429.19ZM475.83 8.48L475.123 9.18712L475.127 9.1908L475.83 8.48ZM475.91 50.56L475.21 49.8454L475.91 50.56ZM445.91 44.16H444.91V45.16H445.91V44.16ZM462.95 40.4L462.22 39.7161L462.22 39.7166L462.95 40.4ZM463.03 18.56L462.278 19.2196L462.286 19.2281L463.03 18.56ZM445.91 14.64V13.64H444.91V14.64H445.91ZM430.19 58V0.799997H428.19V58H430.19ZM429.19 1.8H455.59V-0.200003H429.19V1.8ZM455.59 1.8C463.743 1.8 470.22 4.28418 475.123 9.18711L476.537 7.77289C471.2 2.43582 464.184 -0.200003 455.59 -0.200003V1.8ZM475.127 9.1908C480.013 14.0261 482.51 20.758 482.51 29.52H484.51C484.51 20.362 481.887 13.0672 476.533 7.7692L475.127 9.1908ZM482.51 29.52C482.51 38.3966 480.035 45.1223 475.21 49.8454L476.61 51.2746C481.918 46.0777 484.51 38.7767 484.51 29.52H482.51ZM475.21 49.8454C470.377 54.5774 463.641 57 454.87 57V59C464.019 59 471.31 56.4626 476.61 51.2746L475.21 49.8454ZM454.87 57H429.19V59H454.87V57ZM445.91 45.16H453.51V43.16H445.91V45.16ZM453.51 45.16C457.688 45.16 461.115 43.8229 463.68 41.0834L462.22 39.7166C460.091 41.9904 457.225 43.16 453.51 43.16V45.16ZM463.68 41.0839C466.305 38.2833 467.55 34.3798 467.55 29.52H465.55C465.55 34.0469 464.395 37.3967 462.22 39.7161L463.68 41.0839ZM467.55 29.52C467.55 24.6643 466.334 20.743 463.774 17.8919L462.286 19.2281C464.419 21.6037 465.55 24.9891 465.55 29.52H467.55ZM463.782 17.9004C461.266 15.0341 457.799 13.64 453.51 13.64V15.64C457.328 15.64 460.207 16.8593 462.278 19.2196L463.782 17.9004ZM453.51 13.64H445.91V15.64H453.51V13.64ZM444.91 14.64V44.16H446.91V14.64H444.91Z" fill="#27272A" mask="url(#path-1-outside-1_1401_1010)"/>
</svg>
