<?xml version="1.0" encoding="utf-8"?>
<!-- Generator: Adobe Illustrator 24.3.0, SVG Export Plug-In . SVG Version: 6.00 Build 0)  -->
<svg version="1.1" id="Layer_1" xmlns="http://www.w3.org/2000/svg" xmlns:xlink="http://www.w3.org/1999/xlink" x="0px" y="0px"
	 viewBox="0 0 841.9 595.3" style="enable-background:new 0 0 841.9 595.3;" xml:space="preserve">
<style type="text/css">
	.st0{fill-rule:evenodd;clip-rule:evenodd;}
</style>
<g>
	<path class="st0" d="M465.5,281.7c0.2-14.2,1.2-28.5,4.8-42.3c8.8-33.6,27.9-54.2,57.2-61.3c15.9-3.8,31.8-3.7,47.7,0.6
		c29.6,8,48.2,29.5,55.6,64c3.8,17.4,4.4,35.1,3.3,53c-0.7,10.8-2.2,21.4-5.2,31.6c-9.6,32.8-29,52.3-57.9,58.9
		c-15.5,3.5-31.2,3.2-46.6-1.1c-27.9-7.8-45.7-28.3-54.1-60.3C466.7,310.9,465.7,296.4,465.5,281.7z M494.6,281.5
		c0,4.2-0.2,8.3,0,12.5c0.7,10.8,2.2,21.3,5.7,31.4c6.1,17.6,16.8,29,32.6,33.3c11.2,3.1,22.5,3.1,33.8,0.1
		c15.4-4,26.2-14.6,32.6-31.6c1.2-3.3,2.2-6.7,3.1-10.1c3.7-15.4,4.2-31.1,3.3-46.9c-0.6-10.8-2.1-21.4-5.5-31.5
		c-5.4-15.9-15-26.6-28.9-31.9c-11-4.2-22.3-4.6-33.7-2.5c-20.4,3.9-33.8,17.4-39.6,40.9C495.1,257.2,494.3,269.3,494.6,281.5z"/>
	<path class="st0" d="M688.7,384.6c-9.7,0-18.8,0-28.2,0c0-68.5,0-136.8,0-205.1c2.7-0.9,16.4-1.1,23.5-0.4c0.7,7.4,1.4,15,2.1,23.2
		c1.3-1.1,2.2-1.7,3-2.5c15.4-14.2,33-21.9,52.5-23.9c9.9-1,19.8-0.5,29.5,2.2c24.1,6.8,38.4,24.7,43.1,53.3
		c1.4,8.8,1.9,17.7,1.9,26.6c0.1,40.5,0,81,0,121.5c0,1.5,0,3.1,0,4.9c-9.5,0-18.6,0-28.2,0c0-1.6-0.1-3.2-0.1-4.9
		c0-40.1,0.1-80.1-0.1-120.2c0-6.3-0.5-12.6-1.3-18.8c-2.7-18.9-12-30.8-28-34c-25.1-5-47.7,1.9-67.1,22c-2,2.1-2.7,4.3-2.7,7.5
		c0.1,47.7,0.1,95.3,0.1,143C688.7,380.8,688.7,382.5,688.7,384.6z"/>
	<path class="st0" d="M184.1,384.6c-7.9,0-15.6,0-23.5,0c-0.7-7.4-1.3-14.6-2.1-22.3c-1,0.7-1.7,1.1-2.2,1.6
		c-19.1,17.9-41,25.3-65.3,24.3c-10.2-0.4-20.1-2.7-29.4-7.9c-15.9-8.9-25.2-23.9-29.1-43.9c-1.7-8.6-2.4-17.3-2.4-26.1
		c0-42.4,0-84.7,0-127.1c0-1.3,0-2.5,0-4.1c9.4,0,18.5,0,28,0c0.1,1.8,0.2,3.6,0.2,5.4c0,40.5,0,81,0.1,121.5c0,6,0.4,12.1,1.3,18
		c2.8,19,13.2,31.1,29.4,33.9c24.3,4.2,45.7-3.6,64-22.9c2-2.1,2.7-4.3,2.7-7.5c-0.1-47.7-0.1-95.3-0.1-143c0-1.7,0-3.4,0-5.4
		c9.5,0,18.7,0,28.2,0C184.1,247.5,184.1,315.8,184.1,384.6z"/>
	<path class="st0" d="M240.9,275.3c-10,0.8-19.8-0.9-29.8,1.5c0-33.9,0-67.5,0-101.4c9.3,0,18.4,0,27.9,0c0,4.6,0,9.2,0,14.3
		c1.9,0,3.4,0.1,5,0.1c41.5,0,83.1,0,124.6,0c1.2,0,2.4,0,3.7,0c6.9,0.4,12.4,6.6,13.1,14.7c0.1,1.1,0.1,2.3,0.1,3.4
		c0,21.4,0,42.8,0,64.2c0,1.4-0.1,2.8-0.2,3.9c-10.1-0.3-19.9-0.5-30-0.8c3.4-9.4,1.8-19,2-28.4c0.2-6.9-3.2-10.7-9-10.7
		c-10.9-0.1-21.8-0.1-32.6,0c-5.6,0.1-8.8,3.9-8.9,10.5c-0.1,6.2-0.2,12.4,0.1,18.5c0.1,3.2,1,6.4,1.6,9.6
		c-2.4,0.9-15.2,1.1-20.1,0.3c-0.1-0.2-0.3-0.5-0.3-0.7c3.1-9.4,1.7-19.3,1.7-29c0-5.6-3.5-9.2-8.4-9.3c-11.2-0.1-22.5-0.1-33.7,0
		c-5.2,0.1-8.3,4-8.4,10.2c-0.1,6.3-0.2,12.6,0,18.9C239.4,268.5,240.3,271.7,240.9,275.3z"/>
	<path class="st0" d="M200,328c-0.1-1.5-0.2-2.8-0.2-4c0-8.2,0-16.4,0-24.5c0-10.5,5.7-17.3,14.6-17.4c9.5-0.1,19.1,0,28.6,0
		c43.8,0,87.5,0,131.3,0c2.4,0,5-0.1,7.3,0.6c8,2.4,13.3,8.4,14.8,18.2c1.4,8.9,0.2,18,0.6,27.3C331.1,328,265.6,328,200,328z"/>
	<path class="st0" d="M200.1,334.8c65.6,0,131,0,196.6,0c0,17.6,0,35,0,52.8c-9.2,0-18.4,0-28,0c0-6.6,0-13,0-19.7
		c-47,0-93.6,0-140.6,0c0,6.6,0,13,0,19.7c-9.5,0-18.6,0-28,0C200.1,370,200.1,352.6,200.1,334.8z"/>
	<path class="st0" d="M439.9,384.6c-9.5,0-18.6,0-28,0c0-68.6,0-136.9,0-205.5c9.3,0,18.4,0,27.5,0c0.1,0.1,0.2,0.2,0.2,0.3
		c0.1,0.1,0.2,0.2,0.2,0.3c0.1,67.3,0.1,134.6,0.2,201.9C440.1,382.5,440,383.3,439.9,384.6z"/>
	<path class="st0" d="M828.1,427.7c-0.1,1.3-0.1,2.1-0.2,3.1c-264.4,0-528.5,0-792.8,0c-0.2-0.4-0.4-0.8-0.4-1.2
		c0-0.5,0.1-1.1,0.1-2C299.1,427.7,563.4,427.7,828.1,427.7z"/>
	<path class="st0" d="M827.9,494.3c0,1,0.1,1.8,0.1,2.6c-2.7,0.9-786.2,1.3-793.2,0.4c0-0.9-0.1-1.8-0.2-3
		C299.1,494.3,563.4,494.3,827.9,494.3z"/>
	<path class="st0" d="M244.8,275.2c0-10.9,0-21.5,0-32c2.7-0.9,34.4-1.1,39.3-0.2c0,10.6,0,21.3,0,32.2
		C270.9,275.2,258,275.2,244.8,275.2z"/>
	<path class="st0" d="M311.9,275.3c0-11,0-21.7,0-32.5c13.1,0,26,0,38.9,0c0.8,3,1,27.8,0.2,32.5
		C338.1,275.3,325.3,275.3,311.9,275.3z"/>
	<path class="st0" d="M425.9,136.3c-3-0.6-6.1-0.9-9-1.9c-5.6-2.1-9.1-6.7-10.1-13.5c-2.1-14.7,4.9-22.8,14.8-24.1
		c4.3-0.6,8.6-0.4,12.7,1.1c5.7,2.2,9.3,6.7,10.4,13.7c2.2,13.6-4,23.1-15.9,24.1c-1,0.1-1.9,0.1-2.9,0.2
		C425.9,136.1,425.9,136.2,425.9,136.3z"/>
	<path class="st0" d="M552.8,446.3c1.9,0,3.3,0,4.6,0c0.2,0.3,0.5,0.5,0.5,0.8c0,7.5,0.4,14.9,0,22.4c-0.4,8.2-4,11.7-11,11.8
		c-0.7,0-1.5,0-2.2,0c-6.1-0.3-9.8-3.9-10.2-11c-0.4-7.8-0.1-15.7-0.1-23.9c1.6,0,3,0,4.7,0c0.1,1,0.3,2.1,0.3,3.2
		c0,5.2,0,10.3,0,15.5c0,1.3,0,2.6,0.1,3.9c0.6,6,4.3,8.7,9.2,6.9c2.7-1,3.9-3.4,3.9-6.5c0.1-5.3,0.1-10.6,0.1-15.9
		C552.8,451.1,552.8,448.8,552.8,446.3z"/>
	<path class="st0" d="M689,454.3c0-3.7,0-7.4,0-11.4c1.7,0,3.1,0,4.5,0c0.8,2.9,1,32.1,0.3,37.5c-3,0.7-3,0.7-4.3-1.2
		c-2.2,0.7-4.2,1.8-6.3,1.9c-4.1,0.3-7-2.4-8.1-7c-0.9-3.7-0.9-7.4,0-11.1c1-4,3.2-6.8,6.7-7.7C684,454.8,686.2,454.7,689,454.3z
		 M689,460c-3.4-0.8-6-0.9-7.9,2c-1.6,2.5-1.7,9.4-0.1,11.9c1.1,1.9,3.1,2.7,5.2,2c1.5-0.4,2.8-1.2,2.8-3.4
		C689,468.5,689,464.4,689,460z"/>
	<path class="st0" d="M253.4,446.2c6.6,0,12.9,0,19.4,0c0,1.6,0,2.9,0,4.7c-4.7,0-9.3,0-14.1,0c0,3.2,0,6,0,9.3c3.9,0,7.9,0,12.1,0
		c0,1.9,0,3.2,0,5.1c-4,0-8,0-12.1,0c0,3.6,0,6.7,0,10.3c4.7,0,9.4,0,14.4,0c0.1,1.9,0.1,3.2,0.2,4.9c-6.6,0-13,0-19.7,0
		C253.4,469.2,253.4,458,253.4,446.2z"/>
	<path class="st0" d="M338.7,455.5c2,0,3.5,0,5.4,0c1.8,6.1,3.5,12.3,5.6,19.4c1.7-3.7,2.3-6.9,3.3-10c0.9-3.1,1.8-6.2,2.8-9.5
		c1.7,0,3.2,0,5.1,0c-3.7,12-7.3,23.6-10.9,35.5c-1.6,0-3.1,0-5.1,0c1-3.2,1.8-6.1,2.5-8.3C343.9,473.5,341.7,464.6,338.7,455.5z"/>
	<path class="st0" d="M301.1,480.5c-2,0.8-3.7,0.7-4.9-1.7c-2.3,2.4-4.9,2.7-7.6,2.3c-2.8-0.5-4.6-2.7-5-5.9
		c-0.4-3.1,0.8-6.2,3.3-7.4c1.4-0.7,3-1,4.6-1.4c1.3-0.3,2.7-0.5,4-0.7c0.2,0,0.4-0.3,0.6-0.4c0-4.4-0.8-5.6-4.2-5.7
		c-2.1-0.1-4.1,0.3-6.5,0.5c-0.1-1.3-0.1-2.6-0.2-4c3.2-1.4,6.2-1.6,9.2-1.2c4.6,0.7,6.4,2.9,7,8.3c0.2,2.3,0.2,4.6,0.2,6.9
		c0,3.2,0,6.3-0.1,9.5C301.4,479.7,301.3,479.9,301.1,480.5z M295.9,469.5c-1.6,0.2-3.3,0.2-4.9,0.7c-1.6,0.5-2.5,1.9-2.2,3.8
		c0.2,2,1.4,2.9,3.1,2.9C295.5,477.1,296.7,475.1,295.9,469.5z"/>
	<path class="st0" d="M577,480.9c-1.6,0-2.4,0-3.3,0c-0.5,0-0.9-0.2-1.7-0.3c0-8.3,0-16.5,0-25c1.9-0.7,3.7-0.8,4.8,1
		c2.3-0.7,4.4-1.7,6.5-1.9c3.9-0.3,6.8,2.4,7.1,6.9c0.3,6.2,0.1,12.5,0.1,19c-1.6,0-3.1,0-4.9,0c0-1.8-0.1-3.6-0.1-5.4
		c0-3.7,0.1-7.5-0.1-11.2c-0.1-2.9-1.5-4.3-3.7-4.2c-2.5,0-4.5,1.8-4.6,4.4c-0.1,3.9-0.1,7.7-0.1,11.6
		C577,477.3,577,478.9,577,480.9z"/>
	<path class="st0" d="M504,469.7c-4.6,0-8.7,0-12.8,0c-0.4,3.9,0.4,5.8,3,6.3c2.6,0.5,5.3,0.1,8.4,0.1c0.1,1.3,0.1,2.6,0.2,4.2
		c-4.1,1.2-7.9,1.4-11.7-0.1c-2.9-1.1-4.8-3.7-5.2-7.2c-0.4-3.4-0.5-6.9,0-10.2c0.8-5.3,4.3-8.2,9-8.2c4.6,0,7.5,2.6,8.7,8.1
		c0.2,1,0.3,2,0.4,3C504,466.8,504,467.9,504,469.7z M498.9,465.6c0.1-5.1-1.2-7.2-4.2-7c-2.8,0.2-3.9,2.3-3.6,7
		C493.6,465.6,496.3,465.6,498.9,465.6z"/>
	<path class="st0" d="M221.4,476c0,1.5,0,2.7,0,4.4c-4.1,1-8.1,1.4-12.2-0.4c-2-0.9-3.5-2.7-4.2-5.1c-1.4-4.6-1.5-9.3,0-13.9
		c1.4-4.4,5.1-6.8,9.5-6.3c4.1,0.4,6.8,3.1,7.7,7.8c0.4,2.2,0.4,4.5,0.6,7.1c-4.7,0-8.9,0-13.1,0c-0.2,4.3,0.6,5.8,3.5,6.5
		c1.5,0.4,3.1,0.3,4.7,0.3C219.1,476.4,220.2,476.2,221.4,476z M217.8,465.6c-0.3-5.4-1.6-7.3-4.5-7c-2.7,0.2-3.9,2.4-3.7,7
		C212.3,465.6,214.9,465.6,217.8,465.6z"/>
	<path class="st0" d="M663.7,469.8c-4.9,0-9.1,0-13.3,0c0.3,4.7,1.1,5.9,4.3,6.6c1.2,0.3,2.4,0.3,3.6,0.2c1.2-0.1,2.4-0.4,3.9-0.6
		c0,1.6,0,3,0,4.5c-3.7,1-7.3,1.2-10.9,0.1c-2.9-0.9-4.9-3.2-5.7-6.6c-1-4-1-7.9,0-11.9c1.4-5.1,4.9-7.7,9.6-7.3
		c4.5,0.3,7.3,3.4,8.1,8.9C663.5,465.3,663.5,467.2,663.7,469.8z M658.6,465.6c-0.3-5.4-1.5-7.2-4.5-7c-2.7,0.2-3.9,2.3-3.7,7
		C653,465.6,655.7,465.6,658.6,465.6z"/>
	<path class="st0" d="M186.6,480.8c-2.2,0-4.1,0-6.5,0c-2.5-8.1-5.1-16.4-7.7-25.2c2,0,3.6,0,5.5,0c1.8,6,3.5,12.1,5.3,18.3
		c0.3,0,0.5,0,0.8,0.1c1.8-6.1,3.6-12.3,5.5-18.5c1.6,0,3,0,5,0C191.9,464.1,189.3,472.4,186.6,480.8z"/>
	<path class="st0" d="M453.5,455.4c1.9,0,3.4,0,5.4,0c1.8,6.1,3.7,12.3,5.5,18.6c0.2,0,0.4,0,0.7,0c1.8-6.1,3.6-12.3,5.5-18.6
		c1.6,0,3.2,0,5.1,0c-2.7,8.6-5.2,16.9-7.7,25.3c-2.3,0-4.3,0-6.6,0C458.7,472.4,456.2,464.1,453.5,455.4z"/>
	<path class="st0" d="M130.7,475.9c5,0,9.2,0,13.8,0c0.1,1.6,0.1,3,0.2,4.7c-6.4,0-12.5,0-18.9,0c0-11.3,0-22.6,0-34.2
		c1.5,0,3,0,5,0C130.7,456,130.7,465.7,130.7,475.9z"/>
	<path class="st0" d="M426.2,475.8c0,2,0,3.2,0,4.4c-2.7,0.9-14.1,1.1-18.8,0.3c0-11.3,0-22.7,0-34.2c0.8-0.1,1.4-0.2,1.9-0.2
		c0.8,0,1.7,0.1,3,0.2c0,9.8,0,19.4,0,29.5C417.1,475.8,421.5,475.8,426.2,475.8z"/>
	<path class="st0" d="M328.3,455.7c0,1.5,0,2.7,0,4.1c-1.9-0.1-3.6-0.3-5.2-0.3c-1.1,0-2.3,0.1-3.2,0.6c-0.7,0.4-1.5,1.7-1.5,2.5
		c0,0.8,0.9,2.1,1.6,2.4c1.7,0.7,3.6,0.9,5.3,1.5c3.4,1.2,4.7,3.7,4.3,7.8c-0.3,2.9-1.7,4.7-3.8,5.8c-3.4,1.6-7,1.3-10.4,0.5
		c-2.3-0.6-1.6-2.7-1.2-4.8c1.4,0.2,2.7,0.6,4,0.6c1.4,0.1,2.9,0,4.3-0.2c1.3-0.2,2.2-1.2,2.2-2.9c0-1.8-1.1-2.4-2.4-2.7
		c-1.5-0.4-3.1-0.7-4.6-1.2c-3.5-1.3-4.9-4.1-4.3-8.2c0.4-3.1,2.2-4.7,4.5-5.6C321.2,454.3,324.6,454.2,328.3,455.7z"/>
	<path class="st0" d="M623.6,460.2c-1.5-0.3-2.5-0.5-3.6-0.8c0-1.3,0-2.5,0-3.8c1-0.2,2.1-0.5,3.3-0.8c0.4-2.7,0.8-5.5,1.2-8.6
		c1.2-0.1,2.4-0.1,3.9-0.2c0.1,3.1,0.3,5.8,0.4,8.9c1.9,0.2,3.7,0.3,5.6,0.5c0,1.4,0,2.6,0,4c-1.9,0.2-3.7,0.4-5.8,0.6
		c0,4.2-0.1,8.2,0,12.1c0.1,2.6,1.1,3.5,3.2,3.8c0.8,0.1,1.7,0.1,2.8,0.2c0,1.5,0,2.8,0,4.4c-2,0.9-4.1,0.8-6.1,0.3
		c-3.1-0.6-4.9-3.3-5-7.4C623.5,469.2,623.6,464.9,623.6,460.2z"/>
	<path class="st0" d="M608.7,480.7c-1.7,0-3.1,0-4.6,0c0-8.4,0-16.6,0-25.2c1.5,0,2.9,0,4.6,0C608.7,463.9,608.7,472.1,608.7,480.7z
		"/>
	<path class="st0" d="M156.2,455.4c1.6,0,3,0,4.3,0c0.9,3.1,1,20.8,0.2,25.3c-1.4,0-2.8,0-4.4,0
		C156.2,472.3,156.2,464.1,156.2,455.4z"/>
	<path class="st0" d="M442.6,480.7c-1.3,0.1-2.1,0.2-2.9,0.2c-0.6,0-1.2-0.2-2-0.3c0-8.4,0-16.6,0-25.1c1.5,0,3,0,4.9,0
		C442.8,463.7,442.8,472,442.6,480.7z"/>
	<path class="st0" d="M371.2,488.5c0.5-2.4,0.9-4.3,1.4-6.5c-0.7-0.7-1.8-1.2-2.1-2.1c-0.4-1.4-0.7-3.2-0.3-4.4c0.4-1,1.9-1.8,3-1.8
		c1,0.1,2.3,1.1,2.8,2.1c1.3,2.4-0.1,10.2-2,12.1c-0.3,0.3-0.6,0.5-1,0.5C372.6,488.6,372.1,488.5,371.2,488.5z"/>
	<path class="st0" d="M710.4,481.2c-2.1,0-3.2-1.3-3.3-3.6c0-2.4,1.3-4,3.4-3.9c2,0.1,3.4,1.8,3.3,4.1
		C713.7,480,712.4,481.2,710.4,481.2z"/>
	<path class="st0" d="M606.2,450.7c-1.9-0.1-3.1-1.3-3.1-3.4c0-2.3,1.1-3.4,3.4-3.3c2,0.1,3.1,1.2,3.1,3.3
		C609.6,449.5,608.2,450.8,606.2,450.7z"/>
	<path class="st0" d="M159,444c2,0.2,2.9,1.4,2.8,3.6c-0.1,2.1-1.6,3.3-3.7,3.1c-1.8-0.2-3-1.7-2.8-3.7
		C155.5,444.9,156.9,443.8,159,444z"/>
	<path class="st0" d="M440.1,450.7c-1.9,0-3.1-1.3-3.2-3.3c-0.1-2.2,1.2-3.5,3.3-3.4c2.1,0,3.1,1,3.1,3.2
		C443.5,449.4,442.2,450.8,440.1,450.7z"/>
</g>
</svg>
