<svg width="102" height="102" viewBox="0 0 102 102" fill="none" xmlns="http://www.w3.org/2000/svg">
<path fill-rule="evenodd" clip-rule="evenodd" d="M102 51C102 79.1667 79.1667 102 51 102C22.8335 102 0 79.1667 0 51C0 22.8335 22.8335 0 51 0C79.1667 0 102 22.8335 102 51ZM37.4002 42.3113C42.1986 42.3113 46.0889 38.421 46.0889 33.6221C46.0889 28.8237 42.1986 24.9333 37.4002 24.9333C32.6012 24.9333 28.711 28.8237 28.711 33.6221C28.711 38.421 32.6012 42.3113 37.4002 42.3113ZM64.5999 42.3113C69.3988 42.3113 73.289 38.421 73.289 33.6221C73.289 28.8237 69.3988 24.9333 64.5999 24.9333C59.8014 24.9333 55.9111 28.8237 55.9111 33.6221C55.9111 38.421 59.8014 42.3113 64.5999 42.3113ZM51.3777 68.7556C39.694 68.7556 30.2223 59.2838 30.2223 47.6002H21.1556C21.1556 64.2912 34.6867 77.8224 51.3777 77.8224C68.0692 77.8224 81.6 64.2912 81.6 47.6002H72.5331C72.5331 59.2838 63.0618 68.7556 51.3777 68.7556Z" fill="#DC5B27"/>
</svg>
